G04 Layer: BottomSilkLayer*
G04 EasyEDA v6.4.14, 2021-01-16T22:14:06+01:00*
G04 127a1a6c01e64450920e76bbda239c08,12e5bc712d0f4a5fb02ba00eb72bdd37,10*
G04 Gerber Generator version 0.2*
G04 Scale: 100 percent, Rotated: No, Reflected: No *
G04 Dimensions in inches *
G04 leading zeros omitted , absolute positions ,3 integer and 6 decimal *
%FSLAX36Y36*%
%MOIN*%

%ADD10C,0.0100*%
%ADD23C,0.0080*%

%LPD*%
D23*
X482282Y1369110D02*
G01*
X467983Y1331509D01*
X453683Y1369110D02*
G01*
X467983Y1331509D01*
X432883Y1356610D02*
G01*
X436482Y1354810D01*
X440083Y1351210D01*
X441882Y1345909D01*
X441882Y1342310D01*
X440083Y1336909D01*
X436482Y1333310D01*
X432883Y1331509D01*
X427483Y1331509D01*
X423982Y1333310D01*
X420383Y1336909D01*
X418582Y1342310D01*
X418582Y1345909D01*
X420383Y1351210D01*
X423982Y1354810D01*
X427483Y1356610D01*
X432883Y1356610D01*
X406782Y1356610D02*
G01*
X406782Y1338710D01*
X404983Y1333310D01*
X401382Y1331509D01*
X395982Y1331509D01*
X392483Y1333310D01*
X387083Y1338710D01*
X387083Y1356610D02*
G01*
X387083Y1331509D01*
X369882Y1369110D02*
G01*
X369882Y1338710D01*
X368082Y1333310D01*
X364483Y1331509D01*
X360982Y1331509D01*
X375282Y1356610D02*
G01*
X362782Y1356610D01*
X522412Y1261783D02*
G01*
X524112Y1265383D01*
X527713Y1268883D01*
X531313Y1270684D01*
X538513Y1270684D01*
X542012Y1268883D01*
X545613Y1265383D01*
X547412Y1261783D01*
X549212Y1256383D01*
X549212Y1247483D01*
X547412Y1242083D01*
X545613Y1238483D01*
X542012Y1234884D01*
X538513Y1233083D01*
X531313Y1233083D01*
X527713Y1234884D01*
X524112Y1238483D01*
X522412Y1242083D01*
X522412Y1247483D01*
X531313Y1247483D02*
G01*
X522412Y1247483D01*
X510513Y1270684D02*
G01*
X510513Y1233083D01*
X510513Y1270684D02*
G01*
X485513Y1233083D01*
X485513Y1270684D02*
G01*
X485513Y1233083D01*
X473712Y1270684D02*
G01*
X473712Y1233083D01*
X473712Y1270684D02*
G01*
X461212Y1270684D01*
X455812Y1268883D01*
X452213Y1265383D01*
X450412Y1261783D01*
X448612Y1256383D01*
X448612Y1247483D01*
X450412Y1242083D01*
X452213Y1238483D01*
X455812Y1234884D01*
X461212Y1233083D01*
X473712Y1233083D01*
X568545Y1166959D02*
G01*
X568545Y1134659D01*
X584646Y1150859D02*
G01*
X552445Y1150859D01*
X519146Y1172258D02*
G01*
X537046Y1172258D01*
X538846Y1156158D01*
X537046Y1157959D01*
X531646Y1159758D01*
X526346Y1159758D01*
X520946Y1157959D01*
X517345Y1154358D01*
X515546Y1149059D01*
X515546Y1145459D01*
X517345Y1140059D01*
X520946Y1136458D01*
X526346Y1134659D01*
X531646Y1134659D01*
X537046Y1136458D01*
X538846Y1138258D01*
X540645Y1141858D01*
X503746Y1159758D02*
G01*
X493046Y1134659D01*
X482245Y1159758D02*
G01*
X493046Y1134659D01*
D10*
X513779Y1376653D02*
G01*
X557087Y1376653D01*
X557087Y1349095D01*
X600393Y1349095D01*
X600393Y1376653D01*
X667322Y1376653D01*
X677323Y1378622D02*
G01*
X677323Y1327438D01*
X537399Y1329409D01*
X677323Y1278622D02*
G01*
X564961Y1278227D01*
X677323Y1278622D02*
G01*
X677323Y1227438D01*
X588584Y1227046D01*
X675198Y1179801D02*
G01*
X600394Y1179801D01*
X677323Y1178622D02*
G01*
X677323Y1127438D01*
X608269Y1128622D01*
X677323Y1078622D02*
G01*
X608269Y1077440D01*
X677323Y1027438D02*
G01*
X600394Y1026260D01*
X677323Y978622D02*
G01*
X588584Y979016D01*
X677323Y978622D02*
G01*
X677323Y927438D01*
X562124Y928346D01*
X677323Y878622D02*
G01*
X532785Y876999D01*
X677323Y878622D02*
G01*
X677323Y827438D01*
X505254Y828000D01*
X677323Y1078622D02*
G01*
X677323Y1027438D01*
X-508108Y877087D02*
G01*
X-271891Y848935D01*
X-271891Y848937D02*
G01*
X-272964Y849421D01*
X-274387Y851379D01*
X-276455Y857067D01*
X-278357Y865871D01*
X-280039Y877458D01*
X-282487Y907444D01*
X-283447Y942883D01*
X-282764Y978777D01*
X-281826Y995309D01*
X-280293Y1012307D01*
X-278659Y1024333D01*
X-276455Y1034904D01*
X-274391Y1040569D01*
X-273324Y1042184D01*
X-272249Y1042961D01*
X-271891Y1043031D02*
G01*
X-508108Y1014882D01*
X-271891Y869214D02*
G01*
X-126023Y869214D01*
X-126023Y1022755D02*
G01*
X-271891Y1022755D01*
X-547478Y877087D02*
G01*
X-508108Y877087D01*
X-508108Y1014882D02*
G01*
X-547478Y1014882D01*
X-508108Y877087D02*
G01*
X-508108Y1014882D01*
X-271891Y848939D02*
G01*
X-271891Y1043029D01*
X-547478Y877087D02*
G01*
X-547478Y1014882D01*
X-105747Y1043031D02*
G01*
X-126023Y1022755D01*
X-126023Y869214D02*
G01*
X-105747Y848937D01*
X-126023Y869214D02*
G01*
X-126023Y1022755D01*
X-105747Y845000D02*
G01*
X-105747Y1100906D01*
X-105747Y845000D02*
G01*
X-14002Y845000D01*
X-508503Y1328818D02*
G01*
X-272283Y1356970D01*
X-106149Y1162925D02*
G01*
X-107116Y1191781D01*
X-107519Y1259917D01*
X-107116Y1328051D01*
X-106194Y1356732D01*
X-272283Y1356968D02*
G01*
X-273359Y1356484D01*
X-274780Y1354526D01*
X-276846Y1348838D01*
X-278750Y1340034D01*
X-280430Y1328447D01*
X-282881Y1298461D01*
X-283840Y1263022D01*
X-283157Y1227129D01*
X-282219Y1210596D01*
X-280686Y1193598D01*
X-279052Y1181572D01*
X-276846Y1171001D01*
X-274785Y1165336D01*
X-273717Y1163721D01*
X-272644Y1162944D01*
X-106140Y1162874D02*
G01*
X-126415Y1183148D01*
X-126415Y1336691D02*
G01*
X-106140Y1356970D01*
X-272283Y1162874D02*
G01*
X-508503Y1191023D01*
X-272283Y1336691D02*
G01*
X-126415Y1336691D01*
X-126415Y1183148D02*
G01*
X-272283Y1183148D01*
X-547874Y1328818D02*
G01*
X-508503Y1328818D01*
X-508503Y1191023D02*
G01*
X-547874Y1191023D01*
X366683Y584517D02*
G01*
X562124Y928346D01*
X-59443Y928346D02*
G01*
X135994Y584517D01*
X135994Y1625486D02*
G01*
X-59443Y1281653D01*
X562124Y1281653D02*
G01*
X366683Y1625486D01*
X-106140Y1360906D02*
G01*
X-14394Y1360906D01*
X-106140Y1360906D02*
G01*
X-106140Y1105000D01*
X-126415Y1336691D02*
G01*
X-126415Y1183148D01*
X-508503Y1328818D02*
G01*
X-508503Y1191023D01*
X-272283Y1356965D02*
G01*
X-272283Y1162876D01*
X-547874Y1328818D02*
G01*
X-547874Y1191023D01*
G75*
G01*
X366684Y584515D02*
G02*
X135993Y584515I-115345J65564D01*
G75*
G01*
X135993Y1625485D02*
G02*
X366684Y1625485I115346J-65564D01*
G75*
G01*
X-59445Y928348D02*
G02*
X-59445Y1281652I310783J176652D01*
G75*
G01*
X562122Y1281652D02*
G02*
X562122Y928348I-310783J-176652D01*
G75*
G01
X330870Y1559920D02*
G03X330870Y1559920I-79530J0D01*
G75*
G01
X330870Y650080D02*
G03X330870Y650080I-79530J0D01*
M02*
