G04 Layer: BottomLayer*
G04 EasyEDA v6.4.14, 2021-01-16T22:14:06+01:00*
G04 127a1a6c01e64450920e76bbda239c08,12e5bc712d0f4a5fb02ba00eb72bdd37,10*
G04 Gerber Generator version 0.2*
G04 Scale: 100 percent, Rotated: No, Reflected: No *
G04 Dimensions in inches *
G04 leading zeros omitted , absolute positions ,3 integer and 6 decimal *
%FSLAX36Y36*%
%MOIN*%

%ADD11C,0.0200*%
%ADD12C,0.0787*%
%ADD13C,0.0740*%
%ADD15C,0.0750*%
%ADD16C,0.0470*%
%ADD17C,0.0709*%
%ADD18R,0.0620X0.0620*%
%ADD19C,0.0850*%
%ADD21C,0.0945*%

%LPD*%
D11*
X1942899Y105000D02*
G01*
X1941999Y104000D01*
X1899099Y104000D01*
X1879099Y124000D01*
X1879099Y139400D01*
X675200Y1343299D01*
X675200Y1353000D01*
X2000000Y105000D02*
G01*
X1942899Y105000D01*
X2455000Y965000D02*
G01*
X2455000Y909899D01*
X1913299Y368099D02*
G01*
X1839399Y368099D01*
X1785000Y422500D01*
X1913299Y138200D02*
G01*
X1913299Y368099D01*
X1913299Y368099D02*
G01*
X2455000Y909899D01*
X2200000Y1947899D02*
G01*
X2150100Y1947899D01*
X1811000Y1608800D01*
X2200000Y2005000D02*
G01*
X2200000Y1947899D01*
X1346599Y869600D02*
G01*
X1346599Y1142699D01*
X1605500Y1401599D01*
X1605500Y1521799D01*
X1495900Y1631399D01*
X1495900Y1947899D01*
X1785000Y727500D02*
G01*
X2078999Y1021500D01*
X2078999Y1160000D01*
X1540000Y2005000D02*
G01*
X1540000Y1660599D01*
X1978999Y1221599D01*
X1978999Y1160000D02*
G01*
X1978999Y1213099D01*
X1978999Y1213099D02*
G01*
X1978999Y1221599D01*
X1978999Y1221599D02*
G01*
X2206000Y1221599D01*
X2248100Y1179499D01*
X2248100Y988099D01*
X2210000Y950000D01*
X1040000Y2005000D02*
G01*
X1040000Y1600000D01*
X1020000Y1580000D01*
X935000Y1255000D02*
G01*
X935000Y1495000D01*
X1020000Y1580000D01*
X940000Y2005000D02*
G01*
X940000Y1800000D01*
X920000Y1780000D01*
X1500000Y105000D02*
G01*
X1500000Y328200D01*
X675200Y1153000D01*
X935000Y1155000D02*
G01*
X820000Y1270000D01*
X820000Y1580000D01*
D12*
G01*
X675200Y1353029D03*
G01*
X675200Y1253029D03*
G01*
X675200Y1153029D03*
G01*
X675200Y1053029D03*
G01*
X675200Y953029D03*
G01*
X675200Y853029D03*
D13*
G01*
X820000Y1580000D03*
G01*
X920000Y1780000D03*
G01*
X1020000Y1580000D03*
G01*
X1910000Y950000D03*
G01*
X2210000Y950000D03*
G36*
X1941499Y1197500D02*
G01*
X2016499Y1197500D01*
X2016499Y1122500D01*
X1941499Y1122500D01*
G37*
D15*
G01*
X2078999Y1160000D03*
G01*
X2178999Y1160000D03*
D16*
G01*
X935000Y1255000D03*
G01*
X935000Y1155000D03*
D17*
G01*
X1543419Y869569D03*
G01*
X1346570Y869569D03*
G01*
X1543419Y1440430D03*
G01*
X1445000Y1440430D03*
G01*
X1346570Y1440430D03*
D18*
G01*
X2455000Y480000D03*
G01*
X2450000Y1220000D03*
G01*
X2450000Y730000D03*
G01*
X2455000Y965000D03*
G01*
X620000Y1730000D03*
D19*
G01*
X1785000Y727500D03*
G01*
X1785000Y422500D03*
G36*
X2066999Y2038000D02*
G01*
X2133000Y2038000D01*
X2133000Y1971999D01*
X2066999Y1971999D01*
G37*
G36*
X1966999Y138000D02*
G01*
X2033000Y138000D01*
X2033000Y71999D01*
X1966999Y71999D01*
G37*
G36*
X2166999Y2038000D02*
G01*
X2233000Y2038000D01*
X2233000Y1971999D01*
X2166999Y1971999D01*
G37*
G36*
X2266999Y2038000D02*
G01*
X2333000Y2038000D01*
X2333000Y1971999D01*
X2266999Y1971999D01*
G37*
G36*
X2366999Y2038000D02*
G01*
X2433000Y2038000D01*
X2433000Y1971999D01*
X2366999Y1971999D01*
G37*
G36*
X2466999Y2038000D02*
G01*
X2533000Y2038000D01*
X2533000Y1971999D01*
X2466999Y1971999D01*
G37*
G36*
X1966999Y2038000D02*
G01*
X2033000Y2038000D01*
X2033000Y1971999D01*
X1966999Y1971999D01*
G37*
G36*
X1866999Y2038000D02*
G01*
X1933000Y2038000D01*
X1933000Y1971999D01*
X1866999Y1971999D01*
G37*
G36*
X1766999Y2038000D02*
G01*
X1833000Y2038000D01*
X1833000Y1971999D01*
X1766999Y1971999D01*
G37*
G36*
X1606999Y2038000D02*
G01*
X1673000Y2038000D01*
X1673000Y1971999D01*
X1606999Y1971999D01*
G37*
G36*
X1506999Y2038000D02*
G01*
X1573000Y2038000D01*
X1573000Y1971999D01*
X1506999Y1971999D01*
G37*
G36*
X1406999Y2038000D02*
G01*
X1473000Y2038000D01*
X1473000Y1971999D01*
X1406999Y1971999D01*
G37*
G36*
X1306999Y2038000D02*
G01*
X1373000Y2038000D01*
X1373000Y1971999D01*
X1306999Y1971999D01*
G37*
G36*
X1206999Y2038000D02*
G01*
X1273000Y2038000D01*
X1273000Y1971999D01*
X1206999Y1971999D01*
G37*
G36*
X1106999Y2038000D02*
G01*
X1173000Y2038000D01*
X1173000Y1971999D01*
X1106999Y1971999D01*
G37*
G36*
X1006999Y2038000D02*
G01*
X1073000Y2038000D01*
X1073000Y1971999D01*
X1006999Y1971999D01*
G37*
G36*
X906999Y2038000D02*
G01*
X973000Y2038000D01*
X973000Y1971999D01*
X906999Y1971999D01*
G37*
G36*
X2066999Y138000D02*
G01*
X2133000Y138000D01*
X2133000Y71999D01*
X2066999Y71999D01*
G37*
G36*
X2166999Y138000D02*
G01*
X2233000Y138000D01*
X2233000Y71999D01*
X2166999Y71999D01*
G37*
G36*
X2266999Y138000D02*
G01*
X2333000Y138000D01*
X2333000Y71999D01*
X2266999Y71999D01*
G37*
G36*
X2366999Y138000D02*
G01*
X2433000Y138000D01*
X2433000Y71999D01*
X2366999Y71999D01*
G37*
G36*
X2466999Y138000D02*
G01*
X2533000Y138000D01*
X2533000Y71999D01*
X2466999Y71999D01*
G37*
G36*
X1766999Y138000D02*
G01*
X1833000Y138000D01*
X1833000Y71999D01*
X1766999Y71999D01*
G37*
G36*
X1666999Y138000D02*
G01*
X1733000Y138000D01*
X1733000Y71999D01*
X1666999Y71999D01*
G37*
G36*
X1566999Y138000D02*
G01*
X1633000Y138000D01*
X1633000Y71999D01*
X1566999Y71999D01*
G37*
G36*
X1466999Y138000D02*
G01*
X1533000Y138000D01*
X1533000Y71999D01*
X1466999Y71999D01*
G37*
G36*
X1366999Y138000D02*
G01*
X1433000Y138000D01*
X1433000Y71999D01*
X1366999Y71999D01*
G37*
G36*
X1266999Y138000D02*
G01*
X1333000Y138000D01*
X1333000Y71999D01*
X1266999Y71999D01*
G37*
G36*
X806999Y2038000D02*
G01*
X873000Y2038000D01*
X873000Y1971999D01*
X806999Y1971999D01*
G37*
G36*
X706999Y2038000D02*
G01*
X773000Y2038000D01*
X773000Y1971999D01*
X706999Y1971999D01*
G37*
G36*
X1166999Y138000D02*
G01*
X1233000Y138000D01*
X1233000Y71999D01*
X1166999Y71999D01*
G37*
G36*
X1066999Y138000D02*
G01*
X1133000Y138000D01*
X1133000Y71999D01*
X1066999Y71999D01*
G37*
D11*
G01*
X1913299Y138200D03*
G01*
X1811000Y1608800D03*
G01*
X1495900Y1947899D03*
D21*
X1669409Y1117600D02*
G01*
X1669409Y1172719D01*
X1220590Y1117600D02*
G01*
X1220590Y1172719D01*
M02*
