M48
INCH,LZ
;FILE_FORMAT=2:4
;TYPE=PLATED
;Layer: Drill PTH
;EasyEDA v6.4.14, 2021-01-16T22:14:06+01:00
;127a1a6c01e64450920e76bbda239c08,12e5bc712d0f4a5fb02ba00eb72bdd37,10
;Gerber Generator version 0.2
;Holesize 1 = 0.0120 inch
T01C0.0120
;Holesize 2 = 0.0280 inch
T02C0.0280
;Holesize 3 = 0.0350 inch
T03C0.0350
;Holesize 4 = 0.0350 inch
T04C0.0350
;Holesize 5 = 0.0360 inch
T05C0.0360
;Holesize 6 = 0.0390 inch
T06C0.0390
;Holesize 7 = 0.0440 inch
T07C0.0440
;Holesize 8 = 0.0470 inch
T08C0.0470
;Holesize 9 = 0.0550 inch
T09C0.0550
%
G05
G90
T01
X019133Y001382
X018110Y016088
X014959Y019479
T02
X009350Y012550
X009350Y011550
T03
X024550Y004800
X024500Y012200
X024500Y007300
X024550Y009650
X006200Y017300
T04
X019100Y009500
X022100Y009500
T05
X006752Y013530
X006752Y012530
X006752Y011530
X006752Y010530
X006752Y009530
X006752Y008530
T06
X008200Y015800
X009200Y017800
X010200Y015800
X021000Y020050
X020000Y001050
X022000Y020050
X023000Y020050
X024000Y020050
X025000Y020050
X020000Y020050
X019000Y020050
X018000Y020050
X016400Y020050
X015400Y020050
X014400Y020050
X013400Y020050
X012400Y020050
X011400Y020050
X010400Y020050
X009400Y020050
X021000Y001050
X022000Y001050
X023000Y001050
X024000Y001050
X025000Y001050
X018000Y001050
X017000Y001050
X016000Y001050
X015000Y001050
X014000Y001050
X013000Y001050
X008400Y020050
X007400Y020050
X012000Y001050
X011000Y001050
T07
X019790Y011600
X020790Y011600
X021790Y011600
T08
X015434Y008696
X013466Y008696
X015434Y014404
X014450Y014404
X013466Y014404
X017850Y007275
X017850Y004225
T09
X016694Y011727G85X016694Y011176
X012206Y011727G85X012206Y011176
M30
