G04 Layer: TopSilkLayer*
G04 EasyEDA v6.4.14, 2021-01-16T22:14:06+01:00*
G04 127a1a6c01e64450920e76bbda239c08,12e5bc712d0f4a5fb02ba00eb72bdd37,10*
G04 Gerber Generator version 0.2*
G04 Scale: 100 percent, Rotated: No, Reflected: No *
G04 Dimensions in inches *
G04 leading zeros omitted , absolute positions ,3 integer and 6 decimal *
%FSLAX36Y36*%
%MOIN*%

%ADD10C,0.0100*%
%ADD22C,0.0079*%
%ADD23C,0.0080*%
%ADD24C,0.0080*%
%ADD25C,0.0090*%
%ADD26C,0.0060*%

%LPD*%
G36*
X2573200Y1309900D02*
G01*
X2572400Y1308600D01*
X2575700Y1298600D01*
X2574200Y1296380D01*
X2573140Y1293779D01*
X2572500Y1290840D01*
X2572306Y1287700D01*
X2575299Y1287700D01*
X2575520Y1289660D01*
X2576120Y1291380D01*
X2577100Y1292860D01*
X2578420Y1294120D01*
X2580040Y1295100D01*
X2581920Y1295820D01*
X2584060Y1296260D01*
X2586400Y1296399D01*
X2588860Y1296240D01*
X2591100Y1295780D01*
X2593100Y1295020D01*
X2594800Y1294000D01*
X2596200Y1292700D01*
X2597220Y1291160D01*
X2597880Y1289400D01*
X2598100Y1287400D01*
X2597900Y1285440D01*
X2597280Y1283700D01*
X2596320Y1282200D01*
X2594980Y1280940D01*
X2593340Y1279940D01*
X2591400Y1279200D01*
X2589180Y1278760D01*
X2586700Y1278600D01*
X2584280Y1278760D01*
X2582100Y1279240D01*
X2580140Y1280000D01*
X2578480Y1281060D01*
X2577140Y1282360D01*
X2576139Y1283920D01*
X2575520Y1285700D01*
X2575299Y1287700D01*
X2572306Y1287700D01*
X2572400Y1285360D01*
X2572720Y1283240D01*
X2573260Y1281260D01*
X2573980Y1279420D01*
X2574920Y1277740D01*
X2576040Y1276260D01*
X2577360Y1274940D01*
X2578840Y1273860D01*
X2580520Y1272980D01*
X2582380Y1272340D01*
X2584400Y1271940D01*
X2586600Y1271800D01*
X2588740Y1271920D01*
X2590700Y1272260D01*
X2592500Y1272820D01*
X2594140Y1273580D01*
X2595620Y1274540D01*
X2596920Y1275680D01*
X2598039Y1277000D01*
X2599000Y1278500D01*
X2601860Y1275700D01*
X2604340Y1273860D01*
X2606580Y1272820D01*
X2608700Y1272500D01*
X2611040Y1272880D01*
X2612960Y1274000D01*
X2614460Y1275800D01*
X2615500Y1278200D01*
X2617700Y1274260D01*
X2620020Y1271620D01*
X2622480Y1270160D01*
X2625200Y1269700D01*
X2626740Y1269820D01*
X2628180Y1270160D01*
X2629540Y1270760D01*
X2630800Y1271600D01*
X2631940Y1272680D01*
X2632960Y1274040D01*
X2633860Y1275660D01*
X2634600Y1277540D01*
X2635200Y1279700D01*
X2635640Y1282140D01*
X2635899Y1284880D01*
X2636000Y1287900D01*
X2635840Y1291320D01*
X2635400Y1294460D01*
X2634700Y1297300D01*
X2633780Y1299860D01*
X2632620Y1302100D01*
X2631300Y1304060D01*
X2629820Y1305720D01*
X2628200Y1307080D01*
X2626460Y1308140D01*
X2624660Y1308899D01*
X2622799Y1309340D01*
X2620899Y1309500D01*
X2618440Y1309280D01*
X2616259Y1308640D01*
X2614360Y1307560D01*
X2612760Y1306060D01*
X2611500Y1304079D01*
X2610560Y1301660D01*
X2610000Y1298760D01*
X2609800Y1295400D01*
X2609800Y1283800D01*
X2609520Y1281060D01*
X2609068Y1280100D01*
X2616000Y1280100D01*
X2616139Y1282020D01*
X2616200Y1294500D01*
X2616740Y1298500D01*
X2618240Y1301160D01*
X2620460Y1302640D01*
X2623200Y1303100D01*
X2625080Y1302860D01*
X2626840Y1302140D01*
X2628399Y1300920D01*
X2629740Y1299259D01*
X2630860Y1297100D01*
X2631700Y1294500D01*
X2632220Y1291420D01*
X2632400Y1287900D01*
X2632280Y1285420D01*
X2631900Y1283200D01*
X2631280Y1281260D01*
X2630380Y1279620D01*
X2629200Y1278280D01*
X2627760Y1277320D01*
X2626019Y1276700D01*
X2624000Y1276500D01*
X2621800Y1276700D01*
X2619820Y1277320D01*
X2617919Y1278440D01*
X2616000Y1280100D01*
X2609068Y1280100D01*
X2608720Y1279360D01*
X2607440Y1278460D01*
X2605700Y1278200D01*
X2604200Y1278360D01*
X2602820Y1278800D01*
X2601440Y1279540D01*
X2600000Y1280600D01*
X2600460Y1282220D01*
X2600820Y1283920D01*
X2601019Y1285700D01*
X2601100Y1287600D01*
X2601000Y1289820D01*
X2600659Y1291940D01*
X2600120Y1293899D01*
X2599380Y1295740D01*
X2598440Y1297420D01*
X2597300Y1298920D01*
X2595960Y1300220D01*
X2594440Y1301320D01*
X2592740Y1302220D01*
X2590860Y1302860D01*
X2588820Y1303260D01*
X2586600Y1303400D01*
X2584160Y1303240D01*
X2581940Y1302760D01*
X2579960Y1302000D01*
X2578200Y1301000D01*
X2578399Y1309900D01*
G37*
G36*
X2612300Y1263900D02*
G01*
X2611300Y1257800D01*
X2596600Y1257600D01*
X2588200Y1257600D01*
X2584280Y1257420D01*
X2580940Y1256900D01*
X2578200Y1256000D01*
X2576019Y1254780D01*
X2574360Y1253200D01*
X2573200Y1251280D01*
X2572520Y1249000D01*
X2572300Y1246400D01*
X2572440Y1244360D01*
X2572860Y1242280D01*
X2573540Y1240220D01*
X2574480Y1238160D01*
X2575640Y1236160D01*
X2577020Y1234200D01*
X2578620Y1232340D01*
X2580400Y1230600D01*
X2573200Y1229900D01*
X2572400Y1228700D01*
X2577200Y1216400D01*
X2579800Y1216400D01*
X2580500Y1223400D01*
X2592000Y1223600D01*
X2611300Y1223400D01*
X2612300Y1217000D01*
X2615000Y1217000D01*
X2615000Y1237100D01*
X2612300Y1237100D01*
X2611300Y1231000D01*
X2583600Y1230900D01*
X2580960Y1234160D01*
X2579160Y1237220D01*
X2578120Y1240180D01*
X2577799Y1243100D01*
X2577940Y1244880D01*
X2578340Y1246400D01*
X2579080Y1247660D01*
X2580140Y1248660D01*
X2581580Y1249440D01*
X2583420Y1249980D01*
X2585680Y1250300D01*
X2588399Y1250400D01*
X2600059Y1250380D01*
X2611300Y1250200D01*
X2612300Y1243800D01*
X2615000Y1243800D01*
X2615000Y1263900D01*
G37*
G36*
X2612300Y1210400D02*
G01*
X2611300Y1204400D01*
X2596600Y1204200D01*
X2584800Y1204200D01*
X2573200Y1204400D01*
X2572400Y1203200D01*
X2577100Y1189800D01*
X2579700Y1189800D01*
X2580400Y1196900D01*
X2592000Y1197100D01*
X2611300Y1197000D01*
X2612300Y1190200D01*
X2615000Y1190200D01*
X2615000Y1210400D01*
G37*
G36*
X2556800Y1206200D02*
G01*
X2554620Y1205740D01*
X2552960Y1204520D01*
X2551880Y1202740D01*
X2551500Y1200600D01*
X2551880Y1198360D01*
X2552960Y1196540D01*
X2554620Y1195340D01*
X2556800Y1194900D01*
X2559000Y1195340D01*
X2560740Y1196560D01*
X2561900Y1198360D01*
X2562300Y1200600D01*
X2561900Y1202740D01*
X2560740Y1204520D01*
X2559000Y1205740D01*
G37*
G36*
X2612000Y1185900D02*
G01*
X2611300Y1179100D01*
X2597600Y1175000D01*
X2595220Y1174200D01*
X2593159Y1173300D01*
X2591420Y1172280D01*
X2589940Y1171120D01*
X2588740Y1169780D01*
X2587780Y1168260D01*
X2587040Y1166540D01*
X2586500Y1164600D01*
X2585980Y1167000D01*
X2585299Y1169180D01*
X2584440Y1171160D01*
X2583440Y1172940D01*
X2582300Y1174500D01*
X2581040Y1175860D01*
X2579680Y1177000D01*
X2578220Y1177940D01*
X2576680Y1178660D01*
X2575080Y1179180D01*
X2573399Y1179500D01*
X2571700Y1179600D01*
X2569360Y1179440D01*
X2567200Y1178960D01*
X2565220Y1178180D01*
X2563420Y1177080D01*
X2561820Y1175700D01*
X2560419Y1174040D01*
X2559200Y1172100D01*
X2558220Y1169880D01*
X2557420Y1167400D01*
X2556860Y1164680D01*
X2556520Y1161700D01*
X2556400Y1158500D01*
X2556400Y1150400D01*
X2559800Y1150400D01*
X2559800Y1158000D01*
X2560000Y1161220D01*
X2560580Y1163980D01*
X2561560Y1166280D01*
X2562880Y1168140D01*
X2564580Y1169580D01*
X2566600Y1170600D01*
X2568940Y1171200D01*
X2571600Y1171400D01*
X2574240Y1171180D01*
X2576660Y1170520D01*
X2578820Y1169420D01*
X2580680Y1167880D01*
X2582200Y1165920D01*
X2583340Y1163520D01*
X2584060Y1160680D01*
X2584300Y1157400D01*
X2584300Y1150200D01*
X2568580Y1150240D01*
X2556400Y1150400D01*
X2556400Y1133900D01*
X2559400Y1133900D01*
X2560299Y1142100D01*
X2574780Y1142200D01*
X2611100Y1142100D01*
X2612000Y1133900D01*
X2615000Y1133900D01*
X2615000Y1158600D01*
X2612000Y1158600D01*
X2611000Y1150400D01*
X2599560Y1150220D01*
X2587600Y1150200D01*
X2587600Y1154900D01*
X2587679Y1157440D01*
X2587960Y1159580D01*
X2588480Y1161400D01*
X2589300Y1162920D01*
X2590460Y1164160D01*
X2591980Y1165200D01*
X2593960Y1166080D01*
X2596400Y1166800D01*
X2610299Y1170400D01*
X2612900Y1171440D01*
X2614640Y1173160D01*
X2615600Y1175720D01*
X2615899Y1179300D01*
X2615840Y1181240D01*
X2615680Y1182980D01*
X2615400Y1184540D01*
X2615000Y1185900D01*
G37*
G36*
X521800Y1853600D02*
G01*
X521800Y1850600D01*
X528000Y1849800D01*
X528900Y1848700D01*
X528800Y1799100D01*
X521400Y1798000D01*
X521400Y1795000D01*
X542100Y1795000D01*
X542100Y1798000D01*
X532800Y1799199D01*
X532600Y1843600D01*
X568400Y1794400D01*
X571500Y1794400D01*
X571600Y1849600D01*
X578900Y1850600D01*
X578900Y1853600D01*
X558200Y1853600D01*
X558200Y1850600D01*
X567600Y1849500D01*
X567700Y1808800D01*
X535300Y1853600D01*
G37*
G36*
X489500Y1853600D02*
G01*
X489500Y1850600D01*
X497600Y1849700D01*
X497780Y1838120D01*
X497780Y1813360D01*
X497600Y1798899D01*
X489500Y1798000D01*
X489500Y1795000D01*
X514099Y1795000D01*
X514099Y1798000D01*
X506000Y1799000D01*
X505820Y1810540D01*
X505820Y1835240D01*
X506000Y1849700D01*
X514099Y1850600D01*
X514099Y1853600D01*
G37*
G36*
X288900Y1853600D02*
G01*
X288900Y1850600D01*
X297100Y1849700D01*
X297200Y1835160D01*
X297200Y1816780D01*
X305200Y1816780D01*
X305240Y1841360D01*
X305400Y1850200D01*
X313000Y1850200D01*
X315420Y1850100D01*
X317720Y1849780D01*
X319860Y1849259D01*
X321860Y1848520D01*
X323720Y1847600D01*
X325420Y1846459D01*
X326980Y1845120D01*
X328380Y1843580D01*
X329640Y1841860D01*
X330720Y1839920D01*
X331659Y1837800D01*
X332420Y1835480D01*
X333020Y1832960D01*
X333459Y1830260D01*
X333720Y1827380D01*
X333800Y1824300D01*
X333720Y1821320D01*
X333459Y1818520D01*
X333020Y1815860D01*
X332400Y1813400D01*
X331640Y1811100D01*
X330680Y1808980D01*
X329580Y1807040D01*
X328300Y1805280D01*
X326860Y1803720D01*
X325260Y1802360D01*
X323500Y1801200D01*
X321560Y1800240D01*
X319480Y1799480D01*
X317240Y1798940D01*
X314840Y1798620D01*
X312300Y1798500D01*
X305400Y1798500D01*
X305200Y1816780D01*
X297200Y1816780D01*
X297100Y1798899D01*
X288900Y1798000D01*
X288900Y1795000D01*
X312800Y1795000D01*
X315380Y1795080D01*
X317900Y1795320D01*
X320319Y1795700D01*
X322660Y1796240D01*
X324880Y1796940D01*
X327020Y1797780D01*
X329040Y1798760D01*
X330959Y1799900D01*
X332740Y1801180D01*
X334420Y1802600D01*
X335940Y1804160D01*
X337340Y1805860D01*
X338600Y1807700D01*
X339700Y1809680D01*
X340660Y1811800D01*
X341440Y1814040D01*
X342080Y1816399D01*
X342520Y1818920D01*
X342800Y1821540D01*
X342900Y1824300D01*
X342819Y1827080D01*
X342560Y1829720D01*
X342140Y1832220D01*
X341580Y1834600D01*
X340860Y1836860D01*
X339980Y1838959D01*
X338960Y1840940D01*
X337800Y1842780D01*
X336500Y1844480D01*
X335060Y1846040D01*
X333500Y1847460D01*
X331820Y1848720D01*
X330020Y1849860D01*
X328100Y1850840D01*
X326060Y1851680D01*
X323940Y1852360D01*
X321700Y1852900D01*
X319360Y1853280D01*
X316920Y1853520D01*
X314400Y1853600D01*
G37*
G36*
X402800Y1848600D02*
G01*
X400400Y1836800D01*
X392600Y1835800D01*
X392600Y1832700D01*
X400000Y1832700D01*
X400000Y1804100D01*
X400160Y1801660D01*
X400660Y1799560D01*
X401480Y1797800D01*
X402580Y1796380D01*
X404000Y1795280D01*
X405700Y1794500D01*
X407660Y1794060D01*
X409900Y1793899D01*
X413060Y1794199D01*
X415820Y1795100D01*
X418120Y1796519D01*
X420000Y1798400D01*
X418300Y1800400D01*
X416680Y1799300D01*
X415220Y1798520D01*
X413800Y1798060D01*
X412299Y1797900D01*
X410200Y1798260D01*
X408579Y1799420D01*
X407560Y1801440D01*
X407200Y1804400D01*
X407200Y1832700D01*
X419099Y1832700D01*
X419099Y1836500D01*
X407299Y1836500D01*
X407800Y1848600D01*
G37*
G36*
X442600Y1837700D02*
G01*
X439360Y1837520D01*
X436380Y1836960D01*
X433680Y1836040D01*
X431320Y1834820D01*
X429300Y1833260D01*
X427660Y1831420D01*
X426420Y1829280D01*
X425600Y1826900D01*
X426019Y1825500D01*
X426820Y1824460D01*
X428000Y1823820D01*
X429600Y1823600D01*
X431100Y1823839D01*
X432320Y1824580D01*
X433280Y1825840D01*
X434000Y1827600D01*
X435600Y1833600D01*
X438240Y1834180D01*
X440600Y1834400D01*
X442660Y1834280D01*
X444400Y1833899D01*
X445860Y1833220D01*
X447020Y1832180D01*
X447900Y1830720D01*
X448519Y1828839D01*
X448880Y1826440D01*
X449000Y1823500D01*
X449000Y1820800D01*
X443680Y1819420D01*
X438900Y1817900D01*
X435000Y1816380D01*
X431820Y1814860D01*
X429300Y1813320D01*
X427380Y1811740D01*
X425980Y1810100D01*
X425060Y1808380D01*
X424560Y1806560D01*
X424497Y1805800D01*
X431900Y1805800D01*
X431980Y1807000D01*
X432220Y1808220D01*
X432720Y1809460D01*
X433519Y1810680D01*
X434660Y1811879D01*
X436240Y1813080D01*
X438300Y1814259D01*
X440900Y1815400D01*
X444500Y1816660D01*
X449000Y1818000D01*
X449000Y1804100D01*
X445800Y1801699D01*
X443320Y1800120D01*
X441180Y1799259D01*
X439000Y1799000D01*
X436160Y1799400D01*
X433920Y1800640D01*
X432440Y1802760D01*
X431900Y1805800D01*
X424497Y1805800D01*
X424400Y1804600D01*
X424640Y1802140D01*
X425319Y1799980D01*
X426380Y1798140D01*
X427800Y1796620D01*
X429520Y1795440D01*
X431480Y1794580D01*
X433660Y1794079D01*
X436000Y1793899D01*
X437900Y1794000D01*
X439620Y1794340D01*
X441240Y1794880D01*
X442780Y1795640D01*
X444320Y1796620D01*
X445860Y1797820D01*
X447480Y1799240D01*
X449200Y1800900D01*
X450100Y1798060D01*
X451760Y1795880D01*
X454060Y1794480D01*
X457000Y1794000D01*
X459159Y1794240D01*
X461120Y1795020D01*
X462900Y1796399D01*
X464500Y1798500D01*
X462900Y1800200D01*
X462080Y1799259D01*
X461260Y1798580D01*
X460379Y1798140D01*
X459400Y1798000D01*
X458060Y1798300D01*
X457040Y1799259D01*
X456420Y1801000D01*
X456200Y1803600D01*
X456200Y1822700D01*
X456100Y1825280D01*
X455840Y1827600D01*
X455360Y1829640D01*
X454720Y1831440D01*
X453880Y1832980D01*
X452840Y1834280D01*
X451620Y1835360D01*
X450220Y1836240D01*
X448600Y1836879D01*
X446800Y1837340D01*
X444799Y1837620D01*
G37*
G36*
X369200Y1837700D02*
G01*
X365959Y1837520D01*
X362980Y1836960D01*
X360300Y1836040D01*
X357939Y1834820D01*
X355940Y1833260D01*
X354300Y1831420D01*
X353080Y1829280D01*
X352299Y1826900D01*
X352660Y1825500D01*
X353420Y1824460D01*
X354600Y1823820D01*
X356200Y1823600D01*
X357720Y1823839D01*
X358960Y1824580D01*
X359920Y1825840D01*
X360600Y1827600D01*
X362299Y1833600D01*
X364860Y1834180D01*
X367200Y1834400D01*
X369280Y1834280D01*
X371040Y1833899D01*
X372500Y1833220D01*
X373640Y1832180D01*
X374520Y1830720D01*
X375140Y1828839D01*
X375480Y1826440D01*
X375600Y1823500D01*
X375600Y1820800D01*
X372960Y1820160D01*
X367860Y1818660D01*
X365600Y1817900D01*
X361680Y1816380D01*
X358480Y1814860D01*
X355959Y1813320D01*
X354040Y1811740D01*
X352660Y1810100D01*
X351740Y1808380D01*
X351260Y1806560D01*
X351197Y1805800D01*
X358500Y1805800D01*
X358579Y1807000D01*
X358840Y1808220D01*
X359340Y1809460D01*
X360160Y1810680D01*
X361340Y1811879D01*
X362920Y1813080D01*
X365000Y1814259D01*
X367600Y1815400D01*
X371140Y1816660D01*
X375600Y1818000D01*
X375600Y1804100D01*
X372460Y1801699D01*
X370000Y1800120D01*
X367840Y1799259D01*
X365600Y1799000D01*
X362800Y1799400D01*
X360560Y1800640D01*
X359040Y1802760D01*
X358500Y1805800D01*
X351197Y1805800D01*
X351100Y1804600D01*
X351340Y1802140D01*
X352020Y1799980D01*
X353080Y1798140D01*
X354500Y1796620D01*
X356220Y1795440D01*
X358180Y1794580D01*
X360360Y1794079D01*
X362700Y1793899D01*
X364580Y1794000D01*
X366300Y1794340D01*
X367900Y1794880D01*
X369440Y1795640D01*
X370940Y1796620D01*
X372480Y1797820D01*
X375800Y1800900D01*
X376700Y1798060D01*
X378360Y1795880D01*
X380660Y1794480D01*
X383600Y1794000D01*
X385820Y1794240D01*
X387819Y1795020D01*
X389600Y1796399D01*
X391200Y1798500D01*
X389600Y1800200D01*
X388740Y1799259D01*
X387920Y1798580D01*
X387020Y1798140D01*
X386000Y1798000D01*
X384660Y1798300D01*
X383640Y1799259D01*
X383020Y1801000D01*
X382800Y1803600D01*
X382800Y1822700D01*
X382700Y1825280D01*
X382440Y1827600D01*
X381960Y1829640D01*
X381320Y1831440D01*
X380480Y1832980D01*
X379440Y1834280D01*
X378220Y1835360D01*
X376820Y1836240D01*
X375200Y1836879D01*
X373400Y1837340D01*
X371400Y1837620D01*
G37*
G36*
X2584000Y653900D02*
G01*
X2584000Y635600D01*
X2564500Y635600D01*
X2564500Y631000D01*
X2584000Y631000D01*
X2584000Y612600D01*
X2588200Y612600D01*
X2588200Y631000D01*
X2608000Y631000D01*
X2608000Y635600D01*
X2588200Y635600D01*
X2588200Y653900D01*
G37*
G36*
X2570600Y972800D02*
G01*
X2569200Y971720D01*
X2568159Y970240D01*
X2567520Y968420D01*
X2567300Y966400D01*
X2567500Y964599D01*
X2568060Y962780D01*
X2569000Y961000D01*
X2570299Y959280D01*
X2571920Y957660D01*
X2573880Y956140D01*
X2576139Y954780D01*
X2578700Y953600D01*
X2568200Y952800D01*
X2567400Y951600D01*
X2572200Y939200D01*
X2574800Y939200D01*
X2575500Y946200D01*
X2580720Y946380D01*
X2606300Y946300D01*
X2607300Y939900D01*
X2610000Y939900D01*
X2610000Y961200D01*
X2607300Y961200D01*
X2606200Y953900D01*
X2591600Y953700D01*
X2584700Y953700D01*
X2581040Y955100D01*
X2577919Y956780D01*
X2575299Y958840D01*
X2573100Y961300D01*
X2575120Y963620D01*
X2575920Y964920D01*
X2576420Y966300D01*
X2576600Y967800D01*
X2576160Y970060D01*
X2574940Y971620D01*
X2573060Y972520D01*
G37*
G36*
X2589400Y932400D02*
G01*
X2586740Y932280D01*
X2584260Y931960D01*
X2581940Y931400D01*
X2579780Y930680D01*
X2577799Y929760D01*
X2576000Y928700D01*
X2574340Y927480D01*
X2572880Y926120D01*
X2571580Y924659D01*
X2570440Y923080D01*
X2569480Y921400D01*
X2568700Y919659D01*
X2568080Y917860D01*
X2567660Y916000D01*
X2567380Y914100D01*
X2567300Y912200D01*
X2570600Y912200D01*
X2570740Y914040D01*
X2571139Y915740D01*
X2571820Y917300D01*
X2572760Y918720D01*
X2573960Y919980D01*
X2575419Y921100D01*
X2577140Y922060D01*
X2579100Y922860D01*
X2581320Y923480D01*
X2583780Y923940D01*
X2586460Y924200D01*
X2589400Y924300D01*
X2592280Y924200D01*
X2594920Y923940D01*
X2597340Y923480D01*
X2599500Y922860D01*
X2601420Y922060D01*
X2603100Y921100D01*
X2604520Y919980D01*
X2605700Y918720D01*
X2606620Y917300D01*
X2607280Y915740D01*
X2607660Y914040D01*
X2607799Y912200D01*
X2607660Y910340D01*
X2607280Y908640D01*
X2606620Y907060D01*
X2605700Y905639D01*
X2604520Y904380D01*
X2603100Y903259D01*
X2601420Y902320D01*
X2599500Y901520D01*
X2597340Y900900D01*
X2594920Y900460D01*
X2592280Y900200D01*
X2589400Y900100D01*
X2586460Y900200D01*
X2583780Y900460D01*
X2581320Y900900D01*
X2579100Y901520D01*
X2577140Y902320D01*
X2575419Y903259D01*
X2573960Y904380D01*
X2572760Y905639D01*
X2571820Y907060D01*
X2571139Y908640D01*
X2570740Y910340D01*
X2570600Y912200D01*
X2567300Y912200D01*
X2567380Y910300D01*
X2567660Y908400D01*
X2568100Y906560D01*
X2568720Y904760D01*
X2569500Y903020D01*
X2570460Y901360D01*
X2571600Y899780D01*
X2572919Y898319D01*
X2574380Y896979D01*
X2576040Y895780D01*
X2577840Y894700D01*
X2579820Y893800D01*
X2581980Y893080D01*
X2584280Y892540D01*
X2586760Y892220D01*
X2589400Y892099D01*
X2592020Y892220D01*
X2594460Y892540D01*
X2596740Y893080D01*
X2598860Y893800D01*
X2600820Y894680D01*
X2602600Y895740D01*
X2604200Y896940D01*
X2605640Y898280D01*
X2606920Y899740D01*
X2608039Y901320D01*
X2608960Y902980D01*
X2609740Y904720D01*
X2610340Y906520D01*
X2610760Y908379D01*
X2611019Y910280D01*
X2611100Y912200D01*
X2611019Y914100D01*
X2610760Y916000D01*
X2610340Y917860D01*
X2609740Y919659D01*
X2608960Y921400D01*
X2608039Y923080D01*
X2606920Y924659D01*
X2605640Y926120D01*
X2604200Y927480D01*
X2602600Y928700D01*
X2600820Y929760D01*
X2598860Y930680D01*
X2596740Y931400D01*
X2594460Y931960D01*
X2592020Y932280D01*
G37*
G36*
X2606600Y887800D02*
G01*
X2604600Y886000D01*
X2605700Y884380D01*
X2606480Y882920D01*
X2606940Y881500D01*
X2607100Y880000D01*
X2606740Y877920D01*
X2605580Y876340D01*
X2603560Y875340D01*
X2600600Y875000D01*
X2572300Y875000D01*
X2572300Y886800D01*
X2568500Y886800D01*
X2568500Y875100D01*
X2556400Y875600D01*
X2556400Y870500D01*
X2568200Y868199D01*
X2569200Y860400D01*
X2572300Y860400D01*
X2572300Y867800D01*
X2600899Y867700D01*
X2603340Y867880D01*
X2605440Y868379D01*
X2607200Y869200D01*
X2608620Y870320D01*
X2609720Y871740D01*
X2610500Y873439D01*
X2610940Y875400D01*
X2611100Y877600D01*
X2610800Y880780D01*
X2609900Y883560D01*
X2608480Y885920D01*
G37*
G36*
X2589400Y856200D02*
G01*
X2586740Y856080D01*
X2584260Y855759D01*
X2581940Y855200D01*
X2579780Y854479D01*
X2577799Y853560D01*
X2576000Y852500D01*
X2574340Y851280D01*
X2572880Y849920D01*
X2571580Y848460D01*
X2570440Y846880D01*
X2569480Y845200D01*
X2568700Y843460D01*
X2568080Y841660D01*
X2567660Y839800D01*
X2567380Y837900D01*
X2567300Y836000D01*
X2570600Y836000D01*
X2570740Y837840D01*
X2571139Y839539D01*
X2571820Y841100D01*
X2572760Y842520D01*
X2573960Y843780D01*
X2575419Y844900D01*
X2577140Y845860D01*
X2579100Y846660D01*
X2581320Y847280D01*
X2583780Y847740D01*
X2586460Y848000D01*
X2589400Y848100D01*
X2592280Y848000D01*
X2594920Y847740D01*
X2597340Y847280D01*
X2599500Y846660D01*
X2601420Y845860D01*
X2603100Y844900D01*
X2604520Y843780D01*
X2605700Y842520D01*
X2606620Y841100D01*
X2607280Y839539D01*
X2607660Y837840D01*
X2607799Y836000D01*
X2607660Y834160D01*
X2607280Y832480D01*
X2606620Y830920D01*
X2605700Y829520D01*
X2604520Y828259D01*
X2603100Y827159D01*
X2601420Y826200D01*
X2599500Y825420D01*
X2597340Y824800D01*
X2594920Y824360D01*
X2592280Y824100D01*
X2589400Y824000D01*
X2586460Y824100D01*
X2583780Y824360D01*
X2581320Y824800D01*
X2579100Y825420D01*
X2577140Y826200D01*
X2575419Y827159D01*
X2573960Y828259D01*
X2572760Y829520D01*
X2571820Y830920D01*
X2571139Y832480D01*
X2570740Y834160D01*
X2570600Y836000D01*
X2567300Y836000D01*
X2567380Y834100D01*
X2567660Y832220D01*
X2568100Y830360D01*
X2568720Y828580D01*
X2569500Y826840D01*
X2570460Y825180D01*
X2571600Y823620D01*
X2572919Y822180D01*
X2574380Y820840D01*
X2576040Y819640D01*
X2577840Y818580D01*
X2579820Y817700D01*
X2581980Y816979D01*
X2584280Y816440D01*
X2586760Y816120D01*
X2589400Y816000D01*
X2592020Y816120D01*
X2594460Y816440D01*
X2596740Y816960D01*
X2598860Y817680D01*
X2600820Y818560D01*
X2602600Y819620D01*
X2604200Y820800D01*
X2605640Y822140D01*
X2606920Y823580D01*
X2608039Y825140D01*
X2608960Y826800D01*
X2609740Y828520D01*
X2610340Y830320D01*
X2610760Y832180D01*
X2611019Y834080D01*
X2611100Y836000D01*
X2611019Y837920D01*
X2610760Y839820D01*
X2610340Y841680D01*
X2609740Y843500D01*
X2608960Y845240D01*
X2608039Y846919D01*
X2606920Y848500D01*
X2605640Y849960D01*
X2604200Y851320D01*
X2602600Y852520D01*
X2600820Y853580D01*
X2598860Y854500D01*
X2596740Y855220D01*
X2594460Y855759D01*
X2592020Y856080D01*
G37*
G36*
X2551400Y810000D02*
G01*
X2551400Y793100D01*
X2600000Y774100D01*
X2551400Y754400D01*
X2551400Y738400D01*
X2554400Y738400D01*
X2555400Y746400D01*
X2605800Y746300D01*
X2607000Y738400D01*
X2610000Y738400D01*
X2610000Y758000D01*
X2607000Y758000D01*
X2605800Y750400D01*
X2577520Y750380D01*
X2559800Y749900D01*
X2610000Y770400D01*
X2610000Y774100D01*
X2559600Y793900D01*
X2594640Y793780D01*
X2606100Y793600D01*
X2607000Y786000D01*
X2610000Y786000D01*
X2610000Y809900D01*
X2607000Y809900D01*
X2606100Y801800D01*
X2597360Y801640D01*
X2572700Y801600D01*
X2561040Y801680D01*
X2555300Y801800D01*
X2554400Y810000D01*
G37*
G36*
X2568200Y589900D02*
G01*
X2567400Y588600D01*
X2570700Y578600D01*
X2569200Y576380D01*
X2568140Y573780D01*
X2567500Y570840D01*
X2567306Y567700D01*
X2570299Y567700D01*
X2570520Y569660D01*
X2571120Y571380D01*
X2572100Y572860D01*
X2573420Y574120D01*
X2575040Y575100D01*
X2576920Y575820D01*
X2579060Y576260D01*
X2581400Y576400D01*
X2583860Y576240D01*
X2586100Y575780D01*
X2588100Y575020D01*
X2589800Y574000D01*
X2591200Y572700D01*
X2592220Y571160D01*
X2592880Y569400D01*
X2593100Y567400D01*
X2592900Y565440D01*
X2592280Y563700D01*
X2591320Y562200D01*
X2589980Y560940D01*
X2588340Y559940D01*
X2586400Y559200D01*
X2584180Y558760D01*
X2581700Y558600D01*
X2579280Y558760D01*
X2577100Y559240D01*
X2575140Y560000D01*
X2573480Y561060D01*
X2572140Y562360D01*
X2571139Y563920D01*
X2570520Y565700D01*
X2570299Y567700D01*
X2567306Y567700D01*
X2567400Y565360D01*
X2567720Y563240D01*
X2568260Y561260D01*
X2568980Y559420D01*
X2569920Y557740D01*
X2571040Y556260D01*
X2572360Y554940D01*
X2573840Y553860D01*
X2575520Y552980D01*
X2577380Y552340D01*
X2579400Y551940D01*
X2581600Y551800D01*
X2583740Y551920D01*
X2585700Y552260D01*
X2587500Y552820D01*
X2589140Y553580D01*
X2590620Y554540D01*
X2591920Y555680D01*
X2593039Y557000D01*
X2594000Y558500D01*
X2596860Y555700D01*
X2599340Y553860D01*
X2601580Y552820D01*
X2603700Y552500D01*
X2606040Y552880D01*
X2607960Y554000D01*
X2609460Y555800D01*
X2610500Y558200D01*
X2612700Y554260D01*
X2615020Y551620D01*
X2617480Y550160D01*
X2620200Y549700D01*
X2621740Y549820D01*
X2623180Y550160D01*
X2624540Y550760D01*
X2625800Y551600D01*
X2626940Y552680D01*
X2627960Y554040D01*
X2628860Y555660D01*
X2629600Y557540D01*
X2630200Y559700D01*
X2630640Y562140D01*
X2630899Y564880D01*
X2631000Y567900D01*
X2630840Y571320D01*
X2630400Y574460D01*
X2629700Y577300D01*
X2628780Y579860D01*
X2627620Y582100D01*
X2626300Y584060D01*
X2624820Y585720D01*
X2623200Y587080D01*
X2621460Y588140D01*
X2619660Y588900D01*
X2617799Y589340D01*
X2615899Y589500D01*
X2613440Y589280D01*
X2611259Y588640D01*
X2609360Y587560D01*
X2607760Y586060D01*
X2606500Y584080D01*
X2605560Y581660D01*
X2605000Y578760D01*
X2604800Y575400D01*
X2604800Y563800D01*
X2604520Y561060D01*
X2604068Y560100D01*
X2611000Y560100D01*
X2611139Y562020D01*
X2611200Y574500D01*
X2611740Y578500D01*
X2613240Y581160D01*
X2615460Y582640D01*
X2618200Y583100D01*
X2620080Y582860D01*
X2621840Y582140D01*
X2623399Y580920D01*
X2624740Y579260D01*
X2625860Y577100D01*
X2626700Y574500D01*
X2627220Y571420D01*
X2627400Y567900D01*
X2627280Y565420D01*
X2626900Y563200D01*
X2626280Y561260D01*
X2625380Y559620D01*
X2624200Y558280D01*
X2622760Y557320D01*
X2621019Y556700D01*
X2619000Y556500D01*
X2616800Y556700D01*
X2614820Y557320D01*
X2612919Y558440D01*
X2611000Y560100D01*
X2604068Y560100D01*
X2603720Y559360D01*
X2602440Y558460D01*
X2600700Y558200D01*
X2599200Y558360D01*
X2597820Y558800D01*
X2596440Y559540D01*
X2595000Y560600D01*
X2595460Y562220D01*
X2595820Y563920D01*
X2596019Y565700D01*
X2596100Y567600D01*
X2596000Y569820D01*
X2595659Y571940D01*
X2595120Y573900D01*
X2594380Y575740D01*
X2593440Y577420D01*
X2592300Y578920D01*
X2590960Y580220D01*
X2589440Y581320D01*
X2587740Y582220D01*
X2585860Y582860D01*
X2583820Y583260D01*
X2581600Y583400D01*
X2579160Y583240D01*
X2576940Y582760D01*
X2574960Y582000D01*
X2573200Y581000D01*
X2573399Y589900D01*
G37*
G36*
X2607300Y543900D02*
G01*
X2606300Y537800D01*
X2591600Y537600D01*
X2583200Y537600D01*
X2579280Y537420D01*
X2575940Y536900D01*
X2573200Y536000D01*
X2571019Y534780D01*
X2569360Y533200D01*
X2568200Y531280D01*
X2567520Y529000D01*
X2567300Y526400D01*
X2567440Y524360D01*
X2567860Y522280D01*
X2568540Y520220D01*
X2569480Y518160D01*
X2570640Y516160D01*
X2572020Y514200D01*
X2573620Y512340D01*
X2575400Y510600D01*
X2568200Y509900D01*
X2567400Y508700D01*
X2572200Y496400D01*
X2574800Y496400D01*
X2575500Y503400D01*
X2587000Y503600D01*
X2606300Y503400D01*
X2607300Y497000D01*
X2610000Y497000D01*
X2610000Y517100D01*
X2607300Y517100D01*
X2606300Y511000D01*
X2578600Y510900D01*
X2575960Y514159D01*
X2574160Y517220D01*
X2573120Y520180D01*
X2572799Y523100D01*
X2572940Y524880D01*
X2573340Y526400D01*
X2574080Y527660D01*
X2575140Y528660D01*
X2576580Y529440D01*
X2578420Y529980D01*
X2580680Y530300D01*
X2583399Y530400D01*
X2595059Y530380D01*
X2606300Y530200D01*
X2607300Y523800D01*
X2610000Y523800D01*
X2610000Y543900D01*
G37*
G36*
X2607300Y490400D02*
G01*
X2606300Y484400D01*
X2591600Y484200D01*
X2579800Y484200D01*
X2568200Y484400D01*
X2567400Y483200D01*
X2572100Y469799D01*
X2574700Y469799D01*
X2575400Y476900D01*
X2587000Y477100D01*
X2606300Y477000D01*
X2607300Y470200D01*
X2610000Y470200D01*
X2610000Y490400D01*
G37*
G36*
X2551800Y486200D02*
G01*
X2549620Y485740D01*
X2547960Y484520D01*
X2546880Y482740D01*
X2546500Y480600D01*
X2546880Y478360D01*
X2547960Y476540D01*
X2549620Y475340D01*
X2551800Y474900D01*
X2554000Y475340D01*
X2555740Y476560D01*
X2556900Y478360D01*
X2557300Y480600D01*
X2556900Y482740D01*
X2555740Y484520D01*
X2554000Y485740D01*
G37*
G36*
X2607000Y465900D02*
G01*
X2606300Y459099D01*
X2592600Y455000D01*
X2590220Y454200D01*
X2588159Y453300D01*
X2586420Y452280D01*
X2584940Y451120D01*
X2583740Y449780D01*
X2582780Y448260D01*
X2582040Y446540D01*
X2581500Y444600D01*
X2580980Y447000D01*
X2580299Y449180D01*
X2579440Y451160D01*
X2578440Y452939D01*
X2577300Y454500D01*
X2576040Y455860D01*
X2574680Y457000D01*
X2573220Y457939D01*
X2571680Y458660D01*
X2570080Y459180D01*
X2568399Y459500D01*
X2566700Y459600D01*
X2564360Y459440D01*
X2562200Y458960D01*
X2560220Y458180D01*
X2558420Y457080D01*
X2556820Y455700D01*
X2555420Y454040D01*
X2554200Y452100D01*
X2553220Y449880D01*
X2552420Y447400D01*
X2551860Y444680D01*
X2551520Y441700D01*
X2551400Y438500D01*
X2551400Y430400D01*
X2554800Y430400D01*
X2554800Y438000D01*
X2555000Y441220D01*
X2555580Y443980D01*
X2556560Y446280D01*
X2557880Y448140D01*
X2559580Y449580D01*
X2561600Y450600D01*
X2563940Y451200D01*
X2566600Y451400D01*
X2569240Y451180D01*
X2571660Y450520D01*
X2573820Y449420D01*
X2575680Y447879D01*
X2577200Y445920D01*
X2578340Y443519D01*
X2579060Y440680D01*
X2579300Y437400D01*
X2579300Y430200D01*
X2563580Y430240D01*
X2551400Y430400D01*
X2551400Y413900D01*
X2554400Y413900D01*
X2555300Y422100D01*
X2569780Y422200D01*
X2606100Y422100D01*
X2607000Y413900D01*
X2610000Y413900D01*
X2610000Y438600D01*
X2607000Y438600D01*
X2606000Y430400D01*
X2594560Y430220D01*
X2582600Y430200D01*
X2582600Y434900D01*
X2582679Y437440D01*
X2582960Y439580D01*
X2583480Y441400D01*
X2584300Y442920D01*
X2585460Y444159D01*
X2586980Y445200D01*
X2588960Y446079D01*
X2591400Y446800D01*
X2605299Y450400D01*
X2607900Y451440D01*
X2609640Y453160D01*
X2610600Y455720D01*
X2610899Y459300D01*
X2610840Y461240D01*
X2610680Y462980D01*
X2610400Y464540D01*
X2610000Y465900D01*
G37*
G36*
X2344100Y1415000D02*
G01*
X2341500Y1414900D01*
X2338980Y1414620D01*
X2336560Y1414160D01*
X2334240Y1413520D01*
X2332000Y1412700D01*
X2329880Y1411740D01*
X2327860Y1410600D01*
X2325980Y1409319D01*
X2324200Y1407900D01*
X2322560Y1406339D01*
X2321040Y1404640D01*
X2319660Y1402820D01*
X2318420Y1400880D01*
X2317340Y1398820D01*
X2316400Y1396639D01*
X2315620Y1394379D01*
X2315000Y1392020D01*
X2314560Y1389560D01*
X2314300Y1387020D01*
X2314200Y1384400D01*
X2314280Y1381740D01*
X2314560Y1379160D01*
X2314980Y1376680D01*
X2315580Y1374300D01*
X2316360Y1372000D01*
X2317260Y1369840D01*
X2318340Y1367760D01*
X2319560Y1365820D01*
X2320900Y1364000D01*
X2322400Y1362300D01*
X2324020Y1360740D01*
X2325780Y1359319D01*
X2327660Y1358040D01*
X2329640Y1356920D01*
X2331760Y1355960D01*
X2333960Y1355160D01*
X2336280Y1354540D01*
X2338700Y1354079D01*
X2341200Y1353800D01*
X2343800Y1353700D01*
X2346440Y1353779D01*
X2348960Y1354040D01*
X2351400Y1354460D01*
X2353760Y1355060D01*
X2356080Y1355780D01*
X2358360Y1356660D01*
X2360620Y1357660D01*
X2362900Y1358800D01*
X2362960Y1371220D01*
X2363100Y1379400D01*
X2368400Y1379900D01*
X2368400Y1382900D01*
X2345600Y1382900D01*
X2345600Y1379900D01*
X2354900Y1379199D01*
X2355000Y1359300D01*
X2352620Y1358520D01*
X2350220Y1358000D01*
X2347760Y1357700D01*
X2345200Y1357600D01*
X2342740Y1357720D01*
X2340420Y1358060D01*
X2338200Y1358640D01*
X2336120Y1359420D01*
X2334180Y1360440D01*
X2332380Y1361639D01*
X2330720Y1363080D01*
X2329220Y1364700D01*
X2327880Y1366519D01*
X2326700Y1368540D01*
X2325680Y1370740D01*
X2324840Y1373120D01*
X2324180Y1375680D01*
X2323700Y1378420D01*
X2323400Y1381339D01*
X2323300Y1384400D01*
X2323400Y1387500D01*
X2323720Y1390440D01*
X2324220Y1393180D01*
X2324920Y1395760D01*
X2325800Y1398140D01*
X2326840Y1400360D01*
X2328060Y1402360D01*
X2329420Y1404180D01*
X2330940Y1405800D01*
X2332600Y1407200D01*
X2334380Y1408400D01*
X2336300Y1409400D01*
X2338320Y1410180D01*
X2340460Y1410740D01*
X2342680Y1411080D01*
X2345000Y1411200D01*
X2347620Y1411040D01*
X2350140Y1410580D01*
X2352560Y1409760D01*
X2354900Y1408600D01*
X2357000Y1397700D01*
X2361800Y1397700D01*
X2361600Y1410700D01*
X2359760Y1411720D01*
X2357860Y1412600D01*
X2355880Y1413340D01*
X2353780Y1413940D01*
X2351580Y1414400D01*
X2349240Y1414740D01*
X2346760Y1414940D01*
G37*
G36*
X2437300Y1413600D02*
G01*
X2437300Y1410600D01*
X2445400Y1409700D01*
X2445560Y1401000D01*
X2445600Y1376819D01*
X2453600Y1376780D01*
X2453640Y1401360D01*
X2453800Y1410200D01*
X2461400Y1410200D01*
X2463800Y1410100D01*
X2466080Y1409780D01*
X2468220Y1409259D01*
X2470220Y1408520D01*
X2472080Y1407600D01*
X2473780Y1406459D01*
X2475340Y1405120D01*
X2476760Y1403580D01*
X2478000Y1401860D01*
X2479100Y1399920D01*
X2480040Y1397800D01*
X2480800Y1395480D01*
X2481420Y1392960D01*
X2481840Y1390260D01*
X2482120Y1387380D01*
X2482200Y1384300D01*
X2482120Y1381320D01*
X2481840Y1378520D01*
X2481400Y1375860D01*
X2480800Y1373400D01*
X2480020Y1371100D01*
X2479060Y1368980D01*
X2477940Y1367040D01*
X2476640Y1365280D01*
X2475200Y1363720D01*
X2473580Y1362360D01*
X2471820Y1361200D01*
X2469880Y1360240D01*
X2467800Y1359480D01*
X2465540Y1358940D01*
X2463140Y1358620D01*
X2460600Y1358500D01*
X2453800Y1358500D01*
X2453600Y1376780D01*
X2445599Y1376780D01*
X2445520Y1364700D01*
X2445400Y1358899D01*
X2437300Y1358000D01*
X2437300Y1355000D01*
X2461200Y1355000D01*
X2463780Y1355080D01*
X2466280Y1355320D01*
X2468680Y1355700D01*
X2471020Y1356240D01*
X2473240Y1356940D01*
X2475380Y1357780D01*
X2477400Y1358760D01*
X2479320Y1359900D01*
X2481100Y1361180D01*
X2482780Y1362600D01*
X2484320Y1364160D01*
X2485720Y1365860D01*
X2486980Y1367700D01*
X2488080Y1369680D01*
X2489040Y1371800D01*
X2489840Y1374040D01*
X2490460Y1376399D01*
X2490920Y1378920D01*
X2491200Y1381540D01*
X2491300Y1384300D01*
X2491220Y1387080D01*
X2490960Y1389720D01*
X2490540Y1392220D01*
X2489960Y1394600D01*
X2489240Y1396860D01*
X2488360Y1398959D01*
X2487340Y1400940D01*
X2486160Y1402780D01*
X2484860Y1404480D01*
X2483420Y1406040D01*
X2481860Y1407460D01*
X2480180Y1408720D01*
X2478380Y1409860D01*
X2476460Y1410840D01*
X2474420Y1411680D01*
X2472300Y1412360D01*
X2470060Y1412900D01*
X2467720Y1413280D01*
X2465300Y1413520D01*
X2462800Y1413600D01*
G37*
G36*
X2373500Y1413600D02*
G01*
X2373500Y1410600D01*
X2379800Y1409800D01*
X2380600Y1408700D01*
X2380500Y1359100D01*
X2373100Y1358000D01*
X2373100Y1355000D01*
X2393800Y1355000D01*
X2393800Y1358000D01*
X2384500Y1359199D01*
X2384300Y1403600D01*
X2420100Y1354400D01*
X2423200Y1354400D01*
X2423300Y1409600D01*
X2430600Y1410600D01*
X2430600Y1413600D01*
X2409900Y1413600D01*
X2409900Y1410600D01*
X2419300Y1409500D01*
X2419400Y1368800D01*
X2387000Y1413600D01*
G37*
G36*
X289000Y1361100D02*
G01*
X285740Y1360960D01*
X282700Y1360520D01*
X279920Y1359820D01*
X277380Y1358860D01*
X275100Y1357680D01*
X273080Y1356279D01*
X271360Y1354680D01*
X269920Y1352900D01*
X268800Y1350980D01*
X267960Y1348899D01*
X267460Y1346699D01*
X267300Y1344400D01*
X267472Y1342200D01*
X271700Y1342200D01*
X271820Y1343800D01*
X272200Y1345320D01*
X272840Y1346759D01*
X273720Y1348060D01*
X274840Y1349259D01*
X276220Y1350320D01*
X277840Y1351260D01*
X279720Y1352040D01*
X281820Y1352660D01*
X284180Y1353120D01*
X286760Y1353400D01*
X289600Y1353500D01*
X292480Y1353380D01*
X295060Y1353060D01*
X297360Y1352540D01*
X299380Y1351819D01*
X301140Y1350940D01*
X302640Y1349920D01*
X303880Y1348740D01*
X304880Y1347440D01*
X305640Y1346040D01*
X306180Y1344540D01*
X306500Y1342940D01*
X306600Y1341300D01*
X306360Y1338839D01*
X305620Y1336399D01*
X304280Y1333959D01*
X302300Y1331500D01*
X276500Y1331500D01*
X274060Y1334780D01*
X272600Y1337600D01*
X271880Y1340060D01*
X271700Y1342200D01*
X267472Y1342200D01*
X267660Y1340960D01*
X268140Y1339259D01*
X268820Y1337560D01*
X269720Y1335900D01*
X270840Y1334259D01*
X272200Y1332660D01*
X273800Y1331100D01*
X268200Y1330500D01*
X267400Y1329300D01*
X272200Y1317000D01*
X274800Y1317000D01*
X275500Y1324000D01*
X280760Y1324220D01*
X287000Y1324300D01*
X316080Y1324280D01*
X327200Y1324100D01*
X328300Y1317000D01*
X331000Y1317000D01*
X331000Y1339400D01*
X328300Y1339400D01*
X327100Y1331399D01*
X312200Y1331200D01*
X305300Y1331200D01*
X308100Y1334120D01*
X309880Y1337120D01*
X310820Y1340180D01*
X311100Y1343200D01*
X311000Y1345080D01*
X310700Y1346900D01*
X310220Y1348640D01*
X309560Y1350300D01*
X308720Y1351879D01*
X307700Y1353340D01*
X306500Y1354720D01*
X305160Y1355980D01*
X303640Y1357120D01*
X301960Y1358120D01*
X300160Y1359000D01*
X298200Y1359740D01*
X296080Y1360320D01*
X293860Y1360740D01*
X291480Y1361020D01*
G37*
G36*
X148700Y1324600D02*
G01*
X146800Y1324520D01*
X144980Y1324259D01*
X143240Y1323820D01*
X141600Y1323220D01*
X140080Y1322460D01*
X138660Y1321519D01*
X137340Y1320400D01*
X136140Y1319120D01*
X135080Y1317660D01*
X134140Y1316020D01*
X133320Y1314220D01*
X132640Y1312240D01*
X132100Y1310080D01*
X131720Y1307760D01*
X131480Y1305260D01*
X131400Y1302600D01*
X131400Y1295600D01*
X134800Y1295600D01*
X134800Y1301200D01*
X134900Y1303680D01*
X135220Y1305940D01*
X135720Y1307960D01*
X136420Y1309760D01*
X137320Y1311339D01*
X138420Y1312700D01*
X139680Y1313839D01*
X141140Y1314780D01*
X142780Y1315480D01*
X144580Y1316000D01*
X146560Y1316300D01*
X148700Y1316399D01*
X150760Y1316300D01*
X152720Y1316020D01*
X154520Y1315540D01*
X156180Y1314860D01*
X157700Y1313940D01*
X159040Y1312820D01*
X160200Y1311480D01*
X161180Y1309880D01*
X161960Y1308040D01*
X162540Y1305960D01*
X162880Y1303620D01*
X163000Y1301000D01*
X163000Y1295400D01*
X143640Y1295440D01*
X131400Y1295600D01*
X131400Y1279100D01*
X134400Y1279100D01*
X135300Y1287200D01*
X146880Y1287380D01*
X171640Y1287380D01*
X186100Y1287200D01*
X187000Y1279100D01*
X190000Y1279100D01*
X190000Y1303899D01*
X187000Y1303899D01*
X186000Y1295600D01*
X178640Y1295440D01*
X166600Y1295400D01*
X166600Y1300000D01*
X166500Y1303200D01*
X166240Y1306140D01*
X165780Y1308839D01*
X165180Y1311320D01*
X164420Y1313540D01*
X163520Y1315560D01*
X162480Y1317360D01*
X161320Y1318940D01*
X160060Y1320320D01*
X158680Y1321480D01*
X157200Y1322460D01*
X155640Y1323240D01*
X154000Y1323839D01*
X152280Y1324259D01*
X150520Y1324520D01*
G37*
G36*
X289400Y1310800D02*
G01*
X286740Y1310680D01*
X284260Y1310360D01*
X281940Y1309800D01*
X279780Y1309079D01*
X277800Y1308160D01*
X276000Y1307100D01*
X274340Y1305880D01*
X272880Y1304520D01*
X271580Y1303060D01*
X270440Y1301480D01*
X269480Y1299800D01*
X268700Y1298060D01*
X268080Y1296260D01*
X267660Y1294400D01*
X267380Y1292500D01*
X267300Y1290600D01*
X270600Y1290600D01*
X270740Y1292440D01*
X271140Y1294139D01*
X271820Y1295700D01*
X272760Y1297120D01*
X273960Y1298380D01*
X275420Y1299500D01*
X277140Y1300460D01*
X279100Y1301260D01*
X281320Y1301879D01*
X283780Y1302340D01*
X286460Y1302600D01*
X289400Y1302700D01*
X292280Y1302600D01*
X294920Y1302340D01*
X297340Y1301879D01*
X299500Y1301260D01*
X301420Y1300460D01*
X303100Y1299500D01*
X304520Y1298380D01*
X305700Y1297120D01*
X306620Y1295700D01*
X307280Y1294139D01*
X307660Y1292440D01*
X307800Y1290600D01*
X307660Y1288740D01*
X307280Y1287040D01*
X306620Y1285460D01*
X305700Y1284040D01*
X304520Y1282780D01*
X303100Y1281660D01*
X301420Y1280720D01*
X299500Y1279920D01*
X297340Y1279300D01*
X294920Y1278860D01*
X292280Y1278600D01*
X289400Y1278500D01*
X286460Y1278600D01*
X283780Y1278860D01*
X281320Y1279300D01*
X279100Y1279920D01*
X277140Y1280720D01*
X275420Y1281660D01*
X273960Y1282780D01*
X272760Y1284040D01*
X271820Y1285460D01*
X271140Y1287040D01*
X270740Y1288740D01*
X270600Y1290600D01*
X267300Y1290600D01*
X267380Y1288700D01*
X267660Y1286800D01*
X268100Y1284960D01*
X268720Y1283160D01*
X269500Y1281420D01*
X270460Y1279760D01*
X271600Y1278180D01*
X272920Y1276720D01*
X274380Y1275380D01*
X276040Y1274180D01*
X277840Y1273100D01*
X279820Y1272200D01*
X281980Y1271480D01*
X284280Y1270940D01*
X286760Y1270620D01*
X289400Y1270500D01*
X292020Y1270620D01*
X294460Y1270940D01*
X296740Y1271480D01*
X298860Y1272200D01*
X300820Y1273080D01*
X302600Y1274140D01*
X304200Y1275340D01*
X305640Y1276680D01*
X306920Y1278140D01*
X308040Y1279720D01*
X308960Y1281380D01*
X309740Y1283120D01*
X310340Y1284920D01*
X310760Y1286780D01*
X311020Y1288680D01*
X311100Y1290600D01*
X311020Y1292500D01*
X310760Y1294400D01*
X310340Y1296260D01*
X309740Y1298060D01*
X308960Y1299800D01*
X308040Y1301480D01*
X306920Y1303060D01*
X305640Y1304520D01*
X304200Y1305880D01*
X302600Y1307100D01*
X300820Y1308160D01*
X298860Y1309079D01*
X296740Y1309800D01*
X294460Y1310360D01*
X292020Y1310680D01*
G37*
G36*
X162100Y1274500D02*
G01*
X162100Y1251700D01*
X165100Y1251700D01*
X165799Y1261000D01*
X176080Y1261160D01*
X185700Y1261200D01*
X186480Y1258760D01*
X187000Y1256320D01*
X187300Y1253860D01*
X187399Y1251300D01*
X187280Y1248840D01*
X186940Y1246520D01*
X186360Y1244300D01*
X185580Y1242220D01*
X184560Y1240280D01*
X183359Y1238480D01*
X181920Y1236820D01*
X180300Y1235320D01*
X178480Y1233980D01*
X176460Y1232800D01*
X174259Y1231780D01*
X171880Y1230940D01*
X169320Y1230280D01*
X166580Y1229800D01*
X163660Y1229500D01*
X160600Y1229400D01*
X157500Y1229500D01*
X154560Y1229820D01*
X151820Y1230320D01*
X149240Y1231020D01*
X146860Y1231900D01*
X144640Y1232940D01*
X142640Y1234160D01*
X140820Y1235520D01*
X139200Y1237040D01*
X137800Y1238700D01*
X136600Y1240480D01*
X135600Y1242400D01*
X134820Y1244420D01*
X134260Y1246540D01*
X133920Y1248780D01*
X133800Y1251100D01*
X133960Y1253780D01*
X134420Y1256320D01*
X135240Y1258700D01*
X136400Y1261000D01*
X147300Y1263200D01*
X147300Y1267900D01*
X134300Y1267700D01*
X133280Y1265880D01*
X132400Y1263980D01*
X131660Y1262000D01*
X131060Y1259920D01*
X130600Y1257720D01*
X130260Y1255380D01*
X130060Y1252880D01*
X130000Y1250200D01*
X130100Y1247600D01*
X130380Y1245080D01*
X130840Y1242660D01*
X131480Y1240340D01*
X132300Y1238120D01*
X133260Y1236000D01*
X134400Y1234000D01*
X135680Y1232100D01*
X137100Y1230340D01*
X138660Y1228700D01*
X140360Y1227200D01*
X142180Y1225820D01*
X144120Y1224600D01*
X146180Y1223520D01*
X148360Y1222580D01*
X150620Y1221800D01*
X152980Y1221200D01*
X155440Y1220760D01*
X157980Y1220500D01*
X160600Y1220400D01*
X163260Y1220480D01*
X165840Y1220760D01*
X168320Y1221180D01*
X170700Y1221780D01*
X173000Y1222560D01*
X175159Y1223460D01*
X177240Y1224540D01*
X179180Y1225760D01*
X181000Y1227100D01*
X182700Y1228600D01*
X184259Y1230220D01*
X185680Y1231980D01*
X186960Y1233860D01*
X188080Y1235840D01*
X189040Y1237960D01*
X189840Y1240160D01*
X190460Y1242480D01*
X190920Y1244900D01*
X191200Y1247400D01*
X191300Y1250000D01*
X191220Y1252600D01*
X190960Y1255100D01*
X190539Y1257520D01*
X189940Y1259880D01*
X189220Y1262180D01*
X188340Y1264460D01*
X187340Y1266720D01*
X186200Y1269000D01*
X173780Y1269060D01*
X165600Y1269200D01*
X165100Y1274500D01*
G37*
G36*
X267000Y1270900D02*
G01*
X251400Y1270400D01*
X251400Y1222300D01*
X267000Y1221600D01*
X267000Y1226000D01*
X255200Y1228400D01*
X255200Y1242100D01*
X263900Y1242260D01*
X288740Y1242300D01*
X300280Y1242220D01*
X306000Y1242100D01*
X307000Y1233100D01*
X310000Y1233100D01*
X310000Y1259500D01*
X307000Y1259500D01*
X306000Y1250400D01*
X294440Y1250320D01*
X263900Y1250320D01*
X255200Y1250400D01*
X255200Y1264200D01*
X267000Y1266700D01*
G37*
G36*
X160200Y1212500D02*
G01*
X156260Y1212400D01*
X152620Y1212100D01*
X149300Y1211600D01*
X146280Y1210940D01*
X143540Y1210140D01*
X141080Y1209160D01*
X138900Y1208060D01*
X136980Y1206840D01*
X135320Y1205520D01*
X133920Y1204100D01*
X132740Y1202600D01*
X131800Y1201020D01*
X131100Y1199400D01*
X130600Y1197720D01*
X130300Y1196020D01*
X130200Y1194300D01*
X133700Y1194300D01*
X133820Y1195620D01*
X134200Y1196920D01*
X134880Y1198160D01*
X135900Y1199360D01*
X137280Y1200460D01*
X139080Y1201480D01*
X141300Y1202400D01*
X144000Y1203180D01*
X147200Y1203820D01*
X150940Y1204300D01*
X155260Y1204600D01*
X160200Y1204700D01*
X165320Y1204600D01*
X169820Y1204300D01*
X173700Y1203820D01*
X177040Y1203180D01*
X179860Y1202400D01*
X182180Y1201480D01*
X184040Y1200460D01*
X185479Y1199360D01*
X186560Y1198160D01*
X187260Y1196920D01*
X187680Y1195620D01*
X187800Y1194300D01*
X187740Y1193260D01*
X187520Y1192240D01*
X187120Y1191240D01*
X186560Y1190260D01*
X185799Y1189340D01*
X184840Y1188460D01*
X183640Y1187620D01*
X182220Y1186860D01*
X180520Y1186140D01*
X178560Y1185500D01*
X176300Y1184960D01*
X173760Y1184480D01*
X170880Y1184100D01*
X167680Y1183840D01*
X164120Y1183660D01*
X160200Y1183600D01*
X155260Y1183700D01*
X150940Y1184000D01*
X147200Y1184480D01*
X144000Y1185120D01*
X141300Y1185920D01*
X139080Y1186860D01*
X137280Y1187900D01*
X135900Y1189040D01*
X134880Y1190260D01*
X134200Y1191560D01*
X133820Y1192920D01*
X133700Y1194300D01*
X130200Y1194300D01*
X130300Y1192520D01*
X130600Y1190780D01*
X131100Y1189060D01*
X131800Y1187400D01*
X132740Y1185800D01*
X133920Y1184280D01*
X135320Y1182840D01*
X136980Y1181480D01*
X138900Y1180260D01*
X141080Y1179140D01*
X143540Y1178180D01*
X146280Y1177360D01*
X149300Y1176700D01*
X152620Y1176200D01*
X156260Y1175900D01*
X160200Y1175800D01*
X164280Y1175900D01*
X168039Y1176200D01*
X171480Y1176700D01*
X174600Y1177360D01*
X177420Y1178180D01*
X179960Y1179140D01*
X182200Y1180260D01*
X184160Y1181480D01*
X185859Y1182840D01*
X187300Y1184280D01*
X188500Y1185800D01*
X189460Y1187400D01*
X190200Y1189060D01*
X190700Y1190780D01*
X191000Y1192520D01*
X191100Y1194300D01*
X191000Y1196020D01*
X190700Y1197720D01*
X190200Y1199400D01*
X189460Y1201020D01*
X188500Y1202600D01*
X187300Y1204100D01*
X185859Y1205520D01*
X184160Y1206840D01*
X182200Y1208060D01*
X179960Y1209160D01*
X177420Y1210140D01*
X174600Y1210960D01*
X171480Y1211600D01*
X168039Y1212100D01*
X164280Y1212400D01*
G37*
G36*
X307300Y1196700D02*
G01*
X306300Y1190500D01*
X283200Y1190400D01*
X279280Y1190220D01*
X275940Y1189700D01*
X273200Y1188800D01*
X271020Y1187580D01*
X269360Y1186000D01*
X268200Y1184080D01*
X267520Y1181800D01*
X267300Y1179200D01*
X267440Y1177120D01*
X267860Y1175040D01*
X268540Y1172980D01*
X269480Y1170920D01*
X270640Y1168920D01*
X272020Y1167000D01*
X273620Y1165140D01*
X275400Y1163400D01*
X268200Y1162700D01*
X267400Y1161500D01*
X272200Y1149200D01*
X274800Y1149200D01*
X275500Y1156100D01*
X280720Y1156320D01*
X287000Y1156400D01*
X306300Y1156200D01*
X307300Y1149700D01*
X310000Y1149700D01*
X310000Y1169900D01*
X307300Y1169900D01*
X306300Y1163800D01*
X291600Y1163600D01*
X278600Y1163600D01*
X275960Y1166920D01*
X274160Y1170020D01*
X273120Y1172980D01*
X272800Y1175900D01*
X272940Y1177680D01*
X273340Y1179200D01*
X274080Y1180460D01*
X275140Y1181460D01*
X276580Y1182240D01*
X278420Y1182780D01*
X280680Y1183100D01*
X283400Y1183200D01*
X295040Y1183180D01*
X306300Y1183000D01*
X307300Y1176500D01*
X310000Y1176500D01*
X310000Y1196700D01*
G37*
G36*
X171900Y1168400D02*
G01*
X169080Y1168240D01*
X166480Y1167780D01*
X164080Y1167020D01*
X161920Y1165980D01*
X160000Y1164680D01*
X158320Y1163120D01*
X156860Y1161340D01*
X155680Y1159320D01*
X154720Y1157100D01*
X154060Y1154680D01*
X153640Y1152080D01*
X153500Y1149300D01*
X153580Y1146960D01*
X153820Y1144740D01*
X154220Y1142560D01*
X154800Y1140400D01*
X138200Y1141600D01*
X138200Y1166800D01*
X131400Y1166800D01*
X131400Y1138200D01*
X158700Y1136400D01*
X159400Y1138600D01*
X158880Y1140720D01*
X158500Y1142840D01*
X158280Y1144940D01*
X158200Y1147000D01*
X158300Y1149040D01*
X158620Y1150940D01*
X159160Y1152700D01*
X159880Y1154320D01*
X160820Y1155760D01*
X161960Y1157040D01*
X163280Y1158160D01*
X164780Y1159080D01*
X166460Y1159820D01*
X168340Y1160360D01*
X170380Y1160680D01*
X172600Y1160800D01*
X174840Y1160700D01*
X176920Y1160400D01*
X178860Y1159920D01*
X180620Y1159240D01*
X182240Y1158380D01*
X183660Y1157340D01*
X184880Y1156120D01*
X185900Y1154720D01*
X186720Y1153160D01*
X187320Y1151440D01*
X187680Y1149540D01*
X187800Y1147500D01*
X187740Y1146100D01*
X187340Y1143360D01*
X187000Y1142000D01*
X179020Y1139700D01*
X177340Y1138760D01*
X176460Y1137500D01*
X176200Y1135800D01*
X176380Y1134460D01*
X176880Y1133280D01*
X177760Y1132320D01*
X179000Y1131600D01*
X181820Y1132460D01*
X184259Y1133680D01*
X186340Y1135240D01*
X188039Y1137140D01*
X189380Y1139380D01*
X190340Y1141940D01*
X190900Y1144820D01*
X191100Y1148000D01*
X191020Y1150280D01*
X190740Y1152440D01*
X190320Y1154480D01*
X189720Y1156420D01*
X188960Y1158220D01*
X188060Y1159900D01*
X187000Y1161440D01*
X185820Y1162840D01*
X184480Y1164100D01*
X183020Y1165220D01*
X181439Y1166160D01*
X179760Y1166960D01*
X177940Y1167580D01*
X176020Y1168040D01*
X174020Y1168300D01*
G37*
G36*
X280600Y1142000D02*
G01*
X277720Y1141900D01*
X274960Y1141620D01*
X272340Y1141160D01*
X269860Y1140540D01*
X267500Y1139760D01*
X265300Y1138820D01*
X263240Y1137760D01*
X261320Y1136560D01*
X259540Y1135240D01*
X257920Y1133800D01*
X256439Y1132260D01*
X255100Y1130640D01*
X253920Y1128920D01*
X252880Y1127140D01*
X252020Y1125300D01*
X251300Y1123380D01*
X250720Y1121440D01*
X250320Y1119440D01*
X250080Y1117440D01*
X250000Y1115400D01*
X253800Y1115400D01*
X253960Y1117600D01*
X254380Y1119660D01*
X255100Y1121540D01*
X256060Y1123280D01*
X257260Y1124860D01*
X258660Y1126300D01*
X260280Y1127580D01*
X262060Y1128720D01*
X264020Y1129720D01*
X266100Y1130580D01*
X268320Y1131300D01*
X270640Y1131880D01*
X273040Y1132340D01*
X275520Y1132640D01*
X278040Y1132840D01*
X280600Y1132900D01*
X283200Y1132840D01*
X285740Y1132640D01*
X288240Y1132340D01*
X290660Y1131880D01*
X293000Y1131300D01*
X295220Y1130580D01*
X297320Y1129720D01*
X299260Y1128720D01*
X301040Y1127580D01*
X302660Y1126300D01*
X304060Y1124860D01*
X305260Y1123280D01*
X306200Y1121540D01*
X306920Y1119660D01*
X307360Y1117600D01*
X307500Y1115400D01*
X307360Y1113180D01*
X306920Y1111140D01*
X306200Y1109220D01*
X305260Y1107480D01*
X304060Y1105860D01*
X302660Y1104400D01*
X301040Y1103100D01*
X299260Y1101920D01*
X297320Y1100900D01*
X295220Y1100020D01*
X293000Y1099280D01*
X290660Y1098660D01*
X288240Y1098200D01*
X285740Y1097860D01*
X283200Y1097660D01*
X280600Y1097600D01*
X278040Y1097660D01*
X275520Y1097860D01*
X273040Y1098200D01*
X270640Y1098660D01*
X268320Y1099280D01*
X266100Y1100020D01*
X264020Y1100900D01*
X262060Y1101920D01*
X260280Y1103100D01*
X258660Y1104400D01*
X257260Y1105860D01*
X256060Y1107480D01*
X255100Y1109220D01*
X254380Y1111140D01*
X253960Y1113180D01*
X253800Y1115400D01*
X250000Y1115400D01*
X250080Y1113340D01*
X250340Y1111300D01*
X250760Y1109280D01*
X251340Y1107320D01*
X252079Y1105400D01*
X252979Y1103520D01*
X254040Y1101720D01*
X255240Y1100000D01*
X256600Y1098360D01*
X258100Y1096820D01*
X259740Y1095380D01*
X261540Y1094060D01*
X263460Y1092860D01*
X265520Y1091780D01*
X267720Y1090840D01*
X270040Y1090060D01*
X272500Y1089440D01*
X275080Y1088980D01*
X277780Y1088700D01*
X280600Y1088600D01*
X283540Y1088700D01*
X286320Y1088980D01*
X288960Y1089440D01*
X291480Y1090060D01*
X293840Y1090840D01*
X296060Y1091780D01*
X298120Y1092860D01*
X300040Y1094060D01*
X301820Y1095380D01*
X303460Y1096820D01*
X304920Y1098360D01*
X306260Y1100000D01*
X307420Y1101720D01*
X308440Y1103520D01*
X309320Y1105400D01*
X310020Y1107320D01*
X310580Y1109280D01*
X310980Y1111300D01*
X311220Y1113340D01*
X311300Y1115400D01*
X311220Y1117460D01*
X310960Y1119500D01*
X310540Y1121500D01*
X309960Y1123460D01*
X309220Y1125380D01*
X308320Y1127240D01*
X307260Y1129020D01*
X306060Y1130720D01*
X304700Y1132340D01*
X303180Y1133880D01*
X301540Y1135300D01*
X299740Y1136620D01*
X297820Y1137800D01*
X295740Y1138860D01*
X293540Y1139780D01*
X291200Y1140560D01*
X288740Y1141180D01*
X286140Y1141620D01*
X283440Y1141900D01*
G37*
G36*
X160200Y1124700D02*
G01*
X156260Y1124600D01*
X152620Y1124300D01*
X149300Y1123800D01*
X146280Y1123140D01*
X143540Y1122300D01*
X141080Y1121340D01*
X138900Y1120220D01*
X136980Y1119000D01*
X135320Y1117660D01*
X133920Y1116240D01*
X132740Y1114720D01*
X131800Y1113140D01*
X131100Y1111500D01*
X130600Y1109820D01*
X130300Y1108120D01*
X130200Y1106400D01*
X133700Y1106400D01*
X133820Y1107740D01*
X134200Y1109040D01*
X134880Y1110300D01*
X135900Y1111500D01*
X137280Y1112600D01*
X139080Y1113620D01*
X141300Y1114520D01*
X144000Y1115300D01*
X147200Y1115940D01*
X150940Y1116400D01*
X155260Y1116700D01*
X160200Y1116800D01*
X165320Y1116700D01*
X169820Y1116400D01*
X173700Y1115940D01*
X177040Y1115300D01*
X179860Y1114520D01*
X182180Y1113620D01*
X184040Y1112600D01*
X185479Y1111500D01*
X186560Y1110300D01*
X187260Y1109040D01*
X187680Y1107740D01*
X187800Y1106400D01*
X187740Y1105360D01*
X187520Y1104340D01*
X187120Y1103340D01*
X186560Y1102360D01*
X185799Y1101440D01*
X184840Y1100560D01*
X183640Y1099720D01*
X182220Y1098940D01*
X180520Y1098240D01*
X178560Y1097600D01*
X176300Y1097060D01*
X173760Y1096580D01*
X170880Y1096200D01*
X167680Y1095940D01*
X164120Y1095760D01*
X160200Y1095700D01*
X155260Y1095800D01*
X150940Y1096100D01*
X147200Y1096580D01*
X144000Y1097220D01*
X141300Y1098020D01*
X139080Y1098940D01*
X137280Y1100000D01*
X135900Y1101140D01*
X134880Y1102360D01*
X134200Y1103660D01*
X133820Y1105020D01*
X133700Y1106400D01*
X130200Y1106400D01*
X130300Y1104640D01*
X130600Y1102920D01*
X131100Y1101220D01*
X131800Y1099560D01*
X132740Y1097960D01*
X133920Y1096440D01*
X135320Y1095020D01*
X136980Y1093680D01*
X138900Y1092440D01*
X141080Y1091340D01*
X143540Y1090380D01*
X146280Y1089560D01*
X149300Y1088900D01*
X152620Y1088400D01*
X156260Y1088100D01*
X160200Y1088000D01*
X164280Y1088100D01*
X168039Y1088400D01*
X171480Y1088900D01*
X174600Y1089560D01*
X177420Y1090380D01*
X179960Y1091340D01*
X182200Y1092440D01*
X184160Y1093680D01*
X185859Y1095020D01*
X187300Y1096440D01*
X188500Y1097960D01*
X189460Y1099560D01*
X190200Y1101220D01*
X190700Y1102920D01*
X191000Y1104640D01*
X191100Y1106400D01*
X191000Y1108120D01*
X190700Y1109820D01*
X190200Y1111500D01*
X189460Y1113140D01*
X188500Y1114720D01*
X187300Y1116240D01*
X185859Y1117660D01*
X184160Y1119000D01*
X182200Y1120220D01*
X179960Y1121340D01*
X177420Y1122300D01*
X174600Y1123140D01*
X171480Y1123800D01*
X168039Y1124300D01*
X164280Y1124600D01*
G37*
G36*
X171900Y1080600D02*
G01*
X169080Y1080440D01*
X166480Y1079960D01*
X164080Y1079200D01*
X161920Y1078160D01*
X160000Y1076840D01*
X158320Y1075280D01*
X156860Y1073500D01*
X155680Y1071480D01*
X154720Y1069260D01*
X154060Y1066840D01*
X153640Y1064240D01*
X153500Y1061500D01*
X153580Y1059160D01*
X153820Y1056940D01*
X154220Y1054760D01*
X154800Y1052600D01*
X138200Y1053700D01*
X138200Y1079000D01*
X131400Y1079000D01*
X131400Y1050400D01*
X158700Y1048500D01*
X159400Y1050800D01*
X158880Y1052900D01*
X158500Y1055000D01*
X158280Y1057100D01*
X158200Y1059200D01*
X158300Y1061240D01*
X158620Y1063140D01*
X159160Y1064880D01*
X159880Y1066480D01*
X160820Y1067920D01*
X161960Y1069200D01*
X163280Y1070300D01*
X164780Y1071220D01*
X166460Y1071940D01*
X168340Y1072460D01*
X170380Y1072800D01*
X172600Y1072900D01*
X174840Y1072800D01*
X176920Y1072520D01*
X178860Y1072040D01*
X180620Y1071360D01*
X182240Y1070500D01*
X183660Y1069480D01*
X184880Y1068260D01*
X185900Y1066880D01*
X186720Y1065300D01*
X187320Y1063580D01*
X187680Y1061660D01*
X187800Y1059600D01*
X187740Y1058200D01*
X187340Y1055500D01*
X187000Y1054100D01*
X181700Y1052700D01*
X179020Y1051860D01*
X177340Y1050880D01*
X176460Y1049640D01*
X176200Y1048000D01*
X176380Y1046600D01*
X176880Y1045420D01*
X177760Y1044479D01*
X179000Y1043800D01*
X181820Y1044659D01*
X184259Y1045860D01*
X186340Y1047400D01*
X188039Y1049280D01*
X189380Y1051500D01*
X190340Y1054060D01*
X190900Y1056920D01*
X191100Y1060100D01*
X191020Y1062380D01*
X190740Y1064540D01*
X190320Y1066600D01*
X189720Y1068540D01*
X188960Y1070340D01*
X188060Y1072040D01*
X187000Y1073580D01*
X185820Y1075000D01*
X184480Y1076260D01*
X183020Y1077380D01*
X181439Y1078340D01*
X179760Y1079140D01*
X177940Y1079780D01*
X176020Y1080220D01*
X174020Y1080500D01*
G37*
G36*
X284000Y1059800D02*
G01*
X281500Y1059660D01*
X279180Y1059240D01*
X277040Y1058560D01*
X275100Y1057640D01*
X273340Y1056480D01*
X271780Y1055120D01*
X270460Y1053560D01*
X269340Y1051820D01*
X268460Y1049920D01*
X267820Y1047880D01*
X267440Y1045699D01*
X267320Y1043000D01*
X270600Y1043000D01*
X270820Y1045060D01*
X271440Y1046919D01*
X272400Y1048580D01*
X273680Y1049980D01*
X275200Y1051140D01*
X276920Y1051980D01*
X278820Y1052520D01*
X280800Y1052700D01*
X282780Y1052500D01*
X284340Y1051780D01*
X285340Y1050340D01*
X285700Y1048000D01*
X285500Y1031100D01*
X281880Y1031640D01*
X278780Y1032580D01*
X276220Y1033840D01*
X274140Y1035360D01*
X272580Y1037099D01*
X271460Y1038980D01*
X270820Y1040980D01*
X270600Y1043000D01*
X267320Y1043000D01*
X267400Y1041400D01*
X267700Y1039440D01*
X268200Y1037540D01*
X268880Y1035699D01*
X269720Y1033960D01*
X270760Y1032300D01*
X271960Y1030740D01*
X273340Y1029300D01*
X274860Y1027980D01*
X276540Y1026820D01*
X278360Y1025780D01*
X280340Y1024920D01*
X282440Y1024220D01*
X284680Y1023720D01*
X287020Y1023400D01*
X289500Y1023300D01*
X292000Y1023400D01*
X294360Y1023660D01*
X296580Y1024120D01*
X298660Y1024740D01*
X300580Y1025520D01*
X302360Y1026460D01*
X303980Y1027540D01*
X305440Y1028780D01*
X306740Y1030140D01*
X307880Y1031640D01*
X308840Y1033280D01*
X309660Y1035020D01*
X310280Y1036900D01*
X310740Y1038860D01*
X311000Y1040939D01*
X311100Y1043100D01*
X310920Y1045879D01*
X310400Y1048480D01*
X309580Y1050860D01*
X308420Y1053040D01*
X306980Y1055000D01*
X305280Y1056760D01*
X303300Y1058280D01*
X301100Y1059600D01*
X299900Y1057900D01*
X302480Y1055480D01*
X304480Y1052720D01*
X305740Y1049500D01*
X306200Y1045600D01*
X306080Y1043500D01*
X305720Y1041540D01*
X305120Y1039720D01*
X304260Y1038040D01*
X303180Y1036520D01*
X301840Y1035140D01*
X300280Y1033960D01*
X298460Y1032960D01*
X296420Y1032159D01*
X294120Y1031560D01*
X291580Y1031160D01*
X288800Y1031000D01*
X288900Y1059200D01*
X286760Y1059660D01*
G37*
G36*
X187000Y1039500D02*
G01*
X186100Y1032000D01*
X158000Y1015400D01*
X135400Y1029900D01*
X134400Y1037800D01*
X131400Y1037800D01*
X131400Y1017800D01*
X134400Y1017800D01*
X135500Y1025600D01*
X155000Y1013600D01*
X135300Y1002000D01*
X134400Y1010300D01*
X131400Y1010300D01*
X131400Y985600D01*
X134400Y985600D01*
X135200Y993199D01*
X161600Y1008800D01*
X185799Y993199D01*
X187000Y985000D01*
X190000Y985000D01*
X190000Y1004800D01*
X187000Y1004800D01*
X185799Y997600D01*
X164600Y1010600D01*
X186100Y1023199D01*
X187000Y1015000D01*
X190000Y1015000D01*
X190000Y1039500D01*
G37*
G36*
X300400Y1016300D02*
G01*
X299600Y1014500D01*
X301080Y1013379D01*
X302400Y1012120D01*
X303540Y1010720D01*
X304480Y1009220D01*
X305220Y1007620D01*
X305760Y1005920D01*
X306080Y1004140D01*
X306200Y1002300D01*
X306060Y1000260D01*
X305680Y998300D01*
X305020Y996500D01*
X304120Y994800D01*
X302980Y993280D01*
X301600Y991900D01*
X299980Y990699D01*
X298140Y989700D01*
X296080Y988880D01*
X293800Y988300D01*
X291300Y987920D01*
X288600Y987800D01*
X285860Y987920D01*
X283300Y988240D01*
X280980Y988760D01*
X278860Y989500D01*
X276980Y990400D01*
X275320Y991500D01*
X273900Y992760D01*
X272740Y994180D01*
X271800Y995740D01*
X271140Y997420D01*
X270740Y999260D01*
X270600Y1001200D01*
X270820Y1003480D01*
X271400Y1006000D01*
X277600Y1007600D01*
X279300Y1008160D01*
X280580Y1009080D01*
X281420Y1010460D01*
X281700Y1012300D01*
X281500Y1013700D01*
X280880Y1014800D01*
X279880Y1015600D01*
X278500Y1016100D01*
X276160Y1015420D01*
X274000Y1014280D01*
X272100Y1012760D01*
X270460Y1010879D01*
X269120Y1008700D01*
X268140Y1006280D01*
X267520Y1003620D01*
X267300Y1000800D01*
X267400Y998800D01*
X267680Y996840D01*
X268140Y994940D01*
X268800Y993080D01*
X269620Y991300D01*
X270620Y989620D01*
X271800Y988020D01*
X273140Y986540D01*
X274640Y985180D01*
X276300Y983960D01*
X278120Y982900D01*
X280080Y982000D01*
X282200Y981280D01*
X284460Y980740D01*
X286860Y980420D01*
X289400Y980300D01*
X291840Y980400D01*
X294160Y980660D01*
X296340Y981100D01*
X298400Y981720D01*
X300320Y982500D01*
X302120Y983420D01*
X303740Y984500D01*
X305240Y985720D01*
X306560Y987080D01*
X307740Y988580D01*
X308740Y990200D01*
X309580Y991940D01*
X310240Y993800D01*
X310720Y995759D01*
X311000Y997840D01*
X311100Y1000000D01*
X310920Y1002940D01*
X310380Y1005639D01*
X309500Y1008080D01*
X308300Y1010260D01*
X306780Y1012159D01*
X304940Y1013800D01*
X302820Y1015180D01*
G37*
G36*
X148700Y983400D02*
G01*
X146800Y983319D01*
X144980Y983060D01*
X143240Y982620D01*
X141600Y982020D01*
X140080Y981260D01*
X138660Y980320D01*
X137340Y979200D01*
X136140Y977920D01*
X135080Y976460D01*
X134140Y974820D01*
X133320Y973020D01*
X132640Y971040D01*
X132100Y968880D01*
X131720Y966560D01*
X131480Y964060D01*
X131400Y961400D01*
X131400Y954400D01*
X134800Y954400D01*
X134800Y960000D01*
X134900Y962480D01*
X135220Y964740D01*
X135720Y966760D01*
X136420Y968560D01*
X137320Y970140D01*
X138420Y971500D01*
X139680Y972640D01*
X141140Y973580D01*
X142780Y974280D01*
X144580Y974800D01*
X146560Y975100D01*
X148700Y975200D01*
X150760Y975100D01*
X152720Y974820D01*
X154520Y974340D01*
X156180Y973660D01*
X157700Y972740D01*
X159040Y971620D01*
X160200Y970280D01*
X161180Y968680D01*
X161960Y966840D01*
X162540Y964760D01*
X162880Y962420D01*
X163000Y959800D01*
X163000Y954200D01*
X143640Y954240D01*
X131400Y954400D01*
X131400Y937900D01*
X134400Y937900D01*
X135300Y946000D01*
X146880Y946180D01*
X171640Y946180D01*
X186100Y946000D01*
X187000Y937900D01*
X190000Y937900D01*
X190000Y962700D01*
X187000Y962700D01*
X186000Y954400D01*
X178640Y954240D01*
X166600Y954200D01*
X166600Y958800D01*
X166500Y962000D01*
X166240Y964940D01*
X165780Y967640D01*
X165180Y970120D01*
X164420Y972340D01*
X163520Y974360D01*
X162480Y976160D01*
X161320Y977740D01*
X160060Y979120D01*
X158680Y980280D01*
X157200Y981260D01*
X155640Y982039D01*
X154000Y982640D01*
X152280Y983060D01*
X150520Y983319D01*
G37*
G36*
X306500Y976000D02*
G01*
X304800Y974400D01*
X305740Y973600D01*
X306420Y972800D01*
X306860Y971919D01*
X307000Y970900D01*
X306700Y969560D01*
X305740Y968560D01*
X304000Y967920D01*
X301400Y967700D01*
X282300Y967700D01*
X279720Y967600D01*
X277400Y967340D01*
X275360Y966860D01*
X273560Y966220D01*
X272020Y965380D01*
X270720Y964340D01*
X269640Y963120D01*
X268760Y961720D01*
X268120Y960100D01*
X267660Y958300D01*
X267380Y956300D01*
X267300Y954100D01*
X267480Y950860D01*
X268040Y947880D01*
X268960Y945200D01*
X270180Y942840D01*
X271740Y940840D01*
X273580Y939200D01*
X275720Y937980D01*
X278100Y937200D01*
X279500Y937560D01*
X280540Y938319D01*
X281180Y939500D01*
X281400Y941100D01*
X281160Y942620D01*
X280420Y943860D01*
X279160Y944820D01*
X277400Y945500D01*
X271400Y947200D01*
X270820Y949760D01*
X270600Y952099D01*
X270720Y954160D01*
X271100Y955900D01*
X271780Y957360D01*
X272820Y958520D01*
X274280Y959400D01*
X276160Y960020D01*
X278560Y960380D01*
X281500Y960500D01*
X300900Y960500D01*
X303300Y957300D01*
X304880Y954820D01*
X305740Y952680D01*
X306000Y950500D01*
X305600Y947660D01*
X304360Y945420D01*
X302240Y943940D01*
X299200Y943400D01*
X298000Y943480D01*
X296780Y943740D01*
X295540Y944240D01*
X294320Y945060D01*
X293120Y946220D01*
X291920Y947780D01*
X290740Y949840D01*
X289600Y952400D01*
X288340Y956040D01*
X287000Y960500D01*
X284200Y960500D01*
X285580Y955180D01*
X287100Y950400D01*
X288620Y946500D01*
X290140Y943340D01*
X291680Y940840D01*
X293260Y938920D01*
X294900Y937560D01*
X296620Y936640D01*
X298440Y936160D01*
X300400Y936000D01*
X302860Y936240D01*
X305020Y936919D01*
X306860Y937980D01*
X308380Y939400D01*
X309560Y941120D01*
X310420Y943080D01*
X310920Y945260D01*
X311100Y947600D01*
X311000Y949460D01*
X310660Y951160D01*
X310120Y952760D01*
X309360Y954300D01*
X308380Y955819D01*
X307180Y957360D01*
X305760Y958980D01*
X304100Y960699D01*
X306940Y961600D01*
X309120Y963240D01*
X310520Y965560D01*
X311000Y968500D01*
X310760Y970699D01*
X309980Y972660D01*
X308600Y974419D01*
G37*
G36*
X307300Y930300D02*
G01*
X306300Y923199D01*
X291600Y923100D01*
X258299Y923100D01*
X245799Y923500D01*
X245200Y922300D01*
X248900Y908800D01*
X251500Y908800D01*
X252200Y915900D01*
X295240Y915879D01*
X306300Y915699D01*
X307300Y908800D01*
X310000Y908800D01*
X310000Y930300D01*
G37*
G36*
X131400Y930000D02*
G01*
X131400Y913100D01*
X180000Y894100D01*
X131400Y874400D01*
X131400Y858400D01*
X134400Y858400D01*
X135400Y866400D01*
X185799Y866300D01*
X187000Y858400D01*
X190000Y858400D01*
X190000Y878000D01*
X187000Y878000D01*
X185799Y870400D01*
X157520Y870380D01*
X139800Y869900D01*
X190000Y890400D01*
X190000Y894100D01*
X139600Y913900D01*
X174640Y913780D01*
X186100Y913600D01*
X187000Y906000D01*
X190000Y906000D01*
X190000Y929900D01*
X187000Y929900D01*
X186100Y921800D01*
X177360Y921640D01*
X152700Y921600D01*
X141040Y921680D01*
X135300Y921800D01*
X134400Y930000D01*
G37*
G36*
X268700Y904400D02*
G01*
X266800Y904320D01*
X264980Y904060D01*
X263240Y903640D01*
X261600Y903040D01*
X260080Y902280D01*
X258660Y901340D01*
X257340Y900240D01*
X256160Y898940D01*
X255080Y897500D01*
X254140Y895860D01*
X253320Y894060D01*
X252640Y892080D01*
X252100Y889920D01*
X251720Y887600D01*
X251480Y885080D01*
X251400Y882400D01*
X251400Y875400D01*
X254800Y875400D01*
X254800Y881000D01*
X254899Y883500D01*
X255219Y885780D01*
X255720Y887800D01*
X256420Y889599D01*
X257320Y891180D01*
X258420Y892540D01*
X259680Y893680D01*
X261140Y894599D01*
X262780Y895300D01*
X264580Y895800D01*
X266560Y896100D01*
X268700Y896200D01*
X270760Y896100D01*
X272720Y895819D01*
X274520Y895340D01*
X276180Y894659D01*
X277700Y893740D01*
X279040Y892620D01*
X280200Y891280D01*
X281180Y889680D01*
X281960Y887840D01*
X282540Y885759D01*
X282880Y883420D01*
X283000Y880800D01*
X283000Y875200D01*
X263640Y875240D01*
X251400Y875400D01*
X251400Y858900D01*
X254400Y858900D01*
X255300Y867099D01*
X269780Y867200D01*
X306100Y867099D01*
X307000Y858900D01*
X310000Y858900D01*
X310000Y883700D01*
X307000Y883700D01*
X306000Y875400D01*
X298640Y875240D01*
X286600Y875200D01*
X286600Y879900D01*
X286500Y883100D01*
X286240Y886040D01*
X285780Y888740D01*
X285180Y891200D01*
X284420Y893420D01*
X283520Y895440D01*
X282480Y897220D01*
X281320Y898780D01*
X280060Y900160D01*
X278680Y901320D01*
X277200Y902280D01*
X275640Y903060D01*
X274000Y903660D01*
X272280Y904080D01*
X270520Y904320D01*
G37*
G36*
X468900Y598600D02*
G01*
X468900Y595600D01*
X477100Y594700D01*
X477200Y567000D01*
X485200Y567000D01*
X485240Y586360D01*
X485400Y595200D01*
X491000Y595200D01*
X493500Y595100D01*
X495780Y594780D01*
X497800Y594280D01*
X499600Y593580D01*
X501180Y592680D01*
X502540Y591580D01*
X503680Y590320D01*
X504600Y588860D01*
X505300Y587220D01*
X505800Y585420D01*
X506100Y583440D01*
X506200Y581300D01*
X506100Y579240D01*
X505820Y577280D01*
X505340Y575480D01*
X504660Y573820D01*
X503740Y572300D01*
X502620Y570960D01*
X501280Y569800D01*
X499680Y568820D01*
X497840Y568040D01*
X495760Y567460D01*
X493420Y567120D01*
X490800Y567000D01*
X477200Y567000D01*
X477100Y543900D01*
X468900Y543000D01*
X468900Y540000D01*
X493700Y540000D01*
X493700Y543000D01*
X485400Y544000D01*
X485240Y551360D01*
X485200Y563400D01*
X489900Y563400D01*
X493100Y563500D01*
X496040Y563760D01*
X498740Y564220D01*
X501200Y564820D01*
X503420Y565580D01*
X505439Y566480D01*
X507220Y567520D01*
X508780Y568680D01*
X510160Y569940D01*
X511320Y571320D01*
X512280Y572800D01*
X513060Y574360D01*
X513660Y576000D01*
X514080Y577720D01*
X514320Y579480D01*
X514400Y581300D01*
X514320Y583200D01*
X514060Y585020D01*
X513640Y586760D01*
X513040Y588400D01*
X512280Y589920D01*
X511340Y591340D01*
X510240Y592660D01*
X508940Y593860D01*
X507500Y594920D01*
X505860Y595860D01*
X504060Y596680D01*
X502080Y597360D01*
X499920Y597900D01*
X497600Y598280D01*
X495080Y598520D01*
X492400Y598600D01*
G37*
G36*
X610400Y593600D02*
G01*
X608100Y581800D01*
X600300Y580800D01*
X600300Y577700D01*
X607700Y577700D01*
X607600Y549100D01*
X607780Y546660D01*
X608280Y544560D01*
X609100Y542800D01*
X610240Y541380D01*
X611660Y540280D01*
X613380Y539500D01*
X615360Y539060D01*
X617600Y538900D01*
X620720Y539200D01*
X623480Y540100D01*
X625820Y541520D01*
X627700Y543400D01*
X626000Y545400D01*
X624340Y544300D01*
X622840Y543520D01*
X621440Y543060D01*
X620000Y542900D01*
X617860Y543260D01*
X616260Y544420D01*
X615240Y546440D01*
X614900Y549400D01*
X614900Y577700D01*
X626800Y577700D01*
X626800Y581500D01*
X615000Y581500D01*
X615500Y593600D01*
G37*
G36*
X905600Y582700D02*
G01*
X903600Y582600D01*
X901640Y582300D01*
X899740Y581800D01*
X897900Y581120D01*
X896160Y580280D01*
X894500Y579240D01*
X892940Y578040D01*
X891500Y576660D01*
X890180Y575140D01*
X889020Y573460D01*
X887980Y571640D01*
X887120Y569660D01*
X886420Y567560D01*
X885920Y565320D01*
X885807Y564500D01*
X893199Y564500D01*
X893760Y568120D01*
X894700Y571220D01*
X895960Y573780D01*
X897520Y575840D01*
X899260Y577420D01*
X901180Y578540D01*
X903180Y579180D01*
X905200Y579400D01*
X907220Y579180D01*
X909060Y578560D01*
X910699Y577600D01*
X912099Y576320D01*
X913240Y574800D01*
X914080Y573080D01*
X914620Y571180D01*
X914800Y569200D01*
X914620Y567220D01*
X913920Y565660D01*
X912480Y564660D01*
X910100Y564300D01*
X893199Y564500D01*
X885807Y564500D01*
X885600Y562980D01*
X885500Y560500D01*
X885600Y558000D01*
X885860Y555640D01*
X886320Y553420D01*
X886940Y551340D01*
X887720Y549420D01*
X888640Y547640D01*
X889740Y546020D01*
X890960Y544560D01*
X892320Y543260D01*
X893820Y542120D01*
X895440Y541160D01*
X897180Y540340D01*
X899040Y539720D01*
X901000Y539260D01*
X903060Y539000D01*
X905200Y538900D01*
X908020Y539080D01*
X910639Y539600D01*
X913040Y540420D01*
X915220Y541580D01*
X917200Y543020D01*
X918960Y544720D01*
X920480Y546700D01*
X921800Y548900D01*
X920000Y550100D01*
X917580Y547520D01*
X914860Y545520D01*
X911640Y544260D01*
X907700Y543800D01*
X905639Y543920D01*
X903680Y544280D01*
X901860Y544880D01*
X900180Y545740D01*
X898660Y546820D01*
X897300Y548160D01*
X896120Y549720D01*
X895120Y551540D01*
X894320Y553580D01*
X893720Y555880D01*
X893340Y558420D01*
X893199Y561200D01*
X921300Y561100D01*
X921800Y563240D01*
X922000Y566000D01*
X921860Y568500D01*
X921440Y570820D01*
X920759Y572960D01*
X919840Y574900D01*
X918680Y576660D01*
X917320Y578220D01*
X915759Y579540D01*
X914020Y580660D01*
X912120Y581540D01*
X910080Y582180D01*
X907900Y582560D01*
G37*
G36*
X835200Y582700D02*
G01*
X833160Y582560D01*
X831140Y582140D01*
X829120Y581460D01*
X827140Y580540D01*
X825200Y579380D01*
X823340Y578020D01*
X821580Y576460D01*
X819900Y574700D01*
X819200Y581800D01*
X818000Y582600D01*
X805600Y577800D01*
X805600Y575200D01*
X812600Y574500D01*
X812780Y569280D01*
X812700Y543700D01*
X806200Y542700D01*
X806200Y540000D01*
X826400Y540000D01*
X826400Y542700D01*
X820300Y543700D01*
X820100Y558400D01*
X820100Y571400D01*
X823300Y573980D01*
X826240Y575740D01*
X829080Y576780D01*
X832000Y577100D01*
X833740Y576980D01*
X835240Y576560D01*
X836480Y575860D01*
X837480Y574800D01*
X838240Y573360D01*
X838780Y571540D01*
X839100Y569260D01*
X839200Y566500D01*
X839100Y543700D01*
X832400Y542700D01*
X832400Y540000D01*
X852600Y540000D01*
X852600Y542700D01*
X846600Y543700D01*
X846420Y551120D01*
X846400Y566800D01*
X846320Y569160D01*
X846100Y571300D01*
X849440Y573980D01*
X852480Y575780D01*
X855320Y576780D01*
X858100Y577100D01*
X859880Y576980D01*
X861400Y576620D01*
X862680Y575940D01*
X863720Y574920D01*
X864500Y573520D01*
X865060Y571700D01*
X865400Y569400D01*
X865500Y566600D01*
X865480Y554960D01*
X865300Y543700D01*
X858800Y542700D01*
X858800Y540000D01*
X878900Y540000D01*
X878900Y542700D01*
X872800Y543700D01*
X872600Y558400D01*
X872600Y567500D01*
X872400Y571260D01*
X871840Y574440D01*
X870920Y577060D01*
X869659Y579140D01*
X868060Y580740D01*
X866140Y581840D01*
X863920Y582480D01*
X861400Y582700D01*
X859300Y582580D01*
X857220Y582200D01*
X855160Y581580D01*
X853120Y580700D01*
X851140Y579560D01*
X849220Y578140D01*
X847360Y576460D01*
X845600Y574500D01*
X844920Y576480D01*
X844060Y578180D01*
X843040Y579600D01*
X841820Y580740D01*
X840440Y581600D01*
X838880Y582220D01*
X837140Y582580D01*
G37*
G36*
X784700Y582700D02*
G01*
X781200Y582440D01*
X778139Y581700D01*
X775500Y580560D01*
X773340Y579040D01*
X771640Y577220D01*
X770400Y575140D01*
X769659Y572900D01*
X769400Y570500D01*
X769599Y568360D01*
X770160Y566440D01*
X771080Y564740D01*
X772320Y563200D01*
X773860Y561840D01*
X775680Y560620D01*
X777780Y559560D01*
X780100Y558600D01*
X784200Y557300D01*
X787920Y555660D01*
X790480Y553900D01*
X791940Y551840D01*
X792400Y549300D01*
X792240Y547780D01*
X791800Y546420D01*
X791020Y545200D01*
X789940Y544180D01*
X788520Y543340D01*
X786780Y542720D01*
X784720Y542340D01*
X782300Y542200D01*
X780280Y542300D01*
X778439Y542580D01*
X776720Y543040D01*
X775100Y543700D01*
X773199Y551800D01*
X769000Y551800D01*
X769200Y542200D01*
X772360Y540760D01*
X775500Y539720D01*
X778800Y539100D01*
X782400Y538900D01*
X785060Y539020D01*
X787500Y539360D01*
X789720Y539900D01*
X791720Y540620D01*
X793480Y541540D01*
X795020Y542600D01*
X796320Y543800D01*
X797380Y545140D01*
X798220Y546580D01*
X798820Y548120D01*
X799180Y549720D01*
X799300Y551400D01*
X799140Y553400D01*
X798640Y555260D01*
X797800Y557020D01*
X796560Y558640D01*
X794920Y560140D01*
X792840Y561540D01*
X790320Y562820D01*
X784300Y565100D01*
X780520Y566700D01*
X777980Y568360D01*
X776560Y570340D01*
X776100Y572900D01*
X776660Y575500D01*
X778300Y577520D01*
X781000Y578840D01*
X784700Y579300D01*
X786280Y579200D01*
X787860Y578880D01*
X789419Y578380D01*
X791000Y577700D01*
X792700Y570200D01*
X796600Y570200D01*
X796900Y579100D01*
X794060Y580640D01*
X791140Y581760D01*
X788060Y582460D01*
G37*
G36*
X742200Y582700D02*
G01*
X738960Y582520D01*
X735980Y581960D01*
X733280Y581040D01*
X730920Y579820D01*
X728900Y578260D01*
X727260Y576420D01*
X726020Y574280D01*
X725200Y571900D01*
X725620Y570500D01*
X726420Y569460D01*
X727600Y568820D01*
X729200Y568600D01*
X730699Y568840D01*
X731919Y569580D01*
X732880Y570840D01*
X733600Y572600D01*
X735200Y578600D01*
X737840Y579180D01*
X740200Y579400D01*
X742260Y579280D01*
X744000Y578900D01*
X745460Y578220D01*
X746620Y577180D01*
X747500Y575720D01*
X748120Y573840D01*
X748480Y571440D01*
X748600Y568500D01*
X748600Y565800D01*
X743280Y564420D01*
X738500Y562900D01*
X734599Y561380D01*
X731420Y559860D01*
X728900Y558320D01*
X726979Y556740D01*
X725580Y555100D01*
X724659Y553380D01*
X724160Y551560D01*
X724097Y550800D01*
X731500Y550800D01*
X731580Y552000D01*
X731820Y553220D01*
X732320Y554460D01*
X733120Y555680D01*
X734260Y556880D01*
X735840Y558080D01*
X737900Y559260D01*
X740500Y560400D01*
X744100Y561660D01*
X748600Y563000D01*
X748600Y549100D01*
X745400Y546700D01*
X742920Y545120D01*
X740780Y544260D01*
X738600Y544000D01*
X735759Y544400D01*
X733520Y545640D01*
X732039Y547760D01*
X731500Y550800D01*
X724097Y550800D01*
X724000Y549600D01*
X724240Y547140D01*
X724920Y544980D01*
X725980Y543140D01*
X727400Y541620D01*
X729120Y540440D01*
X731080Y539580D01*
X733259Y539080D01*
X735600Y538900D01*
X737500Y539000D01*
X739220Y539340D01*
X740840Y539880D01*
X742380Y540640D01*
X743920Y541620D01*
X745460Y542820D01*
X747080Y544240D01*
X748800Y545900D01*
X749700Y543060D01*
X751360Y540880D01*
X753660Y539480D01*
X756600Y539000D01*
X758760Y539240D01*
X760720Y540020D01*
X762500Y541400D01*
X764100Y543500D01*
X762500Y545200D01*
X761680Y544260D01*
X760860Y543580D01*
X759980Y543140D01*
X759000Y543000D01*
X757660Y543300D01*
X756640Y544260D01*
X756020Y546000D01*
X755800Y548600D01*
X755800Y567700D01*
X755699Y570280D01*
X755440Y572600D01*
X754960Y574640D01*
X754320Y576440D01*
X753480Y577980D01*
X752440Y579280D01*
X751220Y580360D01*
X749820Y581240D01*
X748199Y581880D01*
X746400Y582340D01*
X744400Y582620D01*
G37*
G36*
X697200Y582700D02*
G01*
X694960Y582600D01*
X692840Y582280D01*
X690860Y581740D01*
X689020Y581020D01*
X687340Y580080D01*
X685860Y578960D01*
X684539Y577640D01*
X683460Y576160D01*
X682580Y574480D01*
X681940Y572620D01*
X681540Y570600D01*
X681405Y568300D01*
X688300Y568300D01*
X688460Y570720D01*
X688920Y572900D01*
X689680Y574860D01*
X690699Y576520D01*
X692000Y577860D01*
X693540Y578860D01*
X695300Y579480D01*
X697300Y579700D01*
X699260Y579480D01*
X700980Y578880D01*
X702460Y577900D01*
X703720Y576580D01*
X704700Y574960D01*
X705420Y573080D01*
X705860Y570940D01*
X706000Y568600D01*
X705840Y566140D01*
X705400Y563900D01*
X704659Y561900D01*
X703640Y560200D01*
X702360Y558800D01*
X700819Y557780D01*
X699020Y557120D01*
X697000Y556900D01*
X695080Y557100D01*
X693360Y557720D01*
X691880Y558680D01*
X690620Y560020D01*
X689620Y561660D01*
X688900Y563600D01*
X688460Y565820D01*
X688300Y568300D01*
X681405Y568300D01*
X681520Y566260D01*
X681880Y564300D01*
X682440Y562500D01*
X683220Y560860D01*
X684180Y559380D01*
X685320Y558080D01*
X686640Y556960D01*
X688100Y556000D01*
X685300Y553140D01*
X683460Y550660D01*
X682420Y548420D01*
X682099Y546300D01*
X682480Y543960D01*
X683600Y542040D01*
X685400Y540540D01*
X687800Y539500D01*
X683860Y537300D01*
X681220Y534980D01*
X679760Y532520D01*
X679502Y531000D01*
X686100Y531000D01*
X686320Y533200D01*
X686960Y535180D01*
X688080Y537080D01*
X689700Y539000D01*
X694000Y538800D01*
X704100Y538800D01*
X708120Y538260D01*
X710819Y536760D01*
X712320Y534540D01*
X712800Y531800D01*
X712560Y529920D01*
X711840Y528160D01*
X710620Y526600D01*
X708960Y525260D01*
X706800Y524140D01*
X704200Y523300D01*
X701120Y522780D01*
X697600Y522600D01*
X695120Y522720D01*
X692900Y523100D01*
X690920Y523720D01*
X689260Y524620D01*
X687920Y525800D01*
X686919Y527240D01*
X686320Y528980D01*
X686100Y531000D01*
X679502Y531000D01*
X679300Y529800D01*
X679419Y528260D01*
X679760Y526820D01*
X680360Y525460D01*
X681200Y524200D01*
X682300Y523060D01*
X683640Y522040D01*
X685280Y521140D01*
X687159Y520400D01*
X689340Y519799D01*
X691800Y519360D01*
X694560Y519099D01*
X697600Y519000D01*
X701020Y519159D01*
X704160Y519600D01*
X707000Y520300D01*
X709560Y521220D01*
X711800Y522380D01*
X713760Y523700D01*
X715420Y525180D01*
X716780Y526800D01*
X717840Y528540D01*
X718600Y530340D01*
X719040Y532200D01*
X719200Y534100D01*
X718980Y536560D01*
X718340Y538740D01*
X717260Y540640D01*
X715740Y542240D01*
X713780Y543500D01*
X711360Y544440D01*
X708460Y545000D01*
X705100Y545200D01*
X693500Y545200D01*
X690759Y545480D01*
X689040Y546280D01*
X688160Y547560D01*
X687900Y549300D01*
X688060Y550800D01*
X688500Y552180D01*
X689240Y553560D01*
X690300Y555000D01*
X691919Y554540D01*
X693600Y554180D01*
X695360Y553980D01*
X697200Y553900D01*
X699440Y554000D01*
X701560Y554340D01*
X703560Y554880D01*
X705380Y555620D01*
X707060Y556560D01*
X708560Y557700D01*
X709860Y559040D01*
X710939Y560560D01*
X711820Y562260D01*
X712460Y564140D01*
X712860Y566180D01*
X713000Y568400D01*
X712840Y570840D01*
X712380Y573060D01*
X711640Y575040D01*
X710699Y576800D01*
X719599Y576600D01*
X719599Y581800D01*
X718300Y582600D01*
X708300Y579300D01*
X706060Y580800D01*
X703420Y581860D01*
X700460Y582500D01*
G37*
G36*
X652099Y582700D02*
G01*
X650200Y582620D01*
X648300Y582340D01*
X646460Y581900D01*
X644659Y581280D01*
X642920Y580500D01*
X641260Y579540D01*
X639680Y578400D01*
X638220Y577080D01*
X636880Y575620D01*
X635680Y573960D01*
X634600Y572160D01*
X633700Y570180D01*
X632980Y568020D01*
X632440Y565720D01*
X632120Y563240D01*
X632000Y560600D01*
X640000Y560600D01*
X640100Y563540D01*
X640360Y566220D01*
X640800Y568680D01*
X641420Y570900D01*
X642220Y572860D01*
X643160Y574580D01*
X644280Y576040D01*
X645540Y577240D01*
X646960Y578180D01*
X648540Y578860D01*
X650240Y579260D01*
X652099Y579400D01*
X653940Y579260D01*
X655639Y578860D01*
X657200Y578180D01*
X658620Y577240D01*
X659880Y576040D01*
X661000Y574580D01*
X661960Y572860D01*
X662760Y570900D01*
X663379Y568680D01*
X663840Y566220D01*
X664100Y563540D01*
X664200Y560600D01*
X664100Y557720D01*
X663840Y555080D01*
X663379Y552660D01*
X662760Y550500D01*
X661960Y548580D01*
X661000Y546900D01*
X659880Y545480D01*
X658620Y544300D01*
X657200Y543380D01*
X655639Y542720D01*
X653940Y542340D01*
X652099Y542200D01*
X650240Y542340D01*
X648540Y542720D01*
X646960Y543380D01*
X645540Y544300D01*
X644280Y545480D01*
X643160Y546900D01*
X642220Y548580D01*
X641420Y550500D01*
X640800Y552660D01*
X640360Y555080D01*
X640100Y557720D01*
X640000Y560600D01*
X632000Y560600D01*
X632120Y557980D01*
X632440Y555540D01*
X632980Y553260D01*
X633700Y551140D01*
X634580Y549180D01*
X635640Y547400D01*
X636840Y545800D01*
X638180Y544340D01*
X639640Y543080D01*
X641220Y541960D01*
X642880Y541040D01*
X644620Y540260D01*
X646420Y539660D01*
X648280Y539240D01*
X650180Y538980D01*
X652099Y538900D01*
X654020Y538980D01*
X655920Y539240D01*
X657780Y539660D01*
X659599Y540260D01*
X661340Y541040D01*
X663020Y541960D01*
X664599Y543080D01*
X666060Y544340D01*
X667420Y545800D01*
X668620Y547400D01*
X669680Y549180D01*
X670600Y551140D01*
X671320Y553260D01*
X671860Y555540D01*
X672180Y557980D01*
X672300Y560600D01*
X672180Y563260D01*
X671860Y565740D01*
X671300Y568060D01*
X670580Y570220D01*
X669659Y572200D01*
X668600Y574000D01*
X667380Y575660D01*
X666020Y577120D01*
X664560Y578420D01*
X662980Y579560D01*
X661300Y580520D01*
X659560Y581300D01*
X657760Y581920D01*
X655900Y582340D01*
X654000Y582620D01*
G37*
G36*
X576000Y582700D02*
G01*
X574080Y582620D01*
X572180Y582340D01*
X570320Y581900D01*
X568520Y581280D01*
X566780Y580500D01*
X565120Y579540D01*
X563540Y578400D01*
X562080Y577080D01*
X560740Y575620D01*
X559540Y573960D01*
X558480Y572160D01*
X557600Y570180D01*
X556880Y568020D01*
X556340Y565720D01*
X556020Y563240D01*
X555900Y560600D01*
X563900Y560600D01*
X564000Y563540D01*
X564260Y566220D01*
X564700Y568680D01*
X565320Y570900D01*
X566120Y572860D01*
X567060Y574580D01*
X568180Y576040D01*
X569440Y577240D01*
X570860Y578180D01*
X572440Y578860D01*
X574140Y579260D01*
X576000Y579400D01*
X577840Y579260D01*
X579520Y578860D01*
X581080Y578180D01*
X582480Y577240D01*
X583740Y576040D01*
X584860Y574580D01*
X585800Y572860D01*
X586580Y570900D01*
X587200Y568680D01*
X587640Y566220D01*
X587900Y563540D01*
X588000Y560600D01*
X587900Y557720D01*
X587640Y555080D01*
X587200Y552660D01*
X586580Y550500D01*
X585800Y548580D01*
X584840Y546900D01*
X583740Y545480D01*
X582480Y544300D01*
X581080Y543380D01*
X579520Y542720D01*
X577840Y542340D01*
X576000Y542200D01*
X574140Y542340D01*
X572440Y542720D01*
X570860Y543380D01*
X569440Y544300D01*
X568180Y545480D01*
X567060Y546900D01*
X566120Y548580D01*
X565320Y550500D01*
X564700Y552660D01*
X564260Y555080D01*
X564000Y557720D01*
X563900Y560600D01*
X555900Y560600D01*
X556020Y557980D01*
X556340Y555540D01*
X556860Y553260D01*
X557580Y551140D01*
X558460Y549180D01*
X559520Y547400D01*
X560720Y545800D01*
X562040Y544340D01*
X563500Y543080D01*
X565060Y541960D01*
X566720Y541040D01*
X568480Y540260D01*
X570280Y539660D01*
X572160Y539240D01*
X574060Y538980D01*
X576000Y538900D01*
X577900Y538980D01*
X579800Y539240D01*
X581640Y539660D01*
X583440Y540260D01*
X585180Y541040D01*
X586840Y541960D01*
X588420Y543080D01*
X589880Y544340D01*
X591220Y545800D01*
X592420Y547400D01*
X593500Y549180D01*
X594400Y551140D01*
X595120Y553260D01*
X595660Y555540D01*
X595980Y557980D01*
X596100Y560600D01*
X595980Y563260D01*
X595660Y565740D01*
X595120Y568060D01*
X594380Y570220D01*
X593480Y572200D01*
X592400Y574000D01*
X591180Y575660D01*
X589840Y577120D01*
X588360Y578420D01*
X586800Y579560D01*
X585140Y580520D01*
X583400Y581300D01*
X581600Y581920D01*
X579760Y582340D01*
X577900Y582620D01*
G37*
G36*
X546100Y582700D02*
G01*
X544260Y582500D01*
X542440Y581940D01*
X540660Y581000D01*
X538960Y579700D01*
X537340Y578080D01*
X535840Y576120D01*
X534480Y573860D01*
X533300Y571300D01*
X532400Y581800D01*
X531200Y582600D01*
X518900Y577800D01*
X518900Y575200D01*
X525900Y574500D01*
X526100Y563000D01*
X526000Y543700D01*
X519600Y542700D01*
X519600Y540000D01*
X540800Y540000D01*
X540800Y542700D01*
X533600Y543800D01*
X533400Y558400D01*
X533400Y565300D01*
X534800Y568960D01*
X536480Y572080D01*
X538540Y574700D01*
X541000Y576900D01*
X542000Y575900D01*
X543280Y574880D01*
X544600Y574080D01*
X546000Y573580D01*
X547500Y573400D01*
X549740Y573840D01*
X551260Y575040D01*
X552120Y576940D01*
X552400Y579400D01*
X551380Y580800D01*
X549880Y581840D01*
X548080Y582480D01*
G37*
G36*
X599400Y484799D02*
G01*
X585900Y481100D01*
X585900Y478500D01*
X593200Y477800D01*
X593200Y457000D01*
X590460Y459739D01*
X587640Y461500D01*
X584720Y462420D01*
X581700Y462700D01*
X579720Y462600D01*
X577800Y462299D01*
X575960Y461800D01*
X574220Y461120D01*
X572580Y460260D01*
X571040Y459240D01*
X569600Y458020D01*
X568300Y456640D01*
X567120Y455120D01*
X566060Y453440D01*
X565160Y451599D01*
X564400Y449620D01*
X563800Y447500D01*
X563360Y445260D01*
X563100Y442900D01*
X563008Y440600D01*
X570700Y440600D01*
X570820Y443600D01*
X571160Y446280D01*
X571700Y448680D01*
X572420Y450780D01*
X573340Y452620D01*
X574400Y454180D01*
X575600Y455480D01*
X576940Y456520D01*
X578380Y457299D01*
X579920Y457860D01*
X581520Y458200D01*
X583200Y458300D01*
X585420Y458080D01*
X587780Y457320D01*
X590320Y455900D01*
X593100Y453700D01*
X593100Y428300D01*
X590640Y425980D01*
X588240Y424460D01*
X585780Y423640D01*
X583100Y423400D01*
X581360Y423500D01*
X579720Y423840D01*
X578160Y424380D01*
X576720Y425180D01*
X575420Y426200D01*
X574240Y427460D01*
X573200Y428980D01*
X572340Y430760D01*
X571640Y432800D01*
X571120Y435120D01*
X570800Y437720D01*
X570700Y440600D01*
X563008Y440600D01*
X563140Y437280D01*
X563600Y434360D01*
X564300Y431640D01*
X565280Y429140D01*
X566520Y426860D01*
X567980Y424840D01*
X569680Y423100D01*
X571580Y421620D01*
X573680Y420460D01*
X575960Y419600D01*
X578400Y419080D01*
X581000Y418900D01*
X584760Y419320D01*
X588020Y420540D01*
X590820Y422480D01*
X593300Y425100D01*
X593800Y419099D01*
X607400Y420000D01*
X607400Y422700D01*
X600300Y423500D01*
X600300Y471700D01*
X600500Y484200D01*
G37*
G36*
X673100Y483500D02*
G01*
X670860Y483120D01*
X669040Y482040D01*
X667840Y480379D01*
X667400Y478200D01*
X667840Y476000D01*
X669040Y474240D01*
X670860Y473100D01*
X673100Y472700D01*
X675240Y473100D01*
X677020Y474260D01*
X678240Y476000D01*
X678700Y478200D01*
X678240Y480379D01*
X677020Y482040D01*
X675240Y483120D01*
G37*
G36*
X964500Y480000D02*
G01*
X962460Y479920D01*
X960420Y479660D01*
X958420Y479240D01*
X956460Y478660D01*
X954539Y477920D01*
X952660Y477020D01*
X950879Y475959D01*
X949140Y474760D01*
X947500Y473400D01*
X945960Y471900D01*
X944520Y470260D01*
X943180Y468459D01*
X941979Y466540D01*
X940900Y464480D01*
X939960Y462280D01*
X939180Y459960D01*
X938540Y457500D01*
X938080Y454920D01*
X937800Y452220D01*
X937700Y449400D01*
X946800Y449400D01*
X946860Y451960D01*
X947060Y454480D01*
X947380Y456960D01*
X947860Y459360D01*
X948439Y461680D01*
X949180Y463900D01*
X950060Y465980D01*
X951080Y467939D01*
X952240Y469720D01*
X953540Y471340D01*
X954980Y472740D01*
X956580Y473940D01*
X958340Y474900D01*
X960240Y475620D01*
X962300Y476040D01*
X964500Y476200D01*
X966700Y476040D01*
X968760Y475620D01*
X970639Y474900D01*
X972380Y473940D01*
X973960Y472740D01*
X975400Y471340D01*
X976680Y469720D01*
X977820Y467939D01*
X978820Y465980D01*
X979680Y463900D01*
X980400Y461680D01*
X980980Y459360D01*
X981440Y456960D01*
X981740Y454480D01*
X981940Y451960D01*
X982000Y449400D01*
X981940Y446800D01*
X981740Y444260D01*
X981440Y441760D01*
X980980Y439340D01*
X980400Y437000D01*
X979680Y434780D01*
X978820Y432680D01*
X977820Y430740D01*
X976680Y428960D01*
X975400Y427340D01*
X973960Y425940D01*
X972380Y424739D01*
X970639Y423800D01*
X968760Y423080D01*
X966700Y422640D01*
X964500Y422500D01*
X962300Y422640D01*
X960240Y423080D01*
X958340Y423800D01*
X956580Y424739D01*
X954980Y425940D01*
X953540Y427340D01*
X952240Y428960D01*
X951080Y430740D01*
X950060Y432680D01*
X949180Y434780D01*
X948439Y437000D01*
X947840Y439340D01*
X947380Y441760D01*
X947060Y444260D01*
X946860Y446800D01*
X946800Y449400D01*
X937700Y449400D01*
X937800Y446460D01*
X938080Y443680D01*
X938540Y441040D01*
X939160Y438519D01*
X939940Y436160D01*
X940879Y433940D01*
X941960Y431880D01*
X943160Y429960D01*
X944479Y428180D01*
X945920Y426560D01*
X947460Y425080D01*
X949100Y423740D01*
X950819Y422580D01*
X952620Y421560D01*
X954500Y420680D01*
X956420Y419980D01*
X958379Y419420D01*
X960400Y419020D01*
X962440Y418780D01*
X964500Y418700D01*
X966560Y418780D01*
X968600Y419040D01*
X970600Y419460D01*
X972580Y420040D01*
X974500Y420780D01*
X976360Y421680D01*
X978139Y422740D01*
X979860Y423940D01*
X981480Y425300D01*
X983020Y426820D01*
X984460Y428459D01*
X985780Y430260D01*
X986979Y432180D01*
X988040Y434260D01*
X988960Y436460D01*
X989740Y438800D01*
X990360Y441260D01*
X990819Y443860D01*
X991100Y446560D01*
X991200Y449400D01*
X991100Y452280D01*
X990819Y455040D01*
X990360Y457660D01*
X989720Y460140D01*
X988940Y462500D01*
X988000Y464700D01*
X986919Y466760D01*
X985720Y468680D01*
X984380Y470460D01*
X982960Y472080D01*
X981400Y473560D01*
X979780Y474900D01*
X978060Y476079D01*
X976260Y477120D01*
X974400Y477980D01*
X972500Y478700D01*
X970540Y479280D01*
X968560Y479680D01*
X966540Y479920D01*
G37*
G36*
X1094800Y479799D02*
G01*
X1091840Y479640D01*
X1089040Y479120D01*
X1086480Y478260D01*
X1084160Y477040D01*
X1082160Y475480D01*
X1080500Y473560D01*
X1079240Y471260D01*
X1078400Y468600D01*
X1079100Y467140D01*
X1080020Y466180D01*
X1081120Y465660D01*
X1082400Y465500D01*
X1084220Y465820D01*
X1085580Y466800D01*
X1086600Y468459D01*
X1087400Y470800D01*
X1088800Y475900D01*
X1091100Y476300D01*
X1093100Y476400D01*
X1095540Y476220D01*
X1097720Y475660D01*
X1099580Y474739D01*
X1101140Y473480D01*
X1102380Y471880D01*
X1103260Y469940D01*
X1103820Y467680D01*
X1104000Y465100D01*
X1103760Y462340D01*
X1103100Y459900D01*
X1102000Y457819D01*
X1100520Y456079D01*
X1098680Y454700D01*
X1096500Y453700D01*
X1093980Y453100D01*
X1091200Y452900D01*
X1087700Y452900D01*
X1087700Y449000D01*
X1091900Y449000D01*
X1095060Y448760D01*
X1097820Y448060D01*
X1100160Y446920D01*
X1102080Y445379D01*
X1103560Y443459D01*
X1104640Y441200D01*
X1105280Y438600D01*
X1105500Y435700D01*
X1105280Y432860D01*
X1104620Y430260D01*
X1103540Y427960D01*
X1102040Y425980D01*
X1100160Y424380D01*
X1097900Y423200D01*
X1095280Y422460D01*
X1092300Y422200D01*
X1089820Y422360D01*
X1087200Y422900D01*
X1085800Y428100D01*
X1085000Y430680D01*
X1084040Y432460D01*
X1082740Y433480D01*
X1081000Y433800D01*
X1079720Y433640D01*
X1078560Y433160D01*
X1077580Y432280D01*
X1076800Y431000D01*
X1077620Y428060D01*
X1078860Y425560D01*
X1080500Y423480D01*
X1082500Y421800D01*
X1084840Y420520D01*
X1087480Y419600D01*
X1090420Y419080D01*
X1093600Y418900D01*
X1096420Y419040D01*
X1099080Y419460D01*
X1101560Y420140D01*
X1103840Y421079D01*
X1105900Y422220D01*
X1107740Y423600D01*
X1109360Y425180D01*
X1110700Y426920D01*
X1111760Y428860D01*
X1112560Y430940D01*
X1113040Y433160D01*
X1113200Y435500D01*
X1113100Y437440D01*
X1112820Y439260D01*
X1112340Y441000D01*
X1111680Y442620D01*
X1110800Y444140D01*
X1109720Y445540D01*
X1108440Y446800D01*
X1106960Y447939D01*
X1105260Y448920D01*
X1103360Y449780D01*
X1101240Y450460D01*
X1098900Y451000D01*
X1101720Y452040D01*
X1104220Y453340D01*
X1106340Y454880D01*
X1108100Y456640D01*
X1109480Y458600D01*
X1110480Y460740D01*
X1111100Y463060D01*
X1111300Y465500D01*
X1111160Y467580D01*
X1110780Y469540D01*
X1110140Y471360D01*
X1109260Y473020D01*
X1108160Y474540D01*
X1106840Y475880D01*
X1105300Y477040D01*
X1103560Y478000D01*
X1101640Y478780D01*
X1099520Y479340D01*
X1097240Y479680D01*
G37*
G36*
X491400Y479000D02*
G01*
X479147Y442900D01*
X482800Y442900D01*
X491700Y470100D01*
X500800Y442900D01*
X479147Y442900D01*
X472800Y424200D01*
X465600Y423000D01*
X465600Y420000D01*
X485200Y420000D01*
X485200Y423000D01*
X476599Y424200D01*
X481599Y439400D01*
X502000Y439400D01*
X507100Y424099D01*
X498400Y423000D01*
X498400Y420000D01*
X522299Y420000D01*
X522299Y423000D01*
X515400Y423800D01*
X496500Y479000D01*
G37*
G36*
X1019700Y478600D02*
G01*
X1019700Y475600D01*
X1027900Y474700D01*
X1028000Y450700D01*
X1036000Y450700D01*
X1036040Y466420D01*
X1036200Y475200D01*
X1043800Y475200D01*
X1047020Y475000D01*
X1049780Y474420D01*
X1052080Y473440D01*
X1053960Y472120D01*
X1055380Y470420D01*
X1056400Y468400D01*
X1057000Y466060D01*
X1057200Y463400D01*
X1056980Y460760D01*
X1056320Y458340D01*
X1055220Y456180D01*
X1053680Y454320D01*
X1051720Y452800D01*
X1049320Y451659D01*
X1046480Y450940D01*
X1043199Y450700D01*
X1028000Y450700D01*
X1027900Y423900D01*
X1019700Y423000D01*
X1019700Y420000D01*
X1044400Y420000D01*
X1044400Y423000D01*
X1036200Y424000D01*
X1036020Y435439D01*
X1036000Y447400D01*
X1040699Y447400D01*
X1043240Y447320D01*
X1045380Y447040D01*
X1047200Y446520D01*
X1048720Y445700D01*
X1049960Y444540D01*
X1051000Y443020D01*
X1051880Y441040D01*
X1052600Y438600D01*
X1056200Y424700D01*
X1057240Y422100D01*
X1058960Y420360D01*
X1061520Y419400D01*
X1065100Y419099D01*
X1067040Y419159D01*
X1068780Y419320D01*
X1070340Y419600D01*
X1071700Y420000D01*
X1071700Y423000D01*
X1064900Y423700D01*
X1060800Y437400D01*
X1060000Y439780D01*
X1059100Y441840D01*
X1058080Y443579D01*
X1056920Y445060D01*
X1055580Y446260D01*
X1054060Y447220D01*
X1052340Y447960D01*
X1050400Y448500D01*
X1052800Y449020D01*
X1054980Y449700D01*
X1056960Y450560D01*
X1058740Y451560D01*
X1060300Y452700D01*
X1061640Y453960D01*
X1062800Y455319D01*
X1063740Y456780D01*
X1064460Y458320D01*
X1064980Y459920D01*
X1065300Y461599D01*
X1065400Y463300D01*
X1065240Y465640D01*
X1064760Y467800D01*
X1063980Y469780D01*
X1062880Y471580D01*
X1061500Y473180D01*
X1059840Y474580D01*
X1057900Y475800D01*
X1055680Y476780D01*
X1053200Y477580D01*
X1050480Y478140D01*
X1047500Y478480D01*
X1044300Y478600D01*
G37*
G36*
X874400Y478600D02*
G01*
X874400Y475600D01*
X880699Y474799D01*
X881600Y473700D01*
X881400Y424099D01*
X874000Y423000D01*
X874000Y420000D01*
X894800Y420000D01*
X894800Y423000D01*
X885400Y424200D01*
X885200Y468600D01*
X921000Y419400D01*
X924100Y419400D01*
X924200Y474600D01*
X931600Y475600D01*
X931600Y478600D01*
X910800Y478600D01*
X910800Y475600D01*
X920200Y474500D01*
X920400Y433800D01*
X888000Y478600D01*
G37*
G36*
X811200Y478600D02*
G01*
X811200Y475600D01*
X818500Y474799D01*
X818600Y460260D01*
X818600Y442299D01*
X818700Y439280D01*
X819000Y436500D01*
X819479Y433920D01*
X820140Y431560D01*
X820980Y429420D01*
X822000Y427500D01*
X823160Y425760D01*
X824500Y424240D01*
X825980Y422900D01*
X827600Y421760D01*
X829360Y420800D01*
X831260Y420040D01*
X833280Y419440D01*
X835400Y419020D01*
X837660Y418780D01*
X840000Y418700D01*
X842200Y418780D01*
X844320Y419040D01*
X846340Y419480D01*
X848259Y420100D01*
X850080Y420900D01*
X851760Y421900D01*
X853319Y423100D01*
X854760Y424500D01*
X856040Y426120D01*
X857180Y427939D01*
X858160Y430000D01*
X858980Y432280D01*
X859640Y434799D01*
X860120Y437560D01*
X860400Y440560D01*
X860500Y443800D01*
X860600Y474600D01*
X868400Y475600D01*
X868400Y478600D01*
X847500Y478600D01*
X847500Y475600D01*
X856700Y474400D01*
X856800Y445800D01*
X856700Y442100D01*
X856360Y438800D01*
X855819Y435880D01*
X855080Y433320D01*
X854100Y431120D01*
X852920Y429240D01*
X851540Y427720D01*
X849920Y426480D01*
X848100Y425560D01*
X846080Y424900D01*
X843840Y424520D01*
X841400Y424400D01*
X839220Y424500D01*
X837180Y424840D01*
X835300Y425400D01*
X833560Y426220D01*
X832000Y427320D01*
X830620Y428720D01*
X829440Y430439D01*
X828439Y432480D01*
X827640Y434860D01*
X827080Y437620D01*
X826720Y440760D01*
X826600Y444300D01*
X826640Y466040D01*
X826800Y474600D01*
X835600Y475600D01*
X835600Y478600D01*
G37*
G36*
X763100Y462700D02*
G01*
X761180Y462620D01*
X759280Y462340D01*
X757420Y461900D01*
X755620Y461280D01*
X753880Y460500D01*
X752220Y459540D01*
X750639Y458400D01*
X749180Y457080D01*
X747840Y455620D01*
X746640Y453960D01*
X745580Y452160D01*
X744700Y450180D01*
X743980Y448020D01*
X743439Y445720D01*
X743120Y443240D01*
X743000Y440600D01*
X751000Y440600D01*
X751100Y443540D01*
X751360Y446220D01*
X751800Y448680D01*
X752420Y450900D01*
X753220Y452860D01*
X754160Y454580D01*
X755280Y456040D01*
X756540Y457239D01*
X757960Y458180D01*
X759539Y458860D01*
X761240Y459260D01*
X763100Y459400D01*
X764940Y459260D01*
X766640Y458860D01*
X768199Y458180D01*
X769620Y457239D01*
X770879Y456040D01*
X772000Y454580D01*
X772960Y452860D01*
X773760Y450900D01*
X774380Y448680D01*
X774840Y446220D01*
X775100Y443540D01*
X775200Y440600D01*
X775100Y437720D01*
X774840Y435080D01*
X774380Y432660D01*
X773760Y430500D01*
X772960Y428579D01*
X772000Y426900D01*
X770879Y425480D01*
X769620Y424300D01*
X768199Y423380D01*
X766640Y422720D01*
X764940Y422340D01*
X763100Y422200D01*
X761240Y422340D01*
X759539Y422720D01*
X757960Y423380D01*
X756540Y424300D01*
X755280Y425480D01*
X754160Y426900D01*
X753220Y428579D01*
X752420Y430500D01*
X751800Y432660D01*
X751360Y435080D01*
X751100Y437720D01*
X751000Y440600D01*
X743000Y440600D01*
X743120Y437980D01*
X743439Y435540D01*
X743980Y433260D01*
X744700Y431140D01*
X745580Y429180D01*
X746640Y427400D01*
X747840Y425800D01*
X749180Y424340D01*
X750639Y423080D01*
X752220Y421960D01*
X753880Y421040D01*
X755620Y420260D01*
X757420Y419660D01*
X759280Y419240D01*
X761180Y418980D01*
X763100Y418900D01*
X765000Y418980D01*
X766900Y419240D01*
X768740Y419660D01*
X770540Y420260D01*
X772280Y421040D01*
X773940Y421960D01*
X775520Y423080D01*
X776979Y424340D01*
X778319Y425800D01*
X779520Y427400D01*
X780600Y429180D01*
X781500Y431140D01*
X782220Y433260D01*
X782760Y435540D01*
X783080Y437980D01*
X783199Y440600D01*
X783080Y443260D01*
X782760Y445740D01*
X782220Y448060D01*
X781480Y450220D01*
X780580Y452200D01*
X779500Y454000D01*
X778280Y455660D01*
X776940Y457120D01*
X775460Y458420D01*
X773900Y459560D01*
X772240Y460520D01*
X770500Y461300D01*
X768700Y461920D01*
X766860Y462340D01*
X765000Y462620D01*
G37*
G36*
X718900Y462700D02*
G01*
X716860Y462560D01*
X714780Y462140D01*
X712720Y461460D01*
X710680Y460520D01*
X708680Y459360D01*
X706740Y457980D01*
X704920Y456380D01*
X703199Y454600D01*
X702400Y461800D01*
X701200Y462600D01*
X688900Y457800D01*
X688900Y455200D01*
X695900Y454500D01*
X696100Y443000D01*
X696000Y423700D01*
X689500Y422700D01*
X689500Y420000D01*
X709599Y420000D01*
X709599Y422700D01*
X703600Y423700D01*
X703400Y438400D01*
X703400Y451400D01*
X706700Y454040D01*
X709760Y455840D01*
X712700Y456880D01*
X715600Y457200D01*
X717400Y457060D01*
X718940Y456659D01*
X720200Y455920D01*
X721200Y454860D01*
X721960Y453420D01*
X722500Y451580D01*
X722800Y449320D01*
X722900Y446599D01*
X722800Y423700D01*
X716300Y422700D01*
X716300Y420000D01*
X736400Y420000D01*
X736400Y422700D01*
X730300Y423700D01*
X730100Y438400D01*
X730100Y446800D01*
X729920Y450720D01*
X729400Y454060D01*
X728540Y456800D01*
X727320Y458980D01*
X725740Y460640D01*
X723820Y461800D01*
X721540Y462480D01*
G37*
G36*
X553200Y462700D02*
G01*
X551400Y462500D01*
X549580Y461940D01*
X547800Y461000D01*
X546080Y459700D01*
X544460Y458080D01*
X542940Y456120D01*
X541580Y453860D01*
X540400Y451300D01*
X539600Y461800D01*
X538400Y462600D01*
X526000Y457800D01*
X526000Y455200D01*
X533000Y454500D01*
X533180Y449280D01*
X533100Y423700D01*
X526700Y422700D01*
X526700Y420000D01*
X548000Y420000D01*
X548000Y422700D01*
X540700Y423800D01*
X540500Y438400D01*
X540500Y445300D01*
X541900Y448960D01*
X543580Y452080D01*
X545640Y454700D01*
X548100Y456900D01*
X550420Y454880D01*
X551720Y454080D01*
X553100Y453579D01*
X554600Y453400D01*
X556860Y453840D01*
X558420Y455040D01*
X559320Y456940D01*
X559600Y459400D01*
X558520Y460800D01*
X557040Y461840D01*
X555220Y462480D01*
G37*
G36*
X675699Y462600D02*
G01*
X662300Y457900D01*
X662300Y455300D01*
X669400Y454600D01*
X669580Y449219D01*
X669500Y423700D01*
X662800Y422700D01*
X662800Y420000D01*
X682900Y420000D01*
X682900Y422700D01*
X676900Y423700D01*
X676820Y431200D01*
X676800Y450200D01*
X676900Y461800D01*
G37*
G36*
X623300Y462200D02*
G01*
X610400Y460900D01*
X610400Y458300D01*
X616800Y457000D01*
X616500Y434700D01*
X616680Y430660D01*
X617240Y427299D01*
X618200Y424560D01*
X619520Y422420D01*
X621180Y420820D01*
X623160Y419720D01*
X625440Y419099D01*
X628000Y418900D01*
X630060Y419040D01*
X632120Y419420D01*
X634160Y420080D01*
X636180Y420980D01*
X638140Y422160D01*
X640040Y423579D01*
X641860Y425260D01*
X643600Y427200D01*
X644400Y419300D01*
X656500Y420000D01*
X656500Y422600D01*
X650500Y423600D01*
X650500Y448900D01*
X650800Y461300D01*
X650000Y462200D01*
X637300Y460800D01*
X637300Y458200D01*
X643600Y457000D01*
X643300Y430300D01*
X640380Y427800D01*
X637340Y426019D01*
X634240Y424960D01*
X631100Y424600D01*
X629400Y424739D01*
X627940Y425140D01*
X626680Y425860D01*
X625640Y426920D01*
X624840Y428360D01*
X624260Y430160D01*
X623920Y432400D01*
X623800Y435100D01*
X623800Y448900D01*
X624200Y461300D01*
G37*
G36*
X1626300Y364799D02*
G01*
X1612800Y361100D01*
X1612800Y358500D01*
X1619900Y357800D01*
X1619880Y314760D01*
X1619700Y303700D01*
X1612800Y302700D01*
X1612800Y300000D01*
X1634300Y300000D01*
X1634300Y302700D01*
X1627200Y303700D01*
X1627100Y318400D01*
X1627100Y351700D01*
X1627500Y364200D01*
G37*
G36*
X1460000Y364799D02*
G01*
X1446800Y361100D01*
X1446800Y358500D01*
X1453899Y357800D01*
X1453880Y315000D01*
X1453700Y303700D01*
X1447200Y302700D01*
X1447200Y300000D01*
X1467300Y300000D01*
X1467300Y302700D01*
X1461200Y303700D01*
X1461100Y331400D01*
X1464520Y334159D01*
X1467660Y335959D01*
X1470640Y336920D01*
X1473600Y337200D01*
X1475360Y337080D01*
X1476860Y336659D01*
X1478140Y335959D01*
X1479180Y334900D01*
X1479980Y333459D01*
X1480540Y331640D01*
X1480880Y329360D01*
X1481000Y326599D01*
X1480980Y314960D01*
X1480800Y303700D01*
X1474300Y302700D01*
X1474300Y300000D01*
X1494400Y300000D01*
X1494400Y302700D01*
X1488400Y303700D01*
X1488200Y318400D01*
X1488200Y326700D01*
X1488020Y330680D01*
X1487480Y334060D01*
X1486600Y336820D01*
X1485360Y339020D01*
X1483779Y340660D01*
X1481819Y341820D01*
X1479540Y342480D01*
X1476900Y342700D01*
X1474760Y342540D01*
X1472620Y342100D01*
X1470500Y341400D01*
X1468420Y340439D01*
X1466399Y339240D01*
X1464460Y337840D01*
X1462620Y336260D01*
X1460900Y334500D01*
X1460900Y351700D01*
X1461200Y364200D01*
G37*
G36*
X1352000Y364799D02*
G01*
X1338700Y361100D01*
X1338700Y358500D01*
X1345800Y357800D01*
X1345780Y315000D01*
X1345600Y303700D01*
X1339100Y302700D01*
X1339100Y300000D01*
X1359199Y300000D01*
X1359199Y302700D01*
X1353200Y303700D01*
X1353000Y318400D01*
X1353000Y331400D01*
X1356440Y334159D01*
X1359600Y335959D01*
X1362620Y336920D01*
X1365600Y337200D01*
X1367320Y337080D01*
X1368800Y336659D01*
X1370060Y335959D01*
X1371080Y334900D01*
X1371879Y333459D01*
X1372440Y331640D01*
X1372780Y329360D01*
X1372900Y326599D01*
X1372800Y303700D01*
X1366200Y302700D01*
X1366200Y300000D01*
X1386399Y300000D01*
X1386399Y302700D01*
X1380300Y303700D01*
X1380100Y318400D01*
X1380100Y326700D01*
X1379920Y330680D01*
X1379379Y334060D01*
X1378500Y336820D01*
X1377260Y339020D01*
X1375680Y340660D01*
X1373720Y341820D01*
X1371440Y342480D01*
X1368800Y342700D01*
X1366680Y342540D01*
X1364560Y342100D01*
X1362440Y341400D01*
X1360340Y340439D01*
X1358320Y339240D01*
X1356360Y337840D01*
X1354520Y336260D01*
X1352800Y334500D01*
X1352800Y351700D01*
X1353100Y364200D01*
G37*
G36*
X958400Y364799D02*
G01*
X945200Y361100D01*
X945200Y358500D01*
X952300Y357800D01*
X952280Y315000D01*
X952193Y308200D01*
X959500Y308200D01*
X959500Y333300D01*
X962840Y335940D01*
X965699Y337440D01*
X968199Y338140D01*
X970400Y338300D01*
X972039Y338180D01*
X973580Y337800D01*
X975020Y337180D01*
X976360Y336320D01*
X977580Y335200D01*
X978660Y333840D01*
X979599Y332239D01*
X980400Y330379D01*
X981040Y328300D01*
X981520Y325980D01*
X981800Y323400D01*
X981900Y320600D01*
X981780Y317680D01*
X981460Y315060D01*
X980920Y312720D01*
X980220Y310680D01*
X979340Y308900D01*
X978319Y307380D01*
X977159Y306140D01*
X975879Y305120D01*
X974520Y304360D01*
X973060Y303820D01*
X971560Y303500D01*
X970000Y303400D01*
X967480Y303660D01*
X964860Y304480D01*
X962200Y305980D01*
X959500Y308200D01*
X952193Y308200D01*
X952099Y303700D01*
X945600Y302700D01*
X945600Y300000D01*
X958600Y299100D01*
X959300Y305100D01*
X962300Y302060D01*
X965420Y300160D01*
X968540Y299180D01*
X971600Y298900D01*
X973540Y299000D01*
X975420Y299320D01*
X977200Y299820D01*
X978880Y300520D01*
X980480Y301420D01*
X981960Y302480D01*
X983319Y303700D01*
X984580Y305100D01*
X985699Y306640D01*
X986700Y308340D01*
X987560Y310180D01*
X988280Y312140D01*
X988840Y314240D01*
X989260Y316460D01*
X989520Y318780D01*
X989599Y321200D01*
X989460Y324460D01*
X989020Y327480D01*
X988319Y330260D01*
X987360Y332780D01*
X986160Y335020D01*
X984760Y337020D01*
X983160Y338720D01*
X981380Y340120D01*
X979440Y341240D01*
X977340Y342040D01*
X975120Y342540D01*
X972800Y342700D01*
X971080Y342600D01*
X969340Y342320D01*
X967620Y341820D01*
X965900Y341140D01*
X964200Y340240D01*
X962540Y339120D01*
X960900Y337780D01*
X959300Y336200D01*
X959300Y351700D01*
X959599Y364200D01*
G37*
G36*
X854500Y364799D02*
G01*
X841200Y361100D01*
X841200Y358500D01*
X848400Y357800D01*
X848379Y315000D01*
X848199Y303700D01*
X841600Y302700D01*
X841600Y300000D01*
X861800Y300000D01*
X861800Y302700D01*
X855699Y303700D01*
X855620Y311200D01*
X855600Y331400D01*
X859020Y334159D01*
X862159Y335959D01*
X865140Y336920D01*
X868100Y337200D01*
X869860Y337080D01*
X871360Y336659D01*
X872640Y335959D01*
X873680Y334900D01*
X874479Y333459D01*
X875040Y331640D01*
X875380Y329360D01*
X875500Y326599D01*
X875480Y314960D01*
X875300Y303700D01*
X868800Y302700D01*
X868800Y300000D01*
X888900Y300000D01*
X888900Y302700D01*
X882800Y303700D01*
X882700Y326700D01*
X882520Y330680D01*
X881979Y334060D01*
X881080Y336820D01*
X879820Y339020D01*
X878220Y340660D01*
X876280Y341820D01*
X874020Y342480D01*
X871400Y342700D01*
X869260Y342540D01*
X867120Y342100D01*
X865000Y341400D01*
X862920Y340439D01*
X860900Y339240D01*
X858960Y337840D01*
X857120Y336260D01*
X855400Y334500D01*
X855400Y351700D01*
X855600Y364200D01*
G37*
G36*
X480700Y364799D02*
G01*
X467400Y361100D01*
X467400Y358500D01*
X474500Y357800D01*
X474400Y303700D01*
X467800Y302700D01*
X467800Y300000D01*
X488000Y300000D01*
X488000Y302700D01*
X481900Y303700D01*
X481700Y318400D01*
X481700Y331400D01*
X485140Y334159D01*
X488300Y335959D01*
X491320Y336920D01*
X494300Y337200D01*
X496019Y337080D01*
X497500Y336659D01*
X498760Y335959D01*
X499780Y334900D01*
X500580Y333459D01*
X501140Y331640D01*
X501480Y329360D01*
X501599Y326599D01*
X501500Y303700D01*
X494900Y302700D01*
X494900Y300000D01*
X515100Y300000D01*
X515100Y302700D01*
X509000Y303700D01*
X508800Y318400D01*
X508800Y326700D01*
X508620Y330680D01*
X508100Y334060D01*
X507200Y336820D01*
X505980Y339020D01*
X504400Y340660D01*
X502480Y341820D01*
X500200Y342480D01*
X497600Y342700D01*
X495460Y342540D01*
X493320Y342100D01*
X491200Y341400D01*
X489120Y340439D01*
X487100Y339240D01*
X485160Y337840D01*
X483320Y336260D01*
X481599Y334500D01*
X481599Y351700D01*
X481800Y364200D01*
G37*
G36*
X1278800Y363500D02*
G01*
X1276580Y363120D01*
X1274800Y362040D01*
X1273620Y360379D01*
X1273200Y358200D01*
X1273620Y356000D01*
X1274800Y354240D01*
X1276580Y353100D01*
X1278800Y352700D01*
X1280980Y353100D01*
X1282760Y354260D01*
X1283959Y356000D01*
X1284400Y358200D01*
X1283959Y360379D01*
X1282760Y362040D01*
X1280980Y363120D01*
G37*
G36*
X797200Y363500D02*
G01*
X794980Y363120D01*
X793199Y362040D01*
X792020Y360379D01*
X791600Y358200D01*
X792020Y356000D01*
X793199Y354240D01*
X794980Y353100D01*
X797200Y352700D01*
X799380Y353100D01*
X801160Y354260D01*
X802360Y356000D01*
X802800Y358200D01*
X802360Y360379D01*
X801160Y362040D01*
X799380Y363120D01*
G37*
G36*
X1737700Y362200D02*
G01*
X1714199Y286000D01*
X1719000Y286000D01*
X1742400Y362200D01*
G37*
G36*
X1209000Y362200D02*
G01*
X1185500Y286000D01*
X1190300Y286000D01*
X1213600Y362200D01*
G37*
G36*
X736400Y362200D02*
G01*
X712800Y286000D01*
X717600Y286000D01*
X741000Y362200D01*
G37*
G36*
X714700Y362200D02*
G01*
X691200Y286000D01*
X696000Y286000D01*
X719300Y362200D01*
G37*
G36*
X1886600Y353600D02*
G01*
X1884300Y341800D01*
X1876399Y340800D01*
X1876399Y337700D01*
X1883899Y337700D01*
X1883800Y309100D01*
X1883980Y306660D01*
X1884480Y304560D01*
X1885300Y302800D01*
X1886420Y301380D01*
X1887840Y300280D01*
X1889540Y299500D01*
X1891500Y299060D01*
X1893700Y298900D01*
X1896860Y299200D01*
X1899620Y300100D01*
X1901960Y301520D01*
X1903899Y303400D01*
X1902100Y305400D01*
X1900480Y304300D01*
X1899019Y303520D01*
X1897600Y303060D01*
X1896100Y302900D01*
X1894019Y303260D01*
X1892440Y304420D01*
X1891440Y306440D01*
X1891100Y309400D01*
X1891100Y337700D01*
X1902900Y337700D01*
X1902900Y341500D01*
X1891200Y341500D01*
X1891600Y353600D01*
G37*
G36*
X1399800Y353600D02*
G01*
X1397500Y341800D01*
X1389600Y340800D01*
X1389600Y337700D01*
X1397100Y337700D01*
X1397000Y309100D01*
X1397180Y306660D01*
X1397680Y304560D01*
X1398500Y302800D01*
X1399620Y301380D01*
X1401040Y300280D01*
X1402740Y299500D01*
X1404700Y299060D01*
X1406900Y298900D01*
X1410060Y299200D01*
X1412820Y300100D01*
X1415160Y301520D01*
X1417100Y303400D01*
X1415300Y305400D01*
X1413680Y304300D01*
X1412220Y303520D01*
X1410800Y303060D01*
X1409300Y302900D01*
X1407220Y303260D01*
X1405640Y304420D01*
X1404640Y306440D01*
X1404300Y309400D01*
X1404300Y337700D01*
X1416100Y337700D01*
X1416100Y341500D01*
X1404400Y341500D01*
X1404800Y353600D01*
G37*
G36*
X821200Y353600D02*
G01*
X818800Y341800D01*
X811000Y340800D01*
X811000Y337700D01*
X818400Y337700D01*
X818400Y309100D01*
X818560Y306660D01*
X819060Y304560D01*
X819880Y302800D01*
X820980Y301380D01*
X822400Y300280D01*
X824100Y299500D01*
X826060Y299060D01*
X828300Y298900D01*
X831460Y299200D01*
X834220Y300100D01*
X836520Y301520D01*
X838400Y303400D01*
X836700Y305400D01*
X835080Y304300D01*
X833620Y303520D01*
X832200Y303060D01*
X830699Y302900D01*
X828600Y303260D01*
X826979Y304420D01*
X825960Y306440D01*
X825600Y309400D01*
X825600Y337700D01*
X837500Y337700D01*
X837500Y341500D01*
X825699Y341500D01*
X826200Y353600D01*
G37*
G36*
X557800Y353600D02*
G01*
X555500Y341800D01*
X547600Y340800D01*
X547600Y337700D01*
X555100Y337700D01*
X555000Y309100D01*
X555180Y306660D01*
X555680Y304560D01*
X556500Y302800D01*
X557620Y301380D01*
X559040Y300280D01*
X560740Y299500D01*
X562700Y299060D01*
X564900Y298900D01*
X568060Y299200D01*
X570820Y300100D01*
X573160Y301520D01*
X575100Y303400D01*
X573300Y305400D01*
X571680Y304300D01*
X570220Y303520D01*
X568800Y303060D01*
X567300Y302900D01*
X565220Y303260D01*
X563640Y304420D01*
X562640Y306440D01*
X562300Y309400D01*
X562300Y337700D01*
X574100Y337700D01*
X574100Y341500D01*
X562400Y341500D01*
X562800Y353600D01*
G37*
G36*
X528500Y353600D02*
G01*
X526200Y341800D01*
X518400Y340800D01*
X518400Y337700D01*
X525800Y337700D01*
X525700Y309100D01*
X525880Y306660D01*
X526380Y304560D01*
X527200Y302800D01*
X528320Y301380D01*
X529740Y300280D01*
X531440Y299500D01*
X533400Y299060D01*
X535600Y298900D01*
X538780Y299200D01*
X541560Y300100D01*
X543920Y301520D01*
X545800Y303400D01*
X544000Y305400D01*
X542380Y304300D01*
X540920Y303520D01*
X539500Y303060D01*
X538000Y302900D01*
X535920Y303260D01*
X534340Y304420D01*
X533340Y306440D01*
X533000Y309400D01*
X533000Y337700D01*
X544800Y337700D01*
X544800Y341500D01*
X533100Y341500D01*
X533600Y353600D01*
G37*
G36*
X677600Y343100D02*
G01*
X675320Y342620D01*
X673460Y341320D01*
X672180Y339380D01*
X671700Y337000D01*
X672180Y334780D01*
X673460Y332939D01*
X675320Y331680D01*
X677600Y331200D01*
X679980Y331680D01*
X681880Y332939D01*
X683139Y334780D01*
X683600Y337000D01*
X683139Y339380D01*
X681880Y341320D01*
X679980Y342620D01*
G37*
G36*
X2111300Y342700D02*
G01*
X2109300Y342560D01*
X2107300Y342140D01*
X2105300Y341460D01*
X2103320Y340540D01*
X2101380Y339380D01*
X2099500Y338020D01*
X2097700Y336460D01*
X2096000Y334700D01*
X2095300Y341800D01*
X2094100Y342600D01*
X2081800Y337800D01*
X2081800Y335200D01*
X2088800Y334500D01*
X2088980Y329280D01*
X2088940Y311200D01*
X2088800Y303700D01*
X2082400Y302700D01*
X2082400Y300000D01*
X2102500Y300000D01*
X2102500Y302700D01*
X2096399Y303700D01*
X2096300Y331400D01*
X2099500Y333980D01*
X2102440Y335740D01*
X2105280Y336780D01*
X2108200Y337100D01*
X2109940Y336980D01*
X2111440Y336560D01*
X2112680Y335860D01*
X2113680Y334799D01*
X2114440Y333360D01*
X2114980Y331540D01*
X2115300Y329260D01*
X2115400Y326500D01*
X2115380Y314960D01*
X2115200Y303700D01*
X2108600Y302700D01*
X2108600Y300000D01*
X2128800Y300000D01*
X2128800Y302700D01*
X2122800Y303700D01*
X2122580Y311120D01*
X2122480Y328020D01*
X2122300Y331300D01*
X2125600Y333980D01*
X2128640Y335780D01*
X2131520Y336780D01*
X2134300Y337100D01*
X2136040Y336980D01*
X2137560Y336620D01*
X2138800Y335940D01*
X2139820Y334920D01*
X2140600Y333519D01*
X2141160Y331700D01*
X2141500Y329400D01*
X2141600Y326599D01*
X2141500Y303700D01*
X2135000Y302700D01*
X2135000Y300000D01*
X2155100Y300000D01*
X2155100Y302700D01*
X2148900Y303700D01*
X2148800Y327500D01*
X2148600Y331260D01*
X2148040Y334440D01*
X2147120Y337060D01*
X2145860Y339140D01*
X2144260Y340740D01*
X2142340Y341840D01*
X2140120Y342480D01*
X2137600Y342700D01*
X2135500Y342580D01*
X2133420Y342200D01*
X2131340Y341580D01*
X2129320Y340700D01*
X2127320Y339560D01*
X2125380Y338140D01*
X2123500Y336460D01*
X2121700Y334500D01*
X2121040Y336480D01*
X2120220Y338180D01*
X2119200Y339600D01*
X2118000Y340740D01*
X2116620Y341599D01*
X2115040Y342220D01*
X2113260Y342580D01*
G37*
G36*
X2060800Y342700D02*
G01*
X2057340Y342440D01*
X2054300Y341700D01*
X2051680Y340560D01*
X2049520Y339040D01*
X2047820Y337220D01*
X2046600Y335140D01*
X2045860Y332900D01*
X2045600Y330500D01*
X2045800Y328360D01*
X2046360Y326440D01*
X2047280Y324739D01*
X2048520Y323200D01*
X2050060Y321840D01*
X2051879Y320620D01*
X2053980Y319560D01*
X2056300Y318600D01*
X2060400Y317300D01*
X2064079Y315660D01*
X2066579Y313900D01*
X2068040Y311840D01*
X2068500Y309300D01*
X2068340Y307780D01*
X2067900Y306420D01*
X2067120Y305200D01*
X2066040Y304180D01*
X2064620Y303340D01*
X2062880Y302720D01*
X2060820Y302340D01*
X2058400Y302200D01*
X2056380Y302300D01*
X2054540Y302580D01*
X2052820Y303040D01*
X2051200Y303700D01*
X2049300Y311800D01*
X2045200Y311800D01*
X2045300Y302200D01*
X2048480Y300760D01*
X2051639Y299720D01*
X2054940Y299100D01*
X2058500Y298900D01*
X2061160Y299020D01*
X2063620Y299360D01*
X2065840Y299900D01*
X2067840Y300620D01*
X2069620Y301540D01*
X2071160Y302600D01*
X2072480Y303800D01*
X2073560Y305140D01*
X2074400Y306580D01*
X2075020Y308120D01*
X2075380Y309720D01*
X2075500Y311400D01*
X2075340Y313400D01*
X2074840Y315260D01*
X2073980Y317020D01*
X2072720Y318640D01*
X2071080Y320140D01*
X2069000Y321540D01*
X2066480Y322819D01*
X2063500Y324000D01*
X2060400Y325100D01*
X2056639Y326700D01*
X2054139Y328360D01*
X2052740Y330340D01*
X2052300Y332900D01*
X2052840Y335500D01*
X2054440Y337520D01*
X2057100Y338840D01*
X2060800Y339300D01*
X2062440Y339200D01*
X2064040Y338880D01*
X2065620Y338380D01*
X2067200Y337700D01*
X2068800Y330200D01*
X2072800Y330200D01*
X2073100Y339099D01*
X2070200Y340640D01*
X2067280Y341760D01*
X2064199Y342460D01*
G37*
G36*
X2018400Y342700D02*
G01*
X2015120Y342520D01*
X2012120Y341960D01*
X2009420Y341040D01*
X2007040Y339820D01*
X2005040Y338260D01*
X2003400Y336420D01*
X2002180Y334280D01*
X2001399Y331900D01*
X2001759Y330500D01*
X2002520Y329460D01*
X2003700Y328820D01*
X2005300Y328600D01*
X2006860Y328840D01*
X2008100Y329580D01*
X2009040Y330840D01*
X2009700Y332600D01*
X2011399Y338600D01*
X2013980Y339180D01*
X2016399Y339400D01*
X2018460Y339280D01*
X2020200Y338900D01*
X2021660Y338220D01*
X2022820Y337180D01*
X2023700Y335720D01*
X2024319Y333840D01*
X2024680Y331440D01*
X2024800Y328500D01*
X2024800Y325800D01*
X2022100Y325160D01*
X2016960Y323660D01*
X2014700Y322900D01*
X2010780Y321380D01*
X2007580Y319860D01*
X2005060Y318320D01*
X2003140Y316740D01*
X2001759Y315100D01*
X2000840Y313380D01*
X2000360Y311560D01*
X2000297Y310800D01*
X2007600Y310800D01*
X2007680Y312000D01*
X2007940Y313220D01*
X2008440Y314460D01*
X2009259Y315680D01*
X2010440Y316880D01*
X2012020Y318080D01*
X2014100Y319260D01*
X2016699Y320400D01*
X2020260Y321659D01*
X2024800Y323000D01*
X2024800Y309100D01*
X2021600Y306700D01*
X2019120Y305120D01*
X2016980Y304260D01*
X2014800Y304000D01*
X2011940Y304400D01*
X2009660Y305640D01*
X2008140Y307760D01*
X2007600Y310800D01*
X2000297Y310800D01*
X2000200Y309600D01*
X2000440Y307140D01*
X2001120Y304980D01*
X2002180Y303140D01*
X2003600Y301620D01*
X2005320Y300440D01*
X2007280Y299580D01*
X2009460Y299080D01*
X2011800Y298900D01*
X2013680Y299000D01*
X2015400Y299340D01*
X2017000Y299880D01*
X2018540Y300640D01*
X2020040Y301620D01*
X2021579Y302820D01*
X2024900Y305900D01*
X2025820Y303060D01*
X2027460Y300880D01*
X2029800Y299480D01*
X2032800Y299000D01*
X2034960Y299240D01*
X2036920Y300020D01*
X2038700Y301400D01*
X2040300Y303500D01*
X2038700Y305200D01*
X2037880Y304260D01*
X2037060Y303580D01*
X2036180Y303140D01*
X2035200Y303000D01*
X2033860Y303300D01*
X2032840Y304260D01*
X2032220Y306000D01*
X2032000Y308600D01*
X2032000Y327700D01*
X2031900Y330280D01*
X2031639Y332600D01*
X2031160Y334640D01*
X2030520Y336440D01*
X2029680Y337980D01*
X2028640Y339280D01*
X2027420Y340360D01*
X2026020Y341240D01*
X2024400Y341880D01*
X2022600Y342340D01*
X2020600Y342620D01*
G37*
G36*
X1973400Y342700D02*
G01*
X1971160Y342600D01*
X1969040Y342280D01*
X1967060Y341740D01*
X1965220Y341019D01*
X1963540Y340080D01*
X1962040Y338960D01*
X1960740Y337640D01*
X1959660Y336160D01*
X1958779Y334480D01*
X1958140Y332620D01*
X1957740Y330600D01*
X1957605Y328300D01*
X1964400Y328300D01*
X1964560Y330720D01*
X1965040Y332900D01*
X1965800Y334860D01*
X1966840Y336520D01*
X1968160Y337860D01*
X1969720Y338860D01*
X1971500Y339480D01*
X1973500Y339700D01*
X1975460Y339480D01*
X1977180Y338880D01*
X1978660Y337900D01*
X1979920Y336580D01*
X1980900Y334960D01*
X1981620Y333080D01*
X1982060Y330940D01*
X1982200Y328600D01*
X1982040Y326140D01*
X1981579Y323900D01*
X1980820Y321900D01*
X1979800Y320200D01*
X1978500Y318800D01*
X1976960Y317780D01*
X1975200Y317120D01*
X1973200Y316900D01*
X1971240Y317100D01*
X1969500Y317720D01*
X1968000Y318680D01*
X1966740Y320020D01*
X1965740Y321659D01*
X1965000Y323600D01*
X1964560Y325820D01*
X1964400Y328300D01*
X1957605Y328300D01*
X1957720Y326260D01*
X1958060Y324300D01*
X1958620Y322500D01*
X1959379Y320860D01*
X1960340Y319380D01*
X1961480Y318080D01*
X1962800Y316960D01*
X1964300Y316000D01*
X1961500Y313140D01*
X1959660Y310660D01*
X1958620Y308420D01*
X1958300Y306300D01*
X1958680Y303960D01*
X1959800Y302040D01*
X1961600Y300540D01*
X1964000Y299500D01*
X1960060Y297300D01*
X1957420Y294980D01*
X1955960Y292520D01*
X1955702Y291000D01*
X1962300Y291000D01*
X1962500Y293200D01*
X1963120Y295180D01*
X1964240Y297080D01*
X1965900Y299000D01*
X1967820Y298860D01*
X1980300Y298800D01*
X1984300Y298260D01*
X1986960Y296760D01*
X1988440Y294540D01*
X1988899Y291800D01*
X1988660Y289920D01*
X1987940Y288160D01*
X1986720Y286600D01*
X1985060Y285260D01*
X1982900Y284140D01*
X1980300Y283300D01*
X1977220Y282780D01*
X1973700Y282600D01*
X1971220Y282720D01*
X1969000Y283100D01*
X1967060Y283720D01*
X1965420Y284620D01*
X1964079Y285800D01*
X1963120Y287240D01*
X1962500Y288980D01*
X1962300Y291000D01*
X1955702Y291000D01*
X1955500Y289800D01*
X1955620Y288260D01*
X1955960Y286820D01*
X1956560Y285460D01*
X1957400Y284200D01*
X1958480Y283060D01*
X1959840Y282040D01*
X1961459Y281140D01*
X1963340Y280400D01*
X1965500Y279800D01*
X1967940Y279360D01*
X1970680Y279100D01*
X1973700Y279000D01*
X1977120Y279160D01*
X1980260Y279600D01*
X1983100Y280300D01*
X1985660Y281220D01*
X1987900Y282380D01*
X1989860Y283700D01*
X1991519Y285180D01*
X1992880Y286800D01*
X1993940Y288540D01*
X1994700Y290340D01*
X1995140Y292200D01*
X1995300Y294100D01*
X1995080Y296560D01*
X1994440Y298740D01*
X1993360Y300640D01*
X1991860Y302240D01*
X1989880Y303500D01*
X1987460Y304440D01*
X1984560Y305000D01*
X1981200Y305200D01*
X1969600Y305200D01*
X1966860Y305480D01*
X1965160Y306280D01*
X1964259Y307560D01*
X1964000Y309300D01*
X1964139Y310800D01*
X1964600Y312180D01*
X1965340Y313560D01*
X1966399Y315000D01*
X1968020Y314540D01*
X1969720Y314180D01*
X1971500Y313980D01*
X1973400Y313900D01*
X1975620Y314000D01*
X1977740Y314340D01*
X1979700Y314880D01*
X1981540Y315620D01*
X1983220Y316560D01*
X1984720Y317700D01*
X1986020Y319040D01*
X1987120Y320560D01*
X1988020Y322260D01*
X1988660Y324140D01*
X1989060Y326180D01*
X1989199Y328400D01*
X1989040Y330840D01*
X1988560Y333060D01*
X1987800Y335040D01*
X1986800Y336800D01*
X1995700Y336599D01*
X1995700Y341800D01*
X1994400Y342600D01*
X1984400Y339300D01*
X1982180Y340800D01*
X1979580Y341860D01*
X1976639Y342500D01*
G37*
G36*
X1928300Y342700D02*
G01*
X1926380Y342620D01*
X1924480Y342340D01*
X1922620Y341900D01*
X1920820Y341280D01*
X1919079Y340500D01*
X1917420Y339540D01*
X1915840Y338400D01*
X1914379Y337080D01*
X1913040Y335620D01*
X1911840Y333960D01*
X1910780Y332160D01*
X1909900Y330180D01*
X1909180Y328020D01*
X1908640Y325720D01*
X1908320Y323240D01*
X1908200Y320600D01*
X1916200Y320600D01*
X1916300Y323540D01*
X1916560Y326220D01*
X1917000Y328680D01*
X1917620Y330900D01*
X1918420Y332860D01*
X1919360Y334580D01*
X1920480Y336040D01*
X1921740Y337239D01*
X1923160Y338180D01*
X1924740Y338860D01*
X1926440Y339260D01*
X1928300Y339400D01*
X1930140Y339260D01*
X1931840Y338860D01*
X1933400Y338180D01*
X1934820Y337239D01*
X1936080Y336040D01*
X1937200Y334580D01*
X1938160Y332860D01*
X1938959Y330900D01*
X1939580Y328680D01*
X1940040Y326220D01*
X1940300Y323540D01*
X1940400Y320600D01*
X1940300Y317720D01*
X1940040Y315080D01*
X1939580Y312660D01*
X1938959Y310500D01*
X1938160Y308580D01*
X1937200Y306900D01*
X1936080Y305480D01*
X1934820Y304300D01*
X1933400Y303380D01*
X1931840Y302720D01*
X1930140Y302340D01*
X1928300Y302200D01*
X1926440Y302340D01*
X1924740Y302720D01*
X1923160Y303380D01*
X1921740Y304300D01*
X1920480Y305480D01*
X1919360Y306900D01*
X1918420Y308580D01*
X1917620Y310500D01*
X1917000Y312660D01*
X1916560Y315080D01*
X1916300Y317720D01*
X1916200Y320600D01*
X1908200Y320600D01*
X1908320Y317980D01*
X1908640Y315540D01*
X1909180Y313260D01*
X1909900Y311140D01*
X1910780Y309180D01*
X1911840Y307400D01*
X1913040Y305800D01*
X1914379Y304340D01*
X1915840Y303080D01*
X1917420Y301960D01*
X1919079Y301040D01*
X1920820Y300260D01*
X1922620Y299660D01*
X1924480Y299240D01*
X1926380Y298980D01*
X1928300Y298900D01*
X1930200Y298980D01*
X1932100Y299240D01*
X1933940Y299660D01*
X1935740Y300260D01*
X1937480Y301040D01*
X1939139Y301960D01*
X1940720Y303080D01*
X1942180Y304340D01*
X1943520Y305800D01*
X1944720Y307400D01*
X1945800Y309180D01*
X1946699Y311140D01*
X1947420Y313260D01*
X1947960Y315540D01*
X1948280Y317980D01*
X1948400Y320600D01*
X1948280Y323260D01*
X1947960Y325740D01*
X1947420Y328060D01*
X1946680Y330220D01*
X1945780Y332200D01*
X1944700Y334000D01*
X1943480Y335660D01*
X1942140Y337120D01*
X1940660Y338420D01*
X1939100Y339560D01*
X1937440Y340520D01*
X1935700Y341300D01*
X1933899Y341920D01*
X1932060Y342340D01*
X1930200Y342620D01*
G37*
G36*
X1852100Y342700D02*
G01*
X1850200Y342620D01*
X1848300Y342340D01*
X1846459Y341900D01*
X1844660Y341280D01*
X1842920Y340500D01*
X1841260Y339540D01*
X1839680Y338400D01*
X1838220Y337080D01*
X1836879Y335620D01*
X1835680Y333960D01*
X1834600Y332160D01*
X1833700Y330180D01*
X1832980Y328020D01*
X1832440Y325720D01*
X1832120Y323240D01*
X1832000Y320600D01*
X1840000Y320600D01*
X1840100Y323540D01*
X1840360Y326220D01*
X1840800Y328680D01*
X1841420Y330900D01*
X1842220Y332860D01*
X1843160Y334580D01*
X1844280Y336040D01*
X1845540Y337239D01*
X1846960Y338180D01*
X1848540Y338860D01*
X1850240Y339260D01*
X1852100Y339400D01*
X1853940Y339260D01*
X1855640Y338860D01*
X1857200Y338180D01*
X1858620Y337239D01*
X1859880Y336040D01*
X1861000Y334580D01*
X1861960Y332860D01*
X1862760Y330900D01*
X1863380Y328680D01*
X1863839Y326220D01*
X1864100Y323540D01*
X1864199Y320600D01*
X1864100Y317720D01*
X1863839Y315080D01*
X1863380Y312660D01*
X1862760Y310500D01*
X1861960Y308580D01*
X1861000Y306900D01*
X1859880Y305480D01*
X1858620Y304300D01*
X1857200Y303380D01*
X1855640Y302720D01*
X1853940Y302340D01*
X1852100Y302200D01*
X1850240Y302340D01*
X1848540Y302720D01*
X1846960Y303380D01*
X1845540Y304300D01*
X1844280Y305480D01*
X1843160Y306900D01*
X1842220Y308580D01*
X1841420Y310500D01*
X1840800Y312660D01*
X1840360Y315080D01*
X1840100Y317720D01*
X1840000Y320600D01*
X1832000Y320600D01*
X1832120Y317980D01*
X1832440Y315540D01*
X1832980Y313260D01*
X1833700Y311140D01*
X1834580Y309180D01*
X1835640Y307400D01*
X1836840Y305800D01*
X1838180Y304340D01*
X1839640Y303080D01*
X1841220Y301960D01*
X1842880Y301040D01*
X1844620Y300260D01*
X1846420Y299660D01*
X1848280Y299240D01*
X1850180Y298980D01*
X1852100Y298900D01*
X1854019Y298980D01*
X1855920Y299240D01*
X1857780Y299660D01*
X1859600Y300260D01*
X1861339Y301040D01*
X1863020Y301960D01*
X1864600Y303080D01*
X1866060Y304340D01*
X1867420Y305800D01*
X1868620Y307400D01*
X1869680Y309180D01*
X1870600Y311140D01*
X1871320Y313260D01*
X1871860Y315540D01*
X1872180Y317980D01*
X1872300Y320600D01*
X1872180Y323260D01*
X1871860Y325740D01*
X1871300Y328060D01*
X1870580Y330220D01*
X1869660Y332200D01*
X1868600Y334000D01*
X1867380Y335660D01*
X1866020Y337120D01*
X1864560Y338420D01*
X1862980Y339560D01*
X1861300Y340520D01*
X1859560Y341300D01*
X1857760Y341920D01*
X1855900Y342340D01*
X1854000Y342620D01*
G37*
G36*
X1822300Y342700D02*
G01*
X1820460Y342500D01*
X1818640Y341940D01*
X1816860Y341000D01*
X1815140Y339700D01*
X1813540Y338080D01*
X1812040Y336120D01*
X1810680Y333860D01*
X1809500Y331300D01*
X1808600Y341800D01*
X1807400Y342600D01*
X1795100Y337800D01*
X1795100Y335200D01*
X1802000Y334500D01*
X1802220Y329280D01*
X1802300Y323000D01*
X1802100Y303700D01*
X1795700Y302700D01*
X1795700Y300000D01*
X1817000Y300000D01*
X1817000Y302700D01*
X1809700Y303800D01*
X1809600Y325300D01*
X1810960Y328960D01*
X1812640Y332080D01*
X1814720Y334700D01*
X1817200Y336900D01*
X1818200Y335900D01*
X1819480Y334880D01*
X1820780Y334080D01*
X1822160Y333579D01*
X1823600Y333400D01*
X1825900Y333840D01*
X1827440Y335040D01*
X1828320Y336940D01*
X1828600Y339400D01*
X1827580Y340800D01*
X1826080Y341840D01*
X1824280Y342480D01*
G37*
G36*
X1771600Y342700D02*
G01*
X1769840Y342600D01*
X1768120Y342340D01*
X1766399Y341860D01*
X1764720Y341180D01*
X1763040Y340280D01*
X1761399Y339159D01*
X1759780Y337800D01*
X1758200Y336200D01*
X1757600Y341800D01*
X1756399Y342600D01*
X1744100Y337800D01*
X1744100Y335200D01*
X1751200Y334500D01*
X1751399Y323000D01*
X1751399Y307700D01*
X1758600Y307700D01*
X1758600Y333500D01*
X1761879Y335940D01*
X1764700Y337400D01*
X1767160Y338120D01*
X1769300Y338300D01*
X1770920Y338180D01*
X1772460Y337800D01*
X1773899Y337160D01*
X1775200Y336280D01*
X1776399Y335160D01*
X1777460Y333780D01*
X1778380Y332160D01*
X1779160Y330280D01*
X1779780Y328180D01*
X1780220Y325820D01*
X1780500Y323240D01*
X1780600Y320400D01*
X1780480Y317520D01*
X1780160Y314940D01*
X1779660Y312640D01*
X1778940Y310620D01*
X1778080Y308860D01*
X1777040Y307360D01*
X1775880Y306120D01*
X1774580Y305120D01*
X1773180Y304360D01*
X1771660Y303820D01*
X1770060Y303500D01*
X1768400Y303400D01*
X1765960Y303640D01*
X1763540Y304380D01*
X1761100Y305720D01*
X1758600Y307700D01*
X1751399Y307700D01*
X1751380Y293920D01*
X1751200Y282800D01*
X1744100Y281700D01*
X1744100Y279000D01*
X1766500Y279000D01*
X1766500Y281700D01*
X1758500Y282900D01*
X1758400Y304700D01*
X1761260Y301900D01*
X1764240Y300120D01*
X1767280Y299180D01*
X1770300Y298900D01*
X1772180Y299000D01*
X1774000Y299300D01*
X1775740Y299780D01*
X1777400Y300440D01*
X1778980Y301280D01*
X1780440Y302300D01*
X1781819Y303500D01*
X1783080Y304840D01*
X1784220Y306360D01*
X1785220Y308040D01*
X1786100Y309840D01*
X1786840Y311800D01*
X1787420Y313920D01*
X1787840Y316140D01*
X1788120Y318520D01*
X1788200Y321000D01*
X1788060Y324260D01*
X1787620Y327299D01*
X1786920Y330080D01*
X1785960Y332620D01*
X1784780Y334900D01*
X1783380Y336920D01*
X1781800Y338640D01*
X1780040Y340080D01*
X1778120Y341200D01*
X1776060Y342040D01*
X1773880Y342540D01*
G37*
G36*
X1711300Y342700D02*
G01*
X1709460Y342500D01*
X1707640Y341940D01*
X1705860Y341000D01*
X1704160Y339700D01*
X1702540Y338080D01*
X1701040Y336120D01*
X1699680Y333860D01*
X1698500Y331300D01*
X1697600Y341800D01*
X1696399Y342600D01*
X1684100Y337800D01*
X1684100Y335200D01*
X1691100Y334500D01*
X1691300Y323000D01*
X1691200Y303700D01*
X1684800Y302700D01*
X1684800Y300000D01*
X1706000Y300000D01*
X1706000Y302700D01*
X1698800Y303800D01*
X1698600Y318400D01*
X1698600Y325300D01*
X1700000Y328960D01*
X1701680Y332080D01*
X1703740Y334700D01*
X1706200Y336900D01*
X1707200Y335900D01*
X1708480Y334880D01*
X1709800Y334080D01*
X1711200Y333579D01*
X1712700Y333400D01*
X1714940Y333840D01*
X1716459Y335040D01*
X1717320Y336940D01*
X1717600Y339400D01*
X1716579Y340800D01*
X1715080Y341840D01*
X1713280Y342480D01*
G37*
G36*
X1660700Y342700D02*
G01*
X1658700Y342600D01*
X1656740Y342299D01*
X1654840Y341800D01*
X1653000Y341120D01*
X1651260Y340280D01*
X1649600Y339240D01*
X1648040Y338040D01*
X1646600Y336659D01*
X1645280Y335140D01*
X1644120Y333459D01*
X1643080Y331640D01*
X1642220Y329660D01*
X1641519Y327560D01*
X1641020Y325319D01*
X1640907Y324500D01*
X1648400Y324500D01*
X1648920Y328120D01*
X1649840Y331220D01*
X1651100Y333780D01*
X1652620Y335840D01*
X1654379Y337420D01*
X1656279Y338540D01*
X1658280Y339180D01*
X1660300Y339400D01*
X1662360Y339180D01*
X1664220Y338560D01*
X1665880Y337600D01*
X1667280Y336320D01*
X1668440Y334799D01*
X1669280Y333080D01*
X1669820Y331180D01*
X1670000Y329200D01*
X1669800Y327220D01*
X1669060Y325660D01*
X1667600Y324660D01*
X1665200Y324300D01*
X1648400Y324500D01*
X1640907Y324500D01*
X1640700Y322980D01*
X1640600Y320500D01*
X1640700Y318000D01*
X1640960Y315640D01*
X1641420Y313420D01*
X1642040Y311340D01*
X1642820Y309420D01*
X1643760Y307640D01*
X1644840Y306020D01*
X1646080Y304560D01*
X1647440Y303260D01*
X1648940Y302120D01*
X1650580Y301160D01*
X1652320Y300340D01*
X1654199Y299720D01*
X1656160Y299260D01*
X1658240Y299000D01*
X1660400Y298900D01*
X1663180Y299080D01*
X1665780Y299600D01*
X1668160Y300420D01*
X1670340Y301580D01*
X1672300Y303020D01*
X1674060Y304720D01*
X1675580Y306700D01*
X1676900Y308900D01*
X1675200Y310100D01*
X1672720Y307520D01*
X1669980Y305520D01*
X1666740Y304260D01*
X1662800Y303800D01*
X1660740Y303920D01*
X1658779Y304280D01*
X1656960Y304880D01*
X1655280Y305740D01*
X1653760Y306820D01*
X1652400Y308160D01*
X1651220Y309720D01*
X1650220Y311540D01*
X1649420Y313580D01*
X1648820Y315880D01*
X1648440Y318420D01*
X1648300Y321200D01*
X1676399Y321100D01*
X1676900Y323240D01*
X1677100Y326000D01*
X1676960Y328500D01*
X1676540Y330820D01*
X1675860Y332960D01*
X1674940Y334900D01*
X1673779Y336659D01*
X1672420Y338220D01*
X1670860Y339540D01*
X1669120Y340660D01*
X1667220Y341540D01*
X1665180Y342180D01*
X1663000Y342560D01*
G37*
G36*
X1521200Y342700D02*
G01*
X1519280Y342620D01*
X1517380Y342340D01*
X1515520Y341900D01*
X1513720Y341280D01*
X1511980Y340500D01*
X1510320Y339540D01*
X1508740Y338400D01*
X1507280Y337080D01*
X1505940Y335620D01*
X1504740Y333960D01*
X1503680Y332160D01*
X1502800Y330180D01*
X1502080Y328020D01*
X1501540Y325720D01*
X1501220Y323240D01*
X1501100Y320600D01*
X1509100Y320600D01*
X1509199Y323540D01*
X1509460Y326220D01*
X1509900Y328680D01*
X1510520Y330900D01*
X1511320Y332860D01*
X1512260Y334580D01*
X1513380Y336040D01*
X1514640Y337239D01*
X1516060Y338180D01*
X1517640Y338860D01*
X1519340Y339260D01*
X1521200Y339400D01*
X1523040Y339260D01*
X1524720Y338860D01*
X1526279Y338180D01*
X1527680Y337239D01*
X1528940Y336040D01*
X1530040Y334580D01*
X1531000Y332860D01*
X1531780Y330900D01*
X1532400Y328680D01*
X1532840Y326220D01*
X1533100Y323540D01*
X1533200Y320600D01*
X1533100Y317720D01*
X1532840Y315080D01*
X1532400Y312660D01*
X1531780Y310500D01*
X1531000Y308580D01*
X1530060Y306900D01*
X1528940Y305480D01*
X1527680Y304300D01*
X1526279Y303380D01*
X1524720Y302720D01*
X1523040Y302340D01*
X1521200Y302200D01*
X1519340Y302340D01*
X1517640Y302720D01*
X1516060Y303380D01*
X1514640Y304300D01*
X1513380Y305480D01*
X1512260Y306900D01*
X1511320Y308580D01*
X1510520Y310500D01*
X1509900Y312660D01*
X1509460Y315080D01*
X1509199Y317720D01*
X1509100Y320600D01*
X1501100Y320600D01*
X1501220Y317980D01*
X1501540Y315540D01*
X1502060Y313260D01*
X1502780Y311140D01*
X1503660Y309180D01*
X1504720Y307400D01*
X1505920Y305800D01*
X1507260Y304340D01*
X1508700Y303080D01*
X1510260Y301960D01*
X1511920Y301040D01*
X1513680Y300260D01*
X1515480Y299660D01*
X1517360Y299240D01*
X1519259Y298980D01*
X1521200Y298900D01*
X1523100Y298980D01*
X1525000Y299240D01*
X1526840Y299660D01*
X1528640Y300260D01*
X1530380Y301040D01*
X1532040Y301960D01*
X1533620Y303080D01*
X1535080Y304340D01*
X1536420Y305800D01*
X1537620Y307400D01*
X1538700Y309180D01*
X1539600Y311140D01*
X1540320Y313260D01*
X1540860Y315540D01*
X1541180Y317980D01*
X1541300Y320600D01*
X1541180Y323260D01*
X1540860Y325740D01*
X1540320Y328060D01*
X1539580Y330220D01*
X1538680Y332200D01*
X1537600Y334000D01*
X1536380Y335660D01*
X1535040Y337120D01*
X1533560Y338420D01*
X1532000Y339560D01*
X1530340Y340520D01*
X1528600Y341300D01*
X1526800Y341920D01*
X1524960Y342340D01*
X1523100Y342620D01*
G37*
G36*
X1312800Y342700D02*
G01*
X1310560Y342600D01*
X1308420Y342280D01*
X1306440Y341740D01*
X1304580Y341019D01*
X1302900Y340080D01*
X1301399Y338960D01*
X1300080Y337640D01*
X1298980Y336160D01*
X1298100Y334480D01*
X1297440Y332620D01*
X1297040Y330600D01*
X1296905Y328300D01*
X1303800Y328300D01*
X1303959Y330720D01*
X1304420Y332900D01*
X1305180Y334860D01*
X1306200Y336520D01*
X1307500Y337860D01*
X1309040Y338860D01*
X1310800Y339480D01*
X1312800Y339700D01*
X1314780Y339480D01*
X1316540Y338880D01*
X1318040Y337900D01*
X1319300Y336580D01*
X1320300Y334960D01*
X1321020Y333080D01*
X1321459Y330940D01*
X1321600Y328600D01*
X1321440Y326140D01*
X1320980Y323900D01*
X1320220Y321900D01*
X1319180Y320200D01*
X1317880Y318800D01*
X1316320Y317780D01*
X1314520Y317120D01*
X1312500Y316900D01*
X1310580Y317100D01*
X1308860Y317720D01*
X1307380Y318680D01*
X1306120Y320020D01*
X1305120Y321659D01*
X1304400Y323600D01*
X1303959Y325820D01*
X1303800Y328300D01*
X1296905Y328300D01*
X1297020Y326260D01*
X1297380Y324300D01*
X1297940Y322500D01*
X1298720Y320860D01*
X1299680Y319380D01*
X1300820Y318080D01*
X1302140Y316960D01*
X1303600Y316000D01*
X1300800Y313140D01*
X1298959Y310660D01*
X1297920Y308420D01*
X1297600Y306300D01*
X1297980Y303960D01*
X1299100Y302040D01*
X1300900Y300540D01*
X1303300Y299500D01*
X1299400Y297300D01*
X1296759Y294980D01*
X1295280Y292520D01*
X1295011Y291000D01*
X1301600Y291000D01*
X1301819Y293200D01*
X1302460Y295180D01*
X1303580Y297080D01*
X1305200Y299000D01*
X1309600Y298800D01*
X1319600Y298800D01*
X1323660Y298260D01*
X1326360Y296760D01*
X1327840Y294540D01*
X1328300Y291800D01*
X1328060Y289920D01*
X1327340Y288160D01*
X1326120Y286600D01*
X1324440Y285260D01*
X1322300Y284140D01*
X1319700Y283300D01*
X1316620Y282780D01*
X1313100Y282600D01*
X1310620Y282720D01*
X1308400Y283100D01*
X1306420Y283720D01*
X1304760Y284620D01*
X1303420Y285800D01*
X1302420Y287240D01*
X1301819Y288980D01*
X1301600Y291000D01*
X1295011Y291000D01*
X1294800Y289800D01*
X1294920Y288260D01*
X1295280Y286820D01*
X1295880Y285460D01*
X1296720Y284200D01*
X1297820Y283060D01*
X1299180Y282040D01*
X1300820Y281140D01*
X1302720Y280400D01*
X1304880Y279800D01*
X1307340Y279360D01*
X1310080Y279100D01*
X1313100Y279000D01*
X1316519Y279160D01*
X1319660Y279600D01*
X1322500Y280300D01*
X1325060Y281220D01*
X1327300Y282380D01*
X1329259Y283700D01*
X1330920Y285180D01*
X1332280Y286800D01*
X1333340Y288540D01*
X1334100Y290340D01*
X1334540Y292200D01*
X1334700Y294100D01*
X1334480Y296560D01*
X1333839Y298740D01*
X1332760Y300640D01*
X1331260Y302240D01*
X1329280Y303500D01*
X1326860Y304440D01*
X1323959Y305000D01*
X1320600Y305200D01*
X1309000Y305200D01*
X1306260Y305480D01*
X1304540Y306280D01*
X1303660Y307560D01*
X1303400Y309300D01*
X1303560Y310800D01*
X1304000Y312180D01*
X1304760Y313560D01*
X1305800Y315000D01*
X1307420Y314540D01*
X1309120Y314180D01*
X1310900Y313980D01*
X1312800Y313900D01*
X1315020Y314000D01*
X1317120Y314340D01*
X1319100Y314880D01*
X1320920Y315620D01*
X1322580Y316560D01*
X1324060Y317700D01*
X1325360Y319040D01*
X1326459Y320560D01*
X1327320Y322260D01*
X1327960Y324140D01*
X1328360Y326180D01*
X1328500Y328400D01*
X1328340Y330840D01*
X1327880Y333060D01*
X1327160Y335040D01*
X1326200Y336800D01*
X1335100Y336599D01*
X1335100Y341800D01*
X1333800Y342600D01*
X1323800Y339300D01*
X1321560Y340800D01*
X1318940Y341860D01*
X1316000Y342500D01*
G37*
G36*
X1245200Y342700D02*
G01*
X1243160Y342560D01*
X1241100Y342140D01*
X1239040Y341460D01*
X1237020Y340520D01*
X1235020Y339360D01*
X1233100Y337980D01*
X1231240Y336380D01*
X1229500Y334600D01*
X1228800Y341800D01*
X1227600Y342600D01*
X1215200Y337800D01*
X1215200Y335200D01*
X1222200Y334500D01*
X1222380Y329280D01*
X1222300Y303700D01*
X1215800Y302700D01*
X1215800Y300000D01*
X1236000Y300000D01*
X1236000Y302700D01*
X1229900Y303700D01*
X1229700Y318400D01*
X1229700Y331400D01*
X1233000Y334040D01*
X1236080Y335840D01*
X1239040Y336880D01*
X1242000Y337200D01*
X1243780Y337060D01*
X1245280Y336659D01*
X1246520Y335920D01*
X1247520Y334860D01*
X1248260Y333420D01*
X1248800Y331580D01*
X1249100Y329320D01*
X1249200Y326599D01*
X1249100Y303700D01*
X1242600Y302700D01*
X1242600Y300000D01*
X1262800Y300000D01*
X1262800Y302700D01*
X1256600Y303700D01*
X1256400Y318400D01*
X1256400Y326800D01*
X1256220Y330720D01*
X1255700Y334060D01*
X1254840Y336800D01*
X1253620Y338980D01*
X1252040Y340640D01*
X1250120Y341800D01*
X1247840Y342480D01*
G37*
G36*
X1138800Y342700D02*
G01*
X1136760Y342560D01*
X1134740Y342140D01*
X1132720Y341460D01*
X1130740Y340540D01*
X1128800Y339380D01*
X1126940Y338020D01*
X1125180Y336460D01*
X1123500Y334700D01*
X1122800Y341800D01*
X1121600Y342600D01*
X1109200Y337800D01*
X1109200Y335200D01*
X1116200Y334500D01*
X1116380Y329280D01*
X1116300Y303700D01*
X1109800Y302700D01*
X1109800Y300000D01*
X1130000Y300000D01*
X1130000Y302700D01*
X1123900Y303700D01*
X1123700Y318400D01*
X1123700Y331400D01*
X1126900Y333980D01*
X1129840Y335740D01*
X1132680Y336780D01*
X1135600Y337100D01*
X1137340Y336980D01*
X1138840Y336560D01*
X1140080Y335860D01*
X1141080Y334799D01*
X1141840Y333360D01*
X1142380Y331540D01*
X1142700Y329260D01*
X1142800Y326500D01*
X1142700Y303700D01*
X1136000Y302700D01*
X1136000Y300000D01*
X1156200Y300000D01*
X1156200Y302700D01*
X1150200Y303700D01*
X1150020Y311120D01*
X1150000Y326800D01*
X1149920Y329159D01*
X1149700Y331300D01*
X1153040Y333980D01*
X1156080Y335780D01*
X1158920Y336780D01*
X1161700Y337100D01*
X1163480Y336980D01*
X1165000Y336620D01*
X1166280Y335940D01*
X1167320Y334920D01*
X1168100Y333519D01*
X1168660Y331700D01*
X1169000Y329400D01*
X1169100Y326599D01*
X1169080Y314960D01*
X1168900Y303700D01*
X1162400Y302700D01*
X1162400Y300000D01*
X1182500Y300000D01*
X1182500Y302700D01*
X1176400Y303700D01*
X1176200Y318400D01*
X1176200Y327500D01*
X1176000Y331260D01*
X1175440Y334440D01*
X1174520Y337060D01*
X1173260Y339140D01*
X1171660Y340740D01*
X1169740Y341840D01*
X1167520Y342480D01*
X1165000Y342700D01*
X1162900Y342580D01*
X1160820Y342200D01*
X1158760Y341580D01*
X1156720Y340700D01*
X1154740Y339560D01*
X1152820Y338140D01*
X1150960Y336460D01*
X1149200Y334500D01*
X1148520Y336480D01*
X1147660Y338180D01*
X1146640Y339600D01*
X1145420Y340740D01*
X1144040Y341599D01*
X1142480Y342220D01*
X1140740Y342580D01*
G37*
G36*
X1082200Y342700D02*
G01*
X1080300Y342620D01*
X1078400Y342340D01*
X1076560Y341900D01*
X1074760Y341280D01*
X1073020Y340500D01*
X1071360Y339540D01*
X1069780Y338400D01*
X1068320Y337080D01*
X1066980Y335620D01*
X1065780Y333960D01*
X1064700Y332160D01*
X1063800Y330180D01*
X1063080Y328020D01*
X1062540Y325720D01*
X1062220Y323240D01*
X1062100Y320600D01*
X1070100Y320600D01*
X1070200Y323540D01*
X1070460Y326220D01*
X1070900Y328680D01*
X1071520Y330900D01*
X1072320Y332860D01*
X1073260Y334580D01*
X1074380Y336040D01*
X1075640Y337239D01*
X1077060Y338180D01*
X1078640Y338860D01*
X1080340Y339260D01*
X1082200Y339400D01*
X1084040Y339260D01*
X1085740Y338860D01*
X1087300Y338180D01*
X1088720Y337239D01*
X1089980Y336040D01*
X1091100Y334580D01*
X1092060Y332860D01*
X1092860Y330900D01*
X1093480Y328680D01*
X1093940Y326220D01*
X1094200Y323540D01*
X1094300Y320600D01*
X1094200Y317720D01*
X1093940Y315080D01*
X1093480Y312660D01*
X1092860Y310500D01*
X1092060Y308580D01*
X1091100Y306900D01*
X1089980Y305480D01*
X1088720Y304300D01*
X1087300Y303380D01*
X1085740Y302720D01*
X1084040Y302340D01*
X1082200Y302200D01*
X1080340Y302340D01*
X1078640Y302720D01*
X1077060Y303380D01*
X1075640Y304300D01*
X1074380Y305480D01*
X1073260Y306900D01*
X1072320Y308580D01*
X1071520Y310500D01*
X1070900Y312660D01*
X1070460Y315080D01*
X1070200Y317720D01*
X1070100Y320600D01*
X1062100Y320600D01*
X1062220Y317980D01*
X1062540Y315540D01*
X1063080Y313260D01*
X1063800Y311140D01*
X1064680Y309180D01*
X1065740Y307400D01*
X1066940Y305800D01*
X1068280Y304340D01*
X1069740Y303080D01*
X1071320Y301960D01*
X1072980Y301040D01*
X1074720Y300260D01*
X1076520Y299660D01*
X1078380Y299240D01*
X1080280Y298980D01*
X1082200Y298900D01*
X1084100Y298980D01*
X1086000Y299240D01*
X1087860Y299660D01*
X1089660Y300260D01*
X1091400Y301040D01*
X1093080Y301960D01*
X1094660Y303080D01*
X1096120Y304340D01*
X1097480Y305800D01*
X1098700Y307400D01*
X1099760Y309180D01*
X1100680Y311140D01*
X1101400Y313260D01*
X1101960Y315540D01*
X1102280Y317980D01*
X1102400Y320600D01*
X1102280Y323260D01*
X1101960Y325740D01*
X1101400Y328060D01*
X1100680Y330220D01*
X1099760Y332200D01*
X1098700Y334000D01*
X1097480Y335660D01*
X1096120Y337120D01*
X1094660Y338420D01*
X1093080Y339560D01*
X1091400Y340520D01*
X1089660Y341300D01*
X1087860Y341920D01*
X1086000Y342340D01*
X1084100Y342620D01*
G37*
G36*
X1039599Y342700D02*
G01*
X1037600Y342600D01*
X1035639Y342320D01*
X1033740Y341860D01*
X1031880Y341200D01*
X1030100Y340379D01*
X1028420Y339380D01*
X1026820Y338200D01*
X1025340Y336860D01*
X1023980Y335360D01*
X1022760Y333700D01*
X1021700Y331880D01*
X1020800Y329920D01*
X1020080Y327800D01*
X1019539Y325540D01*
X1019220Y323140D01*
X1019100Y320600D01*
X1019200Y318160D01*
X1019460Y315840D01*
X1019900Y313660D01*
X1020520Y311600D01*
X1021300Y309680D01*
X1022220Y307880D01*
X1023300Y306260D01*
X1024520Y304760D01*
X1025879Y303440D01*
X1027380Y302260D01*
X1029000Y301260D01*
X1030740Y300420D01*
X1032600Y299760D01*
X1034560Y299280D01*
X1036640Y299000D01*
X1038800Y298900D01*
X1041740Y299080D01*
X1044440Y299620D01*
X1046880Y300500D01*
X1049040Y301700D01*
X1050960Y303220D01*
X1052600Y305060D01*
X1053980Y307180D01*
X1055100Y309600D01*
X1053300Y310400D01*
X1052180Y308920D01*
X1050920Y307600D01*
X1049520Y306460D01*
X1048020Y305520D01*
X1046420Y304780D01*
X1044720Y304240D01*
X1042940Y303920D01*
X1041100Y303800D01*
X1039060Y303940D01*
X1037099Y304320D01*
X1035300Y304980D01*
X1033600Y305880D01*
X1032080Y307020D01*
X1030699Y308400D01*
X1029500Y310020D01*
X1028500Y311860D01*
X1027680Y313920D01*
X1027099Y316200D01*
X1026720Y318700D01*
X1026600Y321400D01*
X1026720Y324140D01*
X1027039Y326700D01*
X1027560Y329020D01*
X1028300Y331140D01*
X1029200Y333020D01*
X1030300Y334680D01*
X1031560Y336100D01*
X1032980Y337260D01*
X1034539Y338200D01*
X1036220Y338860D01*
X1038060Y339260D01*
X1040000Y339400D01*
X1042280Y339180D01*
X1044800Y338600D01*
X1046400Y332400D01*
X1046960Y330700D01*
X1047880Y329420D01*
X1049260Y328579D01*
X1051100Y328300D01*
X1052500Y328500D01*
X1053600Y329120D01*
X1054400Y330120D01*
X1054900Y331500D01*
X1054220Y333840D01*
X1053080Y336000D01*
X1051560Y337900D01*
X1049680Y339540D01*
X1047500Y340880D01*
X1045080Y341860D01*
X1042420Y342480D01*
G37*
G36*
X759500Y342700D02*
G01*
X757260Y342600D01*
X755120Y342280D01*
X753139Y341740D01*
X751280Y341019D01*
X749599Y340080D01*
X748100Y338960D01*
X746780Y337640D01*
X745680Y336160D01*
X744800Y334480D01*
X744140Y332620D01*
X743740Y330600D01*
X743605Y328300D01*
X750500Y328300D01*
X750660Y330720D01*
X751140Y332900D01*
X751900Y334860D01*
X752960Y336520D01*
X754260Y337860D01*
X755819Y338860D01*
X757600Y339480D01*
X759599Y339700D01*
X761560Y339480D01*
X763280Y338880D01*
X764760Y337900D01*
X766020Y336580D01*
X767000Y334960D01*
X767720Y333080D01*
X768160Y330940D01*
X768300Y328600D01*
X768139Y326140D01*
X767680Y323900D01*
X766919Y321900D01*
X765879Y320200D01*
X764580Y318800D01*
X763020Y317780D01*
X761220Y317120D01*
X759200Y316900D01*
X757280Y317100D01*
X755560Y317720D01*
X754080Y318680D01*
X752820Y320020D01*
X751820Y321659D01*
X751100Y323600D01*
X750660Y325820D01*
X750500Y328300D01*
X743605Y328300D01*
X743720Y326260D01*
X744080Y324300D01*
X744640Y322500D01*
X745420Y320860D01*
X746400Y319380D01*
X747560Y318080D01*
X748900Y316960D01*
X750400Y316000D01*
X747600Y313140D01*
X745740Y310660D01*
X744720Y308420D01*
X744400Y306300D01*
X744760Y303960D01*
X745860Y302040D01*
X747600Y300540D01*
X750000Y299500D01*
X746120Y297300D01*
X743520Y294980D01*
X742060Y292520D01*
X741802Y291000D01*
X748400Y291000D01*
X748600Y293200D01*
X749220Y295180D01*
X750340Y297080D01*
X752000Y299000D01*
X753920Y298860D01*
X766400Y298800D01*
X770400Y298260D01*
X773060Y296760D01*
X774539Y294540D01*
X775000Y291800D01*
X774760Y289920D01*
X774040Y288160D01*
X772820Y286600D01*
X771140Y285260D01*
X769000Y284140D01*
X766400Y283300D01*
X763319Y282780D01*
X759800Y282600D01*
X757320Y282720D01*
X755100Y283100D01*
X753160Y283720D01*
X751520Y284620D01*
X750180Y285800D01*
X749220Y287240D01*
X748600Y288980D01*
X748400Y291000D01*
X741802Y291000D01*
X741600Y289800D01*
X741720Y288260D01*
X742060Y286820D01*
X742660Y285460D01*
X743500Y284200D01*
X744580Y283060D01*
X745939Y282040D01*
X747560Y281140D01*
X749440Y280400D01*
X751600Y279800D01*
X754040Y279360D01*
X756780Y279100D01*
X759800Y279000D01*
X763220Y279160D01*
X766360Y279600D01*
X769200Y280300D01*
X771760Y281220D01*
X774000Y282380D01*
X775960Y283700D01*
X777620Y285180D01*
X778980Y286800D01*
X780040Y288540D01*
X780800Y290340D01*
X781240Y292200D01*
X781400Y294100D01*
X781180Y296560D01*
X780540Y298740D01*
X779460Y300640D01*
X777960Y302240D01*
X775980Y303500D01*
X773560Y304440D01*
X770660Y305000D01*
X767300Y305200D01*
X755699Y305200D01*
X752960Y305480D01*
X751260Y306280D01*
X750360Y307560D01*
X750100Y309300D01*
X750240Y310800D01*
X750699Y312180D01*
X751460Y313560D01*
X752500Y315000D01*
X754120Y314540D01*
X755819Y314180D01*
X757600Y313980D01*
X759500Y313900D01*
X761720Y314000D01*
X763820Y314340D01*
X765800Y314880D01*
X767620Y315620D01*
X769280Y316560D01*
X770759Y317700D01*
X772060Y319040D01*
X773160Y320560D01*
X774020Y322260D01*
X774659Y324140D01*
X775060Y326180D01*
X775200Y328400D01*
X775060Y330840D01*
X774620Y333060D01*
X773900Y335040D01*
X772900Y336800D01*
X781800Y336599D01*
X781800Y341800D01*
X780500Y342600D01*
X770500Y339300D01*
X768280Y340800D01*
X765680Y341860D01*
X762740Y342500D01*
G37*
G36*
X646500Y342700D02*
G01*
X643020Y342440D01*
X639980Y341700D01*
X637360Y340560D01*
X635180Y339040D01*
X633460Y337220D01*
X632220Y335140D01*
X631460Y332900D01*
X631200Y330500D01*
X631400Y328360D01*
X631980Y326440D01*
X632900Y324739D01*
X634160Y323200D01*
X635720Y321840D01*
X637580Y320620D01*
X639660Y319560D01*
X642000Y318600D01*
X646000Y317300D01*
X649720Y315660D01*
X652280Y313900D01*
X653740Y311840D01*
X654200Y309300D01*
X654040Y307780D01*
X653600Y306420D01*
X652820Y305200D01*
X651740Y304180D01*
X650320Y303340D01*
X648580Y302720D01*
X646520Y302340D01*
X644100Y302200D01*
X642080Y302300D01*
X640240Y302580D01*
X638520Y303040D01*
X636900Y303700D01*
X635000Y311800D01*
X630800Y311800D01*
X631000Y302200D01*
X634180Y300760D01*
X637340Y299720D01*
X640639Y299100D01*
X644200Y298900D01*
X646860Y299020D01*
X649320Y299360D01*
X651540Y299900D01*
X653540Y300620D01*
X655320Y301540D01*
X656860Y302600D01*
X658180Y303800D01*
X659260Y305140D01*
X660100Y306580D01*
X660720Y308120D01*
X661080Y309720D01*
X661200Y311400D01*
X661040Y313400D01*
X660540Y315260D01*
X659680Y317020D01*
X658420Y318640D01*
X656780Y320140D01*
X654700Y321540D01*
X652180Y322819D01*
X649200Y324000D01*
X646100Y325100D01*
X642340Y326700D01*
X639840Y328360D01*
X638440Y330340D01*
X638000Y332900D01*
X638540Y335500D01*
X640160Y337520D01*
X642800Y338840D01*
X646500Y339300D01*
X648139Y339200D01*
X649720Y338880D01*
X651280Y338380D01*
X652800Y337700D01*
X654500Y330200D01*
X658400Y330200D01*
X658800Y339099D01*
X655900Y340640D01*
X652960Y341760D01*
X649860Y342460D01*
G37*
G36*
X606000Y342700D02*
G01*
X604240Y342600D01*
X602520Y342340D01*
X600800Y341860D01*
X599120Y341180D01*
X597440Y340280D01*
X595800Y339159D01*
X594180Y337800D01*
X592600Y336200D01*
X592000Y341800D01*
X590800Y342600D01*
X578500Y337800D01*
X578500Y335200D01*
X585600Y334500D01*
X585800Y323000D01*
X585800Y307700D01*
X593000Y307700D01*
X593000Y333500D01*
X596280Y335940D01*
X599100Y337400D01*
X601560Y338120D01*
X603700Y338300D01*
X605320Y338180D01*
X606860Y337800D01*
X608300Y337160D01*
X609600Y336280D01*
X610800Y335160D01*
X611860Y333780D01*
X612780Y332160D01*
X613560Y330280D01*
X614180Y328180D01*
X614620Y325820D01*
X614900Y323240D01*
X615000Y320400D01*
X614880Y317520D01*
X614560Y314940D01*
X614060Y312640D01*
X613340Y310620D01*
X612480Y308860D01*
X611460Y307360D01*
X610280Y306120D01*
X608980Y305120D01*
X607580Y304360D01*
X606060Y303820D01*
X604460Y303500D01*
X602800Y303400D01*
X600360Y303640D01*
X597940Y304380D01*
X595500Y305720D01*
X593000Y307700D01*
X585800Y307700D01*
X585780Y293920D01*
X585600Y282800D01*
X578500Y281700D01*
X578500Y279000D01*
X600900Y279000D01*
X600900Y281700D01*
X592900Y282900D01*
X592800Y304700D01*
X595660Y301900D01*
X598640Y300120D01*
X601680Y299180D01*
X604700Y298900D01*
X606580Y299000D01*
X608400Y299300D01*
X610140Y299780D01*
X611800Y300440D01*
X613380Y301280D01*
X614840Y302300D01*
X616220Y303500D01*
X617480Y304840D01*
X618620Y306360D01*
X619620Y308040D01*
X620500Y309840D01*
X621240Y311800D01*
X621820Y313920D01*
X622240Y316140D01*
X622520Y318520D01*
X622600Y321000D01*
X622460Y324260D01*
X622020Y327299D01*
X621320Y330080D01*
X620360Y332620D01*
X619180Y334900D01*
X617780Y336920D01*
X616200Y338640D01*
X614440Y340080D01*
X612520Y341200D01*
X610460Y342040D01*
X608280Y342540D01*
G37*
G36*
X1281500Y342600D02*
G01*
X1268000Y337900D01*
X1268000Y335300D01*
X1275200Y334600D01*
X1275400Y323000D01*
X1275200Y303700D01*
X1268500Y302700D01*
X1268500Y300000D01*
X1288700Y300000D01*
X1288700Y302700D01*
X1282700Y303700D01*
X1282500Y318400D01*
X1282500Y330200D01*
X1282700Y341800D01*
G37*
G36*
X799900Y342600D02*
G01*
X786400Y337900D01*
X786400Y335300D01*
X793600Y334600D01*
X793800Y323000D01*
X793600Y303700D01*
X786900Y302700D01*
X786900Y300000D01*
X807099Y300000D01*
X807099Y302700D01*
X801100Y303700D01*
X800900Y318400D01*
X800900Y330200D01*
X801100Y341800D01*
G37*
G36*
X906400Y342200D02*
G01*
X893600Y340900D01*
X893600Y338300D01*
X899900Y337000D01*
X899599Y314700D01*
X899800Y310660D01*
X900400Y307300D01*
X901360Y304560D01*
X902680Y302420D01*
X904340Y300820D01*
X906300Y299720D01*
X908560Y299100D01*
X911100Y298900D01*
X913160Y299040D01*
X915220Y299420D01*
X917260Y300080D01*
X919280Y300980D01*
X921240Y302160D01*
X923139Y303580D01*
X924960Y305260D01*
X926700Y307200D01*
X927500Y299300D01*
X939599Y300000D01*
X939599Y302600D01*
X933600Y303600D01*
X933600Y328900D01*
X933900Y341300D01*
X933100Y342200D01*
X920400Y340800D01*
X920400Y338200D01*
X926700Y337000D01*
X926400Y310300D01*
X923480Y307800D01*
X920460Y306020D01*
X917340Y304960D01*
X914200Y304600D01*
X912500Y304740D01*
X911040Y305140D01*
X909780Y305860D01*
X908760Y306920D01*
X907940Y308360D01*
X907360Y310160D01*
X907020Y312400D01*
X906900Y315100D01*
X906900Y328900D01*
X907300Y341300D01*
G37*
G36*
X1545200Y341500D02*
G01*
X1545200Y338600D01*
X1550200Y337800D01*
X1564300Y299400D01*
X1567400Y299400D01*
X1579100Y331400D01*
X1581459Y324300D01*
X1585080Y314300D01*
X1590700Y299400D01*
X1593800Y299400D01*
X1606600Y337600D01*
X1611600Y338600D01*
X1611600Y341500D01*
X1595600Y341500D01*
X1595600Y338600D01*
X1602400Y337500D01*
X1594000Y309400D01*
X1583400Y337500D01*
X1590100Y338600D01*
X1590100Y341500D01*
X1571100Y341500D01*
X1571100Y338600D01*
X1577800Y337600D01*
X1567600Y309100D01*
X1558100Y337700D01*
X1565000Y338600D01*
X1565000Y341500D01*
G37*
G36*
X1420400Y324600D02*
G01*
X1420400Y319400D01*
X1440800Y319400D01*
X1440800Y324600D01*
G37*
G36*
X1004700Y310800D02*
G01*
X1002380Y310320D01*
X1000520Y309020D01*
X999260Y307080D01*
X998800Y304700D01*
X999260Y302480D01*
X1000520Y300640D01*
X1002380Y299380D01*
X1004700Y298900D01*
X1007020Y299380D01*
X1008940Y300640D01*
X1010220Y302480D01*
X1010699Y304700D01*
X1010220Y307080D01*
X1008940Y309020D01*
X1007020Y310320D01*
G37*
G36*
X677600Y310800D02*
G01*
X675320Y310320D01*
X673460Y309020D01*
X672180Y307080D01*
X671700Y304700D01*
X672180Y302480D01*
X673460Y300640D01*
X675320Y299380D01*
X677600Y298900D01*
X679980Y299380D01*
X681880Y300640D01*
X683139Y302480D01*
X683600Y304700D01*
X683139Y307080D01*
X681880Y309020D01*
X679980Y310320D01*
G37*
D23*
X364997Y1384701D02*
G01*
X379296Y1347100D01*
X393596Y1384701D02*
G01*
X379296Y1347100D01*
X414396Y1372201D02*
G01*
X410797Y1370401D01*
X407196Y1366801D01*
X405397Y1361500D01*
X405397Y1357901D01*
X407196Y1352501D01*
X410797Y1348901D01*
X414396Y1347100D01*
X419796Y1347100D01*
X423297Y1348901D01*
X426896Y1352501D01*
X428697Y1357901D01*
X428697Y1361500D01*
X426896Y1366801D01*
X423297Y1370401D01*
X419796Y1372201D01*
X414396Y1372201D01*
X440496Y1372201D02*
G01*
X440496Y1354301D01*
X442296Y1348901D01*
X445897Y1347100D01*
X451297Y1347100D01*
X454796Y1348901D01*
X460196Y1354301D01*
X460196Y1372201D02*
G01*
X460196Y1347100D01*
X477397Y1384701D02*
G01*
X477397Y1354301D01*
X479197Y1348901D01*
X482797Y1347100D01*
X486297Y1347100D01*
X471997Y1372201D02*
G01*
X484497Y1372201D01*
X486096Y1174400D02*
G01*
X486096Y1142100D01*
X469997Y1158301D02*
G01*
X502196Y1158301D01*
X535496Y1179701D02*
G01*
X517596Y1179701D01*
X515797Y1163600D01*
X517596Y1165401D01*
X522996Y1167201D01*
X528297Y1167201D01*
X533697Y1165401D01*
X537296Y1161801D01*
X539097Y1156500D01*
X539097Y1152901D01*
X537296Y1147501D01*
X533697Y1143901D01*
X528297Y1142100D01*
X522996Y1142100D01*
X517596Y1143901D01*
X515797Y1145700D01*
X513996Y1149301D01*
X550897Y1167201D02*
G01*
X561597Y1142100D01*
X572397Y1167201D02*
G01*
X561597Y1142100D01*
X466796Y1265801D02*
G01*
X465096Y1269400D01*
X461496Y1272901D01*
X457897Y1274701D01*
X450697Y1274701D01*
X447196Y1272901D01*
X443596Y1269400D01*
X441796Y1265801D01*
X439997Y1260401D01*
X439997Y1251500D01*
X441796Y1246100D01*
X443596Y1242501D01*
X447196Y1238901D01*
X450697Y1237100D01*
X457897Y1237100D01*
X461496Y1238901D01*
X465096Y1242501D01*
X466796Y1246100D01*
X466796Y1251500D01*
X457897Y1251500D02*
G01*
X466796Y1251500D01*
X478697Y1274701D02*
G01*
X478697Y1237100D01*
X478697Y1274701D02*
G01*
X503697Y1237100D01*
X503697Y1274701D02*
G01*
X503697Y1237100D01*
X515496Y1274701D02*
G01*
X515496Y1237100D01*
X515496Y1274701D02*
G01*
X527996Y1274701D01*
X533397Y1272901D01*
X536997Y1269400D01*
X538797Y1265801D01*
X540596Y1260401D01*
X540596Y1251500D01*
X538797Y1246100D01*
X536997Y1242501D01*
X533397Y1238901D01*
X527996Y1237100D01*
X515496Y1237100D01*
D26*
X920000Y1885399D02*
G01*
X920000Y1842500D01*
X920000Y1885399D02*
G01*
X938400Y1885399D01*
X944499Y1883400D01*
X946599Y1881300D01*
X948599Y1877199D01*
X948599Y1873099D01*
X946599Y1869000D01*
X944499Y1866999D01*
X938400Y1865000D01*
X920000Y1865000D01*
X934300Y1865000D02*
G01*
X948599Y1842500D01*
X964200Y1875199D02*
G01*
X964200Y1877199D01*
X966199Y1881300D01*
X968299Y1883400D01*
X972399Y1885399D01*
X980500Y1885399D01*
X984600Y1883400D01*
X986700Y1881300D01*
X988699Y1877199D01*
X988699Y1873099D01*
X986700Y1869000D01*
X982600Y1862899D01*
X962100Y1842500D01*
X990799Y1842500D01*
X2060000Y1055399D02*
G01*
X2060000Y1012500D01*
X2060000Y1055399D02*
G01*
X2078400Y1055399D01*
X2084499Y1053400D01*
X2086599Y1051300D01*
X2088599Y1047199D01*
X2088599Y1043099D01*
X2086599Y1039000D01*
X2084499Y1036999D01*
X2078400Y1035000D01*
X2060000Y1035000D01*
X2074300Y1035000D02*
G01*
X2088599Y1012500D01*
X2102100Y1047199D02*
G01*
X2106199Y1049299D01*
X2112399Y1055399D01*
X2112399Y1012500D01*
X2082299Y1325399D02*
G01*
X2078199Y1323400D01*
X2074099Y1319299D01*
X2071999Y1315199D01*
X2070000Y1309000D01*
X2070000Y1298800D01*
X2071999Y1292699D01*
X2074099Y1288600D01*
X2078199Y1284499D01*
X2082299Y1282500D01*
X2090500Y1282500D01*
X2094499Y1284499D01*
X2098599Y1288600D01*
X2100699Y1292699D01*
X2102700Y1298800D01*
X2102700Y1309000D01*
X2100699Y1315199D01*
X2098599Y1319299D01*
X2094499Y1323400D01*
X2090500Y1325399D01*
X2082299Y1325399D01*
X2088400Y1290599D02*
G01*
X2100699Y1278400D01*
X2116199Y1317199D02*
G01*
X2120299Y1319299D01*
X2126499Y1325399D01*
X2126499Y1282500D01*
X1033199Y1183299D02*
G01*
X1037299Y1185399D01*
X1041400Y1189499D01*
X1043400Y1193499D01*
X1043400Y1201700D01*
X1041400Y1205799D01*
X1037299Y1209899D01*
X1033199Y1211999D01*
X1026999Y1214000D01*
X1016800Y1214000D01*
X1010699Y1211999D01*
X1006599Y1209899D01*
X1002500Y1205799D01*
X1000500Y1201700D01*
X1000500Y1193499D01*
X1002500Y1189499D01*
X1006599Y1185399D01*
X1010699Y1183299D01*
X1035200Y1169800D02*
G01*
X1037299Y1165700D01*
X1043400Y1159600D01*
X1000500Y1159600D01*
X1433599Y819299D02*
G01*
X1429499Y823400D01*
X1423400Y825399D01*
X1415200Y825399D01*
X1409099Y823400D01*
X1405000Y819299D01*
X1405000Y815199D01*
X1406999Y811100D01*
X1409099Y809000D01*
X1413199Y806999D01*
X1425500Y802899D01*
X1429499Y800900D01*
X1431599Y798800D01*
X1433599Y794699D01*
X1433599Y788600D01*
X1429499Y784499D01*
X1423400Y782500D01*
X1415200Y782500D01*
X1409099Y784499D01*
X1405000Y788600D01*
X1447100Y825399D02*
G01*
X1457399Y782500D01*
X1467600Y825399D02*
G01*
X1457399Y782500D01*
X1467600Y825399D02*
G01*
X1477799Y782500D01*
X1488000Y825399D02*
G01*
X1477799Y782500D01*
X1501499Y817199D02*
G01*
X1505600Y819299D01*
X1511800Y825399D01*
X1511800Y782500D01*
X2455000Y581399D02*
G01*
X2455000Y538499D01*
X2455000Y581399D02*
G01*
X2473400Y581399D01*
X2479499Y579400D01*
X2481599Y577300D01*
X2483599Y573200D01*
X2483599Y567100D01*
X2481599Y563000D01*
X2479499Y560999D01*
X2473400Y558899D01*
X2455000Y558899D01*
X2497100Y573200D02*
G01*
X2501199Y575300D01*
X2507399Y581399D01*
X2507399Y538499D01*
X2450000Y1321399D02*
G01*
X2450000Y1278499D01*
X2450000Y1321399D02*
G01*
X2468400Y1321399D01*
X2474499Y1319400D01*
X2476599Y1317300D01*
X2478599Y1313200D01*
X2478599Y1307100D01*
X2476599Y1303000D01*
X2474499Y1300999D01*
X2468400Y1298899D01*
X2450000Y1298899D01*
X2494200Y1311199D02*
G01*
X2494200Y1313200D01*
X2496199Y1317300D01*
X2498299Y1319400D01*
X2502399Y1321399D01*
X2510500Y1321399D01*
X2514600Y1319400D01*
X2516700Y1317300D01*
X2518699Y1313200D01*
X2518699Y1309099D01*
X2516700Y1305000D01*
X2512600Y1298899D01*
X2492100Y1278499D01*
X2520799Y1278499D01*
X2450000Y831399D02*
G01*
X2450000Y788499D01*
X2450000Y831399D02*
G01*
X2468400Y831399D01*
X2474499Y829400D01*
X2476599Y827300D01*
X2478599Y823200D01*
X2478599Y817100D01*
X2476599Y813000D01*
X2474499Y810999D01*
X2468400Y808899D01*
X2450000Y808899D01*
X2512600Y831399D02*
G01*
X2492100Y802800D01*
X2522799Y802800D01*
X2512600Y831399D02*
G01*
X2512600Y788499D01*
X2455000Y1066399D02*
G01*
X2455000Y1023499D01*
X2455000Y1066399D02*
G01*
X2473400Y1066399D01*
X2479499Y1064400D01*
X2481599Y1062300D01*
X2483599Y1058200D01*
X2483599Y1052100D01*
X2481599Y1048000D01*
X2479499Y1045999D01*
X2473400Y1043899D01*
X2455000Y1043899D01*
X2521700Y1066399D02*
G01*
X2501199Y1066399D01*
X2499200Y1048000D01*
X2501199Y1050000D01*
X2507399Y1052100D01*
X2513500Y1052100D01*
X2519600Y1050000D01*
X2523699Y1045999D01*
X2525799Y1039800D01*
X2525799Y1035700D01*
X2523699Y1029600D01*
X2519600Y1025500D01*
X2513500Y1023499D01*
X2507399Y1023499D01*
X2501199Y1025500D01*
X2499200Y1027500D01*
X2497100Y1031599D01*
X620000Y1831399D02*
G01*
X620000Y1788499D01*
X620000Y1831399D02*
G01*
X638400Y1831399D01*
X644499Y1829400D01*
X646599Y1827300D01*
X648599Y1823200D01*
X648599Y1817100D01*
X646599Y1813000D01*
X644499Y1810999D01*
X638400Y1808899D01*
X620000Y1808899D01*
X666199Y1831399D02*
G01*
X688699Y1831399D01*
X676499Y1815000D01*
X682600Y1815000D01*
X686700Y1813000D01*
X688699Y1810999D01*
X690799Y1804800D01*
X690799Y1800700D01*
X688699Y1794600D01*
X684600Y1790500D01*
X678500Y1788499D01*
X672399Y1788499D01*
X666199Y1790500D01*
X664200Y1792500D01*
X662100Y1796599D01*
X1900399Y577500D02*
G01*
X1857500Y577500D01*
X1900399Y577500D02*
G01*
X1900399Y563200D01*
X1898400Y556999D01*
X1894300Y553000D01*
X1890200Y550900D01*
X1883999Y548899D01*
X1873800Y548899D01*
X1867700Y550900D01*
X1863599Y553000D01*
X1859499Y556999D01*
X1857500Y563200D01*
X1857500Y577500D01*
X1892200Y535399D02*
G01*
X1894300Y531300D01*
X1900399Y525100D01*
X1857500Y525100D01*
X1350000Y2160399D02*
G01*
X1350000Y2129699D01*
X1351999Y2123600D01*
X1356099Y2119499D01*
X1362299Y2117500D01*
X1366400Y2117500D01*
X1372500Y2119499D01*
X1376599Y2123600D01*
X1378599Y2129699D01*
X1378599Y2160399D01*
X1392100Y2152199D02*
G01*
X1396199Y2154299D01*
X1402399Y2160399D01*
X1402399Y2117500D01*
X1250000Y25900D02*
G01*
X1250000Y6799D01*
X1250000Y25900D02*
G01*
X1258199Y25900D01*
X1260900Y25000D01*
X1261800Y24099D01*
X1262700Y22300D01*
X1262700Y20500D01*
X1261800Y18600D01*
X1260900Y17699D01*
X1258199Y16799D01*
X1250000Y16799D01*
X1256400Y16799D02*
G01*
X1262700Y6799D01*
X1281499Y23200D02*
G01*
X1279600Y25000D01*
X1276899Y25900D01*
X1273299Y25900D01*
X1270500Y25000D01*
X1268699Y23200D01*
X1268699Y21399D01*
X1269600Y19499D01*
X1270500Y18600D01*
X1272399Y17699D01*
X1277799Y15900D01*
X1279600Y15000D01*
X1280500Y14099D01*
X1281499Y12300D01*
X1281499Y9499D01*
X1279600Y7699D01*
X1276899Y6799D01*
X1273299Y6799D01*
X1270500Y7699D01*
X1268699Y9499D01*
X1293800Y25900D02*
G01*
X1293800Y6799D01*
X1287500Y25900D02*
G01*
X1300200Y25900D01*
X1369799Y165900D02*
G01*
X1379799Y165900D01*
X1374399Y158600D01*
X1377100Y158600D01*
X1378900Y157699D01*
X1379799Y156799D01*
X1380699Y154099D01*
X1380699Y152300D01*
X1379799Y149499D01*
X1378000Y147699D01*
X1375299Y146799D01*
X1372500Y146799D01*
X1369799Y147699D01*
X1368900Y148600D01*
X1368000Y150500D01*
X1386700Y159499D02*
G01*
X1392200Y146799D01*
X1397600Y159499D02*
G01*
X1392200Y146799D01*
X1488900Y165900D02*
G01*
X1479799Y165900D01*
X1478900Y157699D01*
X1479799Y158600D01*
X1482500Y159499D01*
X1485299Y159499D01*
X1488000Y158600D01*
X1489799Y156799D01*
X1490699Y154099D01*
X1490699Y152300D01*
X1489799Y149499D01*
X1488000Y147699D01*
X1485299Y146799D01*
X1482500Y146799D01*
X1479799Y147699D01*
X1478900Y148600D01*
X1478000Y150500D01*
X1496700Y159499D02*
G01*
X1502200Y146799D01*
X1507600Y159499D02*
G01*
X1502200Y146799D01*
X1618599Y161399D02*
G01*
X1617700Y163200D01*
X1615900Y165000D01*
X1614099Y165900D01*
X1610500Y165900D01*
X1608599Y165000D01*
X1606800Y163200D01*
X1605900Y161399D01*
X1605000Y158600D01*
X1605000Y154099D01*
X1605900Y151399D01*
X1606800Y149499D01*
X1608599Y147699D01*
X1610500Y146799D01*
X1614099Y146799D01*
X1615900Y147699D01*
X1617700Y149499D01*
X1618599Y151399D01*
X1618599Y154099D01*
X1614099Y154099D02*
G01*
X1618599Y154099D01*
X1624600Y159499D02*
G01*
X1624600Y146799D01*
X1624600Y155900D02*
G01*
X1627399Y158600D01*
X1629200Y159499D01*
X1631899Y159499D01*
X1633699Y158600D01*
X1634600Y155900D01*
X1634600Y146799D01*
X1651499Y165900D02*
G01*
X1651499Y146799D01*
X1651499Y156799D02*
G01*
X1649700Y158600D01*
X1647899Y159499D01*
X1645200Y159499D01*
X1643400Y158600D01*
X1641499Y156799D01*
X1640600Y154099D01*
X1640600Y152300D01*
X1641499Y149499D01*
X1643400Y147699D01*
X1645200Y146799D01*
X1647899Y146799D01*
X1649700Y147699D01*
X1651499Y149499D01*
X1763000Y165900D02*
G01*
X1770299Y146799D01*
X1777500Y165900D02*
G01*
X1770299Y146799D01*
X1783500Y165900D02*
G01*
X1784499Y165000D01*
X1785399Y165900D01*
X1784499Y166799D01*
X1783500Y165900D01*
X1784499Y159499D02*
G01*
X1784499Y146799D01*
X1791400Y159499D02*
G01*
X1791400Y146799D01*
X1791400Y155900D02*
G01*
X1794099Y158600D01*
X1795900Y159499D01*
X1798599Y159499D01*
X1800500Y158600D01*
X1801400Y155900D01*
X1801400Y146799D01*
X2137299Y33899D02*
G01*
X2130000Y14800D01*
X2137299Y33899D02*
G01*
X2144499Y14800D01*
X2132700Y21199D02*
G01*
X2141800Y21199D01*
X2150500Y27500D02*
G01*
X2150500Y14800D01*
X2150500Y23899D02*
G01*
X2153299Y26599D01*
X2155100Y27500D01*
X2157799Y27500D01*
X2159600Y26599D01*
X2160500Y23899D01*
X2160500Y14800D01*
X2177500Y27500D02*
G01*
X2177500Y14800D01*
X2177500Y24800D02*
G01*
X2175600Y26599D01*
X2173800Y27500D01*
X2171099Y27500D01*
X2169300Y26599D01*
X2167500Y24800D01*
X2166499Y22100D01*
X2166499Y20300D01*
X2167500Y17500D01*
X2169300Y15700D01*
X2171099Y14800D01*
X2173800Y14800D01*
X2175600Y15700D01*
X2177500Y17500D01*
X2183500Y33899D02*
G01*
X2183500Y14800D01*
X2193999Y27500D02*
G01*
X2192200Y26599D01*
X2190399Y24800D01*
X2189499Y22100D01*
X2189499Y20300D01*
X2190399Y17500D01*
X2192200Y15700D01*
X2193999Y14800D01*
X2196700Y14800D01*
X2198500Y15700D01*
X2200399Y17500D01*
X2201300Y20300D01*
X2201300Y22100D01*
X2200399Y24800D01*
X2198500Y26599D01*
X2196700Y27500D01*
X2193999Y27500D01*
X2218199Y27500D02*
G01*
X2218199Y13000D01*
X2217299Y10300D01*
X2216400Y9400D01*
X2214499Y8499D01*
X2211800Y8499D01*
X2210000Y9400D01*
X2218199Y24800D02*
G01*
X2216400Y26599D01*
X2214499Y27500D01*
X2211800Y27500D01*
X2210000Y26599D01*
X2208199Y24800D01*
X2207299Y22100D01*
X2207299Y20300D01*
X2208199Y17500D01*
X2210000Y15700D01*
X2211800Y14800D01*
X2214499Y14800D01*
X2216400Y15700D01*
X2218199Y17500D01*
X2238199Y33899D02*
G01*
X2238199Y14800D01*
X2244200Y27500D02*
G01*
X2244200Y14800D01*
X2244200Y23899D02*
G01*
X2246899Y26599D01*
X2248699Y27500D01*
X2251499Y27500D01*
X2253299Y26599D01*
X2254200Y23899D01*
X2254200Y14800D01*
X1990500Y165900D02*
G01*
X1987700Y165000D01*
X1985900Y162300D01*
X1985000Y157699D01*
X1985000Y155000D01*
X1985900Y150500D01*
X1987700Y147699D01*
X1990500Y146799D01*
X1992299Y146799D01*
X1995000Y147699D01*
X1996800Y150500D01*
X1997700Y155000D01*
X1997700Y157699D01*
X1996800Y162300D01*
X1995000Y165000D01*
X1992299Y165900D01*
X1990500Y165900D01*
X2085000Y162300D02*
G01*
X2086800Y163200D01*
X2089499Y165900D01*
X2089499Y146799D01*
X2185900Y161399D02*
G01*
X2185900Y162300D01*
X2186800Y164099D01*
X2187700Y165000D01*
X2189499Y165900D01*
X2193199Y165900D01*
X2195000Y165000D01*
X2195900Y164099D01*
X2196800Y162300D01*
X2196800Y160500D01*
X2195900Y158600D01*
X2194099Y155900D01*
X2185000Y146799D01*
X2197700Y146799D01*
X2286800Y165900D02*
G01*
X2296800Y165900D01*
X2291400Y158600D01*
X2294099Y158600D01*
X2295900Y157699D01*
X2296800Y156799D01*
X2297700Y154099D01*
X2297700Y152300D01*
X2296800Y149499D01*
X2295000Y147699D01*
X2292299Y146799D01*
X2289499Y146799D01*
X2286800Y147699D01*
X2285900Y148600D01*
X2285000Y150500D01*
X2394099Y165900D02*
G01*
X2385000Y153200D01*
X2398599Y153200D01*
X2394099Y165900D02*
G01*
X2394099Y146799D01*
X2495900Y165900D02*
G01*
X2486800Y165900D01*
X2485900Y157699D01*
X2486800Y158600D01*
X2489499Y159499D01*
X2492299Y159499D01*
X2495000Y158600D01*
X2496800Y156799D01*
X2497700Y154099D01*
X2497700Y152300D01*
X2496800Y149499D01*
X2495000Y147699D01*
X2492299Y146799D01*
X2489499Y146799D01*
X2486800Y147699D01*
X2485900Y148600D01*
X2485000Y150500D01*
X882299Y1925900D02*
G01*
X875000Y1906799D01*
X882299Y1925900D02*
G01*
X889499Y1906799D01*
X877700Y1913200D02*
G01*
X886800Y1913200D01*
X895500Y1925900D02*
G01*
X895500Y1906799D01*
X895500Y1925900D02*
G01*
X903699Y1925900D01*
X906499Y1925000D01*
X907399Y1924099D01*
X908299Y1922300D01*
X908299Y1920500D01*
X907399Y1918600D01*
X906499Y1917699D01*
X903699Y1916799D01*
X895500Y1916799D01*
X901899Y1916799D02*
G01*
X908299Y1906799D01*
X914300Y1914099D02*
G01*
X925200Y1914099D01*
X925200Y1915900D01*
X924300Y1917699D01*
X923400Y1918600D01*
X921499Y1919499D01*
X918800Y1919499D01*
X916999Y1918600D01*
X915200Y1916799D01*
X914300Y1914099D01*
X914300Y1912300D01*
X915200Y1909499D01*
X916999Y1907699D01*
X918800Y1906799D01*
X921499Y1906799D01*
X923400Y1907699D01*
X925200Y1909499D01*
X938500Y1925900D02*
G01*
X936599Y1925900D01*
X934799Y1925000D01*
X933900Y1922300D01*
X933900Y1906799D01*
X931199Y1919499D02*
G01*
X937500Y1919499D01*
X1003599Y2061399D02*
G01*
X1002700Y2063200D01*
X1000900Y2065000D01*
X999099Y2065900D01*
X995500Y2065900D01*
X993599Y2065000D01*
X991800Y2063200D01*
X990900Y2061399D01*
X990000Y2058600D01*
X990000Y2054099D01*
X990900Y2051399D01*
X991800Y2049499D01*
X993599Y2047699D01*
X995500Y2046799D01*
X999099Y2046799D01*
X1000900Y2047699D01*
X1002700Y2049499D01*
X1003599Y2051399D01*
X1003599Y2054099D01*
X999099Y2054099D02*
G01*
X1003599Y2054099D01*
X1009600Y2059499D02*
G01*
X1009600Y2046799D01*
X1009600Y2055900D02*
G01*
X1012399Y2058600D01*
X1014200Y2059499D01*
X1016899Y2059499D01*
X1018699Y2058600D01*
X1019600Y2055900D01*
X1019600Y2046799D01*
X1036499Y2065900D02*
G01*
X1036499Y2046799D01*
X1036499Y2056799D02*
G01*
X1034700Y2058600D01*
X1032899Y2059499D01*
X1030200Y2059499D01*
X1028400Y2058600D01*
X1026499Y2056799D01*
X1025600Y2054099D01*
X1025600Y2052300D01*
X1026499Y2049499D01*
X1028400Y2047699D01*
X1030200Y2046799D01*
X1032899Y2046799D01*
X1034700Y2047699D01*
X1036499Y2049499D01*
X1185000Y1962300D02*
G01*
X1186800Y1963200D01*
X1189499Y1965900D01*
X1189499Y1946799D01*
X1197399Y1965900D02*
G01*
X1207399Y1965900D01*
X1201899Y1958600D01*
X1204600Y1958600D01*
X1206499Y1957699D01*
X1207399Y1956799D01*
X1208299Y1954099D01*
X1208299Y1952300D01*
X1207399Y1949499D01*
X1205500Y1947699D01*
X1202799Y1946799D01*
X1200100Y1946799D01*
X1197399Y1947699D01*
X1196499Y1948600D01*
X1195500Y1950500D01*
X1285000Y1962300D02*
G01*
X1286800Y1963200D01*
X1289499Y1965900D01*
X1289499Y1946799D01*
X1296499Y1961399D02*
G01*
X1296499Y1962300D01*
X1297399Y1964099D01*
X1298299Y1965000D01*
X1300100Y1965900D01*
X1303699Y1965900D01*
X1305500Y1965000D01*
X1306499Y1964099D01*
X1307399Y1962300D01*
X1307399Y1960500D01*
X1306499Y1958600D01*
X1304600Y1955900D01*
X1295500Y1946799D01*
X1308299Y1946799D01*
X1385000Y1962300D02*
G01*
X1386800Y1963200D01*
X1389499Y1965900D01*
X1389499Y1946799D01*
X1395500Y1962300D02*
G01*
X1397399Y1963200D01*
X1400100Y1965900D01*
X1400100Y1946799D01*
X1485000Y1962300D02*
G01*
X1486800Y1963200D01*
X1489499Y1965900D01*
X1489499Y1946799D01*
X1501000Y1965900D02*
G01*
X1498299Y1965000D01*
X1496499Y1962300D01*
X1495500Y1957699D01*
X1495500Y1955000D01*
X1496499Y1950500D01*
X1498299Y1947699D01*
X1501000Y1946799D01*
X1502799Y1946799D01*
X1505500Y1947699D01*
X1507399Y1950500D01*
X1508299Y1955000D01*
X1508299Y1957699D01*
X1507399Y1962300D01*
X1505500Y1965000D01*
X1502799Y1965900D01*
X1501000Y1965900D01*
X1576800Y1959499D02*
G01*
X1575900Y1956799D01*
X1574099Y1955000D01*
X1571400Y1954099D01*
X1570500Y1954099D01*
X1567700Y1955000D01*
X1565900Y1956799D01*
X1565000Y1959499D01*
X1565000Y1960500D01*
X1565900Y1963200D01*
X1567700Y1965000D01*
X1570500Y1965900D01*
X1571400Y1965900D01*
X1574099Y1965000D01*
X1575900Y1963200D01*
X1576800Y1959499D01*
X1576800Y1955000D01*
X1575900Y1950500D01*
X1574099Y1947699D01*
X1571400Y1946799D01*
X1569499Y1946799D01*
X1566800Y1947699D01*
X1565900Y1949499D01*
X1669499Y1965900D02*
G01*
X1666800Y1965000D01*
X1665900Y1963200D01*
X1665900Y1961399D01*
X1666800Y1959499D01*
X1668599Y1958600D01*
X1672299Y1957699D01*
X1675000Y1956799D01*
X1676800Y1955000D01*
X1677700Y1953200D01*
X1677700Y1950500D01*
X1676800Y1948600D01*
X1675900Y1947699D01*
X1673199Y1946799D01*
X1669499Y1946799D01*
X1666800Y1947699D01*
X1665900Y1948600D01*
X1665000Y1950500D01*
X1665000Y1953200D01*
X1665900Y1955000D01*
X1667700Y1956799D01*
X1670500Y1957699D01*
X1674099Y1958600D01*
X1675900Y1959499D01*
X1676800Y1961399D01*
X1676800Y1963200D01*
X1675900Y1965000D01*
X1673199Y1965900D01*
X1669499Y1965900D01*
X1837700Y1965900D02*
G01*
X1828599Y1946799D01*
X1825000Y1965900D02*
G01*
X1837700Y1965900D01*
X1935900Y1963200D02*
G01*
X1935000Y1965000D01*
X1932299Y1965900D01*
X1930500Y1965900D01*
X1927700Y1965000D01*
X1925900Y1962300D01*
X1925000Y1957699D01*
X1925000Y1953200D01*
X1925900Y1949499D01*
X1927700Y1947699D01*
X1930500Y1946799D01*
X1931400Y1946799D01*
X1934099Y1947699D01*
X1935900Y1949499D01*
X1936800Y1952300D01*
X1936800Y1953200D01*
X1935900Y1955900D01*
X1934099Y1957699D01*
X1931400Y1958600D01*
X1930500Y1958600D01*
X1927700Y1957699D01*
X1925900Y1955900D01*
X1925000Y1953200D01*
X2035900Y1965900D02*
G01*
X2026800Y1965900D01*
X2025900Y1957699D01*
X2026800Y1958600D01*
X2029499Y1959499D01*
X2032299Y1959499D01*
X2035000Y1958600D01*
X2036800Y1956799D01*
X2037700Y1954099D01*
X2037700Y1952300D01*
X2036800Y1949499D01*
X2035000Y1947699D01*
X2032299Y1946799D01*
X2029499Y1946799D01*
X2026800Y1947699D01*
X2025900Y1948600D01*
X2025000Y1950500D01*
X2134099Y1965900D02*
G01*
X2125000Y1953200D01*
X2138599Y1953200D01*
X2134099Y1965900D02*
G01*
X2134099Y1946799D01*
X2226800Y1965900D02*
G01*
X2236800Y1965900D01*
X2231400Y1958600D01*
X2234099Y1958600D01*
X2235900Y1957699D01*
X2236800Y1956799D01*
X2237700Y1954099D01*
X2237700Y1952300D01*
X2236800Y1949499D01*
X2235000Y1947699D01*
X2232299Y1946799D01*
X2229499Y1946799D01*
X2226800Y1947699D01*
X2225900Y1948600D01*
X2225000Y1950500D01*
X2325900Y1961399D02*
G01*
X2325900Y1962300D01*
X2326800Y1964099D01*
X2327700Y1965000D01*
X2329499Y1965900D01*
X2333199Y1965900D01*
X2335000Y1965000D01*
X2335900Y1964099D01*
X2336800Y1962300D01*
X2336800Y1960500D01*
X2335900Y1958600D01*
X2334099Y1955900D01*
X2325000Y1946799D01*
X2337700Y1946799D01*
X2425000Y1962300D02*
G01*
X2426800Y1963200D01*
X2429499Y1965900D01*
X2429499Y1946799D01*
X2530500Y1965900D02*
G01*
X2527700Y1965000D01*
X2525900Y1962300D01*
X2525000Y1957699D01*
X2525000Y1955000D01*
X2525900Y1950500D01*
X2527700Y1947699D01*
X2530500Y1946799D01*
X2532299Y1946799D01*
X2535000Y1947699D01*
X2536800Y1950500D01*
X2537700Y1955000D01*
X2537700Y1957699D01*
X2536800Y1962300D01*
X2535000Y1965000D01*
X2532299Y1965900D01*
X2530500Y1965900D01*
X1245000Y2065900D02*
G01*
X1245000Y2046799D01*
X1245000Y2065900D02*
G01*
X1251400Y2065900D01*
X1254099Y2065000D01*
X1255900Y2063200D01*
X1256800Y2061399D01*
X1257700Y2058600D01*
X1257700Y2054099D01*
X1256800Y2051399D01*
X1255900Y2049499D01*
X1254099Y2047699D01*
X1251400Y2046799D01*
X1245000Y2046799D01*
X1263699Y2065900D02*
G01*
X1264600Y2065000D01*
X1265500Y2065900D01*
X1264600Y2066799D01*
X1263699Y2065900D01*
X1264600Y2059499D02*
G01*
X1264600Y2046799D01*
X1282500Y2059499D02*
G01*
X1282500Y2045000D01*
X1281499Y2042300D01*
X1280600Y2041399D01*
X1278800Y2040500D01*
X1276099Y2040500D01*
X1274300Y2041399D01*
X1282500Y2056799D02*
G01*
X1280600Y2058600D01*
X1278800Y2059499D01*
X1276099Y2059499D01*
X1274300Y2058600D01*
X1272500Y2056799D01*
X1271499Y2054099D01*
X1271499Y2052300D01*
X1272500Y2049499D01*
X1274300Y2047699D01*
X1276099Y2046799D01*
X1278800Y2046799D01*
X1280600Y2047699D01*
X1282500Y2049499D01*
X1288500Y2065900D02*
G01*
X1289399Y2065000D01*
X1290299Y2065900D01*
X1289399Y2066799D01*
X1288500Y2065900D01*
X1289399Y2059499D02*
G01*
X1289399Y2046799D01*
X1298999Y2065900D02*
G01*
X1298999Y2050500D01*
X1299899Y2047699D01*
X1301700Y2046799D01*
X1303500Y2046799D01*
X1296300Y2059499D02*
G01*
X1302600Y2059499D01*
X1320500Y2059499D02*
G01*
X1320500Y2046799D01*
X1320500Y2056799D02*
G01*
X1318599Y2058600D01*
X1316800Y2059499D01*
X1314099Y2059499D01*
X1312299Y2058600D01*
X1310500Y2056799D01*
X1309499Y2054099D01*
X1309499Y2052300D01*
X1310500Y2049499D01*
X1312299Y2047699D01*
X1314099Y2046799D01*
X1316800Y2046799D01*
X1318599Y2047699D01*
X1320500Y2049499D01*
X1326499Y2065900D02*
G01*
X1326499Y2046799D01*
X1346499Y2065900D02*
G01*
X1346499Y2046799D01*
X1368800Y2069499D02*
G01*
X1352500Y2040500D01*
X1380299Y2065900D02*
G01*
X1378500Y2065000D01*
X1376599Y2063200D01*
X1375699Y2061399D01*
X1374799Y2058600D01*
X1374799Y2054099D01*
X1375699Y2051399D01*
X1376599Y2049499D01*
X1378500Y2047699D01*
X1380299Y2046799D01*
X1383900Y2046799D01*
X1385699Y2047699D01*
X1387500Y2049499D01*
X1388500Y2051399D01*
X1389399Y2054099D01*
X1389399Y2058600D01*
X1388500Y2061399D01*
X1387500Y2063200D01*
X1385699Y2065000D01*
X1383900Y2065900D01*
X1380299Y2065900D01*
X2005000Y2065900D02*
G01*
X2005000Y2046799D01*
X2005000Y2065900D02*
G01*
X2011400Y2065900D01*
X2014099Y2065000D01*
X2015900Y2063200D01*
X2016800Y2061399D01*
X2017700Y2058600D01*
X2017700Y2054099D01*
X2016800Y2051399D01*
X2015900Y2049499D01*
X2014099Y2047699D01*
X2011400Y2046799D01*
X2005000Y2046799D01*
X2023699Y2065900D02*
G01*
X2024600Y2065000D01*
X2025500Y2065900D01*
X2024600Y2066799D01*
X2023699Y2065900D01*
X2024600Y2059499D02*
G01*
X2024600Y2046799D01*
X2042500Y2059499D02*
G01*
X2042500Y2045000D01*
X2041499Y2042300D01*
X2040600Y2041399D01*
X2038800Y2040500D01*
X2036099Y2040500D01*
X2034300Y2041399D01*
X2042500Y2056799D02*
G01*
X2040600Y2058600D01*
X2038800Y2059499D01*
X2036099Y2059499D01*
X2034300Y2058600D01*
X2032500Y2056799D01*
X2031499Y2054099D01*
X2031499Y2052300D01*
X2032500Y2049499D01*
X2034300Y2047699D01*
X2036099Y2046799D01*
X2038800Y2046799D01*
X2040600Y2047699D01*
X2042500Y2049499D01*
X2048500Y2065900D02*
G01*
X2049399Y2065000D01*
X2050299Y2065900D01*
X2049399Y2066799D01*
X2048500Y2065900D01*
X2049399Y2059499D02*
G01*
X2049399Y2046799D01*
X2058999Y2065900D02*
G01*
X2058999Y2050500D01*
X2059899Y2047699D01*
X2061700Y2046799D01*
X2063500Y2046799D01*
X2056300Y2059499D02*
G01*
X2062600Y2059499D01*
X2080500Y2059499D02*
G01*
X2080500Y2046799D01*
X2080500Y2056799D02*
G01*
X2078599Y2058600D01*
X2076800Y2059499D01*
X2074099Y2059499D01*
X2072299Y2058600D01*
X2070500Y2056799D01*
X2069499Y2054099D01*
X2069499Y2052300D01*
X2070500Y2049499D01*
X2072299Y2047699D01*
X2074099Y2046799D01*
X2076800Y2046799D01*
X2078599Y2047699D01*
X2080500Y2049499D01*
X2086499Y2065900D02*
G01*
X2086499Y2046799D01*
X2106499Y2065900D02*
G01*
X2106499Y2046799D01*
X2128800Y2069499D02*
G01*
X2112500Y2040500D01*
X2140299Y2065900D02*
G01*
X2138500Y2065000D01*
X2136599Y2063200D01*
X2135699Y2061399D01*
X2134799Y2058600D01*
X2134799Y2054099D01*
X2135699Y2051399D01*
X2136599Y2049499D01*
X2138500Y2047699D01*
X2140299Y2046799D01*
X2143900Y2046799D01*
X2145699Y2047699D01*
X2147500Y2049499D01*
X2148500Y2051399D01*
X2149399Y2054099D01*
X2149399Y2058600D01*
X2148500Y2061399D01*
X2147500Y2063200D01*
X2145699Y2065000D01*
X2143900Y2065900D01*
X2140299Y2065900D01*
X707700Y1923200D02*
G01*
X705900Y1925000D01*
X703199Y1925900D01*
X699499Y1925900D01*
X696800Y1925000D01*
X695000Y1923200D01*
X695000Y1921399D01*
X695900Y1919499D01*
X696800Y1918600D01*
X698599Y1917699D01*
X704099Y1915900D01*
X705900Y1915000D01*
X706800Y1914099D01*
X707700Y1912300D01*
X707700Y1909499D01*
X705900Y1907699D01*
X703199Y1906799D01*
X699499Y1906799D01*
X696800Y1907699D01*
X695000Y1909499D01*
X727399Y1921399D02*
G01*
X726499Y1923200D01*
X724600Y1925000D01*
X722799Y1925900D01*
X719200Y1925900D01*
X717399Y1925000D01*
X715500Y1923200D01*
X714600Y1921399D01*
X713699Y1918600D01*
X713699Y1914099D01*
X714600Y1911399D01*
X715500Y1909499D01*
X717399Y1907699D01*
X719200Y1906799D01*
X722799Y1906799D01*
X724600Y1907699D01*
X726499Y1909499D01*
X727399Y1911399D01*
X733400Y1925900D02*
G01*
X733400Y1906799D01*
X733400Y1906799D02*
G01*
X744300Y1906799D01*
X797700Y2063200D02*
G01*
X795900Y2065000D01*
X793199Y2065900D01*
X789499Y2065900D01*
X786800Y2065000D01*
X785000Y2063200D01*
X785000Y2061399D01*
X785900Y2059499D01*
X786800Y2058600D01*
X788599Y2057699D01*
X794099Y2055900D01*
X795900Y2055000D01*
X796800Y2054099D01*
X797700Y2052300D01*
X797700Y2049499D01*
X795900Y2047699D01*
X793199Y2046799D01*
X789499Y2046799D01*
X786800Y2047699D01*
X785000Y2049499D01*
X803699Y2065900D02*
G01*
X803699Y2046799D01*
X803699Y2065900D02*
G01*
X810100Y2065900D01*
X812799Y2065000D01*
X814600Y2063200D01*
X815500Y2061399D01*
X816499Y2058600D01*
X816499Y2054099D01*
X815500Y2051399D01*
X814600Y2049499D01*
X812799Y2047699D01*
X810100Y2046799D01*
X803699Y2046799D01*
X829700Y2065900D02*
G01*
X822500Y2046799D01*
X829700Y2065900D02*
G01*
X836999Y2046799D01*
X825200Y2053200D02*
G01*
X834300Y2053200D01*
X1160000Y165900D02*
G01*
X1160000Y146799D01*
X1171499Y165900D02*
G01*
X1169600Y165000D01*
X1167799Y163200D01*
X1166899Y161399D01*
X1166000Y158600D01*
X1166000Y154099D01*
X1166899Y151399D01*
X1167799Y149499D01*
X1169600Y147699D01*
X1171499Y146799D01*
X1175100Y146799D01*
X1176899Y147699D01*
X1178699Y149499D01*
X1179600Y151399D01*
X1180500Y154099D01*
X1180500Y158600D01*
X1179600Y161399D01*
X1178699Y163200D01*
X1176899Y165000D01*
X1175100Y165900D01*
X1171499Y165900D01*
X1186499Y159499D02*
G01*
X1186499Y146799D01*
X1186499Y154099D02*
G01*
X1187500Y156799D01*
X1189300Y158600D01*
X1191099Y159499D01*
X1193800Y159499D01*
D10*
X1020000Y1780000D02*
G01*
X820000Y1780000D01*
X820000Y1780000D02*
G01*
X820000Y1580000D01*
X820000Y1580000D02*
G01*
X1020000Y1580000D01*
X1020000Y1580000D02*
G01*
X1020000Y1780000D01*
X920000Y1630000D02*
G01*
X920000Y1680000D01*
X870000Y1680000D02*
G01*
X920000Y1680000D01*
X920000Y1730000D02*
G01*
X920000Y1680000D01*
X920000Y1680000D02*
G01*
X970000Y1680000D01*
X1960000Y980000D02*
G01*
X2160000Y980000D01*
X2160000Y980000D02*
G01*
X2160000Y950000D01*
X2160000Y950000D02*
G01*
X2160000Y920000D01*
X2160000Y920000D02*
G01*
X1960000Y920000D01*
X1960000Y920000D02*
G01*
X1960000Y950000D01*
X1960000Y950000D02*
G01*
X1960000Y980000D01*
X2160000Y950000D02*
G01*
X2170000Y950000D01*
X1960000Y950000D02*
G01*
X1950000Y950000D01*
X1881999Y1266300D02*
G01*
X2275699Y1266300D01*
X2275699Y1089099D02*
G01*
X2275699Y1266300D01*
X1881999Y1089099D02*
G01*
X2275699Y1089099D01*
X1881999Y1089099D02*
G01*
X1881999Y1266300D01*
X1881999Y1230900D02*
G01*
X2275699Y1230900D01*
D22*
X984899Y1105100D02*
G01*
X984899Y1305100D01*
X884899Y1305100D01*
X884899Y1105100D01*
X984899Y1105100D01*
D10*
X1395000Y1195158D02*
G01*
X1495000Y1195158D01*
X1691058Y1408939D02*
G01*
X1691058Y1229807D01*
X1198930Y1408939D02*
G01*
X1198930Y1229807D01*
X1691059Y1060513D02*
G01*
X1691059Y881379D01*
X1198931Y1060511D02*
G01*
X1198931Y881379D01*
X1299319Y881379D02*
G01*
X1198919Y881379D01*
X1311132Y1408939D02*
G01*
X1198932Y1408939D01*
X1408779Y1408939D02*
G01*
X1381220Y1408939D01*
X1507992Y1408939D02*
G01*
X1480433Y1408939D01*
X1691059Y1408939D02*
G01*
X1578858Y1408939D01*
X1495195Y881379D02*
G01*
X1394804Y881379D01*
X1691059Y881379D02*
G01*
X1590668Y881379D01*
D23*
X2505000Y430000D02*
G01*
X2405000Y430000D01*
X2405000Y530000D01*
X2505000Y530000D01*
X2505000Y455000D01*
D24*
X2505000Y430000D02*
G01*
X2505000Y455000D01*
D23*
X2500000Y1170000D02*
G01*
X2400000Y1170000D01*
X2400000Y1270000D01*
X2500000Y1270000D01*
X2500000Y1195000D01*
D24*
X2500000Y1170000D02*
G01*
X2500000Y1195000D01*
D23*
X2500000Y680000D02*
G01*
X2400000Y680000D01*
X2400000Y780000D01*
X2500000Y780000D01*
X2500000Y705000D01*
D24*
X2500000Y680000D02*
G01*
X2500000Y705000D01*
D23*
X2505000Y915000D02*
G01*
X2405000Y915000D01*
X2405000Y1015000D01*
X2505000Y1015000D01*
X2505000Y940000D01*
D24*
X2505000Y915000D02*
G01*
X2505000Y940000D01*
D23*
X670000Y1680000D02*
G01*
X570000Y1680000D01*
X570000Y1780000D01*
X670000Y1780000D01*
X670000Y1705000D01*
D24*
X670000Y1680000D02*
G01*
X670000Y1705000D01*
D25*
X1838999Y677500D02*
G01*
X1838999Y472500D01*
X1731000Y472500D01*
X1731000Y677500D01*
X1838999Y677500D01*
X1838999Y497500D02*
G01*
X1731000Y497500D01*
D10*
G75*
G01*
X1395000Y1195159D02*
G03*
X1495000Y1195159I50000J-50000D01*
G75*
G01
X999000Y1680000D02*
G03X999000Y1680000I-79000J0D01*
G75*
G01
X1563110Y1145160D02*
G03X1563110Y1145160I-118110J0D01*
M02*
