G04 Layer: TopSolderMaskLayer*
G04 EasyEDA v6.4.14, 2021-01-16T22:14:06+01:00*
G04 127a1a6c01e64450920e76bbda239c08,12e5bc712d0f4a5fb02ba00eb72bdd37,10*
G04 Gerber Generator version 0.2*
G04 Scale: 100 percent, Rotated: No, Reflected: No *
G04 Dimensions in inches *
G04 leading zeros omitted , absolute positions ,3 integer and 6 decimal *
%FSLAX36Y36*%
%MOIN*%

%ADD21C,0.0945*%
%ADD27C,0.1025*%
%ADD28C,0.0820*%
%ADD30C,0.0830*%
%ADD31C,0.0550*%
%ADD32C,0.0789*%
%ADD34C,0.0930*%

%LPD*%
D27*
X1669409Y1117600D02*
G01*
X1669409Y1172719D01*
X1220590Y1117600D02*
G01*
X1220590Y1172719D01*
D21*
G01*
X675200Y1353029D03*
G01*
X675200Y1253029D03*
G01*
X675200Y1153029D03*
G01*
X675200Y1053029D03*
G01*
X675200Y953029D03*
G01*
X675200Y853029D03*
D28*
G01*
X820000Y1580000D03*
G01*
X920000Y1780000D03*
G01*
X1020000Y1580000D03*
G01*
X1910000Y950000D03*
G01*
X2210000Y950000D03*
G36*
X1937500Y1118499D02*
G01*
X1937500Y1201500D01*
X2020500Y1201500D01*
X2020500Y1118499D01*
G37*
D30*
G01*
X2078999Y1160000D03*
G01*
X2178999Y1160000D03*
D31*
G01*
X935000Y1255000D03*
G01*
X935000Y1155000D03*
D32*
G01*
X1543419Y869569D03*
G01*
X1346570Y869569D03*
G01*
X1543419Y1440430D03*
G01*
X1445000Y1440430D03*
G01*
X1346570Y1440430D03*
G36*
X2420000Y445000D02*
G01*
X2420000Y515000D01*
X2490000Y515000D01*
X2490000Y445000D01*
G37*
G36*
X2415000Y1185000D02*
G01*
X2415000Y1255000D01*
X2485000Y1255000D01*
X2485000Y1185000D01*
G37*
G36*
X2415000Y695000D02*
G01*
X2415000Y765000D01*
X2485000Y765000D01*
X2485000Y695000D01*
G37*
G36*
X2420000Y930000D02*
G01*
X2420000Y1000000D01*
X2490000Y1000000D01*
X2490000Y930000D01*
G37*
G36*
X585000Y1695000D02*
G01*
X585000Y1765000D01*
X655000Y1765000D01*
X655000Y1695000D01*
G37*
D34*
G01*
X1785000Y727500D03*
G01*
X1785000Y422500D03*
G36*
X2063000Y1968000D02*
G01*
X2063000Y2041999D01*
X2136999Y2041999D01*
X2136999Y1968000D01*
G37*
G36*
X1963000Y68000D02*
G01*
X1963000Y141999D01*
X2036999Y141999D01*
X2036999Y68000D01*
G37*
G36*
X2163000Y1968000D02*
G01*
X2163000Y2041999D01*
X2236999Y2041999D01*
X2236999Y1968000D01*
G37*
G36*
X2263000Y1968000D02*
G01*
X2263000Y2041999D01*
X2336999Y2041999D01*
X2336999Y1968000D01*
G37*
G36*
X2363000Y1968000D02*
G01*
X2363000Y2041999D01*
X2436999Y2041999D01*
X2436999Y1968000D01*
G37*
G36*
X2463000Y1968000D02*
G01*
X2463000Y2041999D01*
X2536999Y2041999D01*
X2536999Y1968000D01*
G37*
G36*
X1963000Y1968000D02*
G01*
X1963000Y2041999D01*
X2036999Y2041999D01*
X2036999Y1968000D01*
G37*
G36*
X1863000Y1968000D02*
G01*
X1863000Y2041999D01*
X1936999Y2041999D01*
X1936999Y1968000D01*
G37*
G36*
X1763000Y1968000D02*
G01*
X1763000Y2041999D01*
X1836999Y2041999D01*
X1836999Y1968000D01*
G37*
G36*
X1603000Y1968000D02*
G01*
X1603000Y2041999D01*
X1676999Y2041999D01*
X1676999Y1968000D01*
G37*
G36*
X1503000Y1968000D02*
G01*
X1503000Y2041999D01*
X1576999Y2041999D01*
X1576999Y1968000D01*
G37*
G36*
X1403000Y1968000D02*
G01*
X1403000Y2041999D01*
X1476999Y2041999D01*
X1476999Y1968000D01*
G37*
G36*
X1303000Y1968000D02*
G01*
X1303000Y2041999D01*
X1376999Y2041999D01*
X1376999Y1968000D01*
G37*
G36*
X1203000Y1968000D02*
G01*
X1203000Y2041999D01*
X1276999Y2041999D01*
X1276999Y1968000D01*
G37*
G36*
X1103000Y1968000D02*
G01*
X1103000Y2041999D01*
X1176999Y2041999D01*
X1176999Y1968000D01*
G37*
G36*
X1003000Y1968000D02*
G01*
X1003000Y2041999D01*
X1076999Y2041999D01*
X1076999Y1968000D01*
G37*
G36*
X903000Y1968000D02*
G01*
X903000Y2041999D01*
X976999Y2041999D01*
X976999Y1968000D01*
G37*
G36*
X2063000Y68000D02*
G01*
X2063000Y141999D01*
X2136999Y141999D01*
X2136999Y68000D01*
G37*
G36*
X2163000Y68000D02*
G01*
X2163000Y141999D01*
X2236999Y141999D01*
X2236999Y68000D01*
G37*
G36*
X2263000Y68000D02*
G01*
X2263000Y141999D01*
X2336999Y141999D01*
X2336999Y68000D01*
G37*
G36*
X2363000Y68000D02*
G01*
X2363000Y141999D01*
X2436999Y141999D01*
X2436999Y68000D01*
G37*
G36*
X2463000Y68000D02*
G01*
X2463000Y141999D01*
X2536999Y141999D01*
X2536999Y68000D01*
G37*
G36*
X1763000Y68000D02*
G01*
X1763000Y141999D01*
X1836999Y141999D01*
X1836999Y68000D01*
G37*
G36*
X1663000Y68000D02*
G01*
X1663000Y141999D01*
X1736999Y141999D01*
X1736999Y68000D01*
G37*
G36*
X1563000Y68000D02*
G01*
X1563000Y141999D01*
X1636999Y141999D01*
X1636999Y68000D01*
G37*
G36*
X1463000Y68000D02*
G01*
X1463000Y141999D01*
X1536999Y141999D01*
X1536999Y68000D01*
G37*
G36*
X1363000Y68000D02*
G01*
X1363000Y141999D01*
X1436999Y141999D01*
X1436999Y68000D01*
G37*
G36*
X1263000Y68000D02*
G01*
X1263000Y141999D01*
X1336999Y141999D01*
X1336999Y68000D01*
G37*
G36*
X803000Y1968000D02*
G01*
X803000Y2041999D01*
X876999Y2041999D01*
X876999Y1968000D01*
G37*
G36*
X703000Y1968000D02*
G01*
X703000Y2041999D01*
X776999Y2041999D01*
X776999Y1968000D01*
G37*
G36*
X1163000Y68000D02*
G01*
X1163000Y141999D01*
X1236999Y141999D01*
X1236999Y68000D01*
G37*
G36*
X1063000Y68000D02*
G01*
X1063000Y141999D01*
X1136999Y141999D01*
X1136999Y68000D01*
G37*
M02*
