%TF.GenerationSoftware,KiCad,Pcbnew,6.0.1-79c1e3a40b~116~ubuntu20.04.1*%
%TF.CreationDate,2022-01-30T02:47:44-05:00*%
%TF.ProjectId,Protogasm-Board-V2,50726f74-6f67-4617-936d-2d426f617264,rev?*%
%TF.SameCoordinates,PX68290a0PY76b1be0*%
%TF.FileFunction,Copper,L2,Bot*%
%TF.FilePolarity,Positive*%
%FSLAX46Y46*%
G04 Gerber Fmt 4.6, Leading zero omitted, Abs format (unit mm)*
G04 Created by KiCad (PCBNEW 6.0.1-79c1e3a40b~116~ubuntu20.04.1) date 2022-01-30 02:47:44*
%MOMM*%
%LPD*%
G01*
G04 APERTURE LIST*
G04 Aperture macros list*
%AMRotRect*
0 Rectangle, with rotation*
0 The origin of the aperture is its center*
0 $1 length*
0 $2 width*
0 $3 Rotation angle, in degrees counterclockwise*
0 Add horizontal line*
21,1,$1,$2,0,0,$3*%
G04 Aperture macros list end*
%TA.AperFunction,ComponentPad*%
%ADD10C,1.600000*%
%TD*%
%TA.AperFunction,ComponentPad*%
%ADD11O,1.600000X1.600000*%
%TD*%
%TA.AperFunction,ComponentPad*%
%ADD12R,2.000000X2.000000*%
%TD*%
%TA.AperFunction,ComponentPad*%
%ADD13C,2.000000*%
%TD*%
%TA.AperFunction,ComponentPad*%
%ADD14R,2.500000X3.000000*%
%TD*%
%TA.AperFunction,ComponentPad*%
%ADD15R,1.600000X1.600000*%
%TD*%
%TA.AperFunction,ComponentPad*%
%ADD16R,1.500000X2.300000*%
%TD*%
%TA.AperFunction,ComponentPad*%
%ADD17O,1.500000X2.300000*%
%TD*%
%TA.AperFunction,ComponentPad*%
%ADD18R,1.905000X2.000000*%
%TD*%
%TA.AperFunction,ComponentPad*%
%ADD19O,1.905000X2.000000*%
%TD*%
%TA.AperFunction,ComponentPad*%
%ADD20C,2.159000*%
%TD*%
%TA.AperFunction,ComponentPad*%
%ADD21R,1.800000X1.800000*%
%TD*%
%TA.AperFunction,ComponentPad*%
%ADD22O,1.800000X1.800000*%
%TD*%
%TA.AperFunction,ComponentPad*%
%ADD23C,1.524000*%
%TD*%
%TA.AperFunction,ComponentPad*%
%ADD24RotRect,1.981200X1.981200X240.000000*%
%TD*%
%TA.AperFunction,ComponentPad*%
%ADD25C,1.981200*%
%TD*%
%TA.AperFunction,ComponentPad*%
%ADD26C,2.540000*%
%TD*%
%TA.AperFunction,ViaPad*%
%ADD27C,0.800000*%
%TD*%
%TA.AperFunction,Conductor*%
%ADD28C,0.381000*%
%TD*%
%TA.AperFunction,Conductor*%
%ADD29C,0.250000*%
%TD*%
G04 APERTURE END LIST*
D10*
%TO.P,R1,1*%
%TO.N,/D9*%
X21336000Y40894000D03*
D11*
%TO.P,R1,2*%
%TO.N,GND*%
X13716000Y40894000D03*
%TD*%
D12*
%TO.P,SW1,A,A*%
%TO.N,/D2*%
X35266000Y34428000D03*
D13*
%TO.P,SW1,B,B*%
%TO.N,/D3*%
X30266000Y34428000D03*
%TO.P,SW1,C,C*%
%TO.N,GND*%
X32766000Y34428000D03*
D14*
%TO.P,SW1,MP*%
%TO.N,N/C*%
X38366000Y26928000D03*
X27166000Y26928000D03*
D13*
%TO.P,SW1,S1,S1*%
%TO.N,GND*%
X35266000Y19928000D03*
%TO.P,SW1,S2,S2*%
%TO.N,/D5*%
X30266000Y19928000D03*
%TD*%
D10*
%TO.P,C1,1*%
%TO.N,+5V*%
X25654000Y38354000D03*
%TO.P,C1,2*%
%TO.N,GND*%
X25654000Y40854000D03*
%TD*%
D15*
%TO.P,C3,1*%
%TO.N,+5V*%
X33782000Y9208887D03*
D10*
%TO.P,C3,2*%
%TO.N,GND*%
X33782000Y11708887D03*
%TD*%
D16*
%TO.P,U3,1,IN*%
%TO.N,+12V*%
X22191000Y6682500D03*
D17*
%TO.P,U3,2,GND*%
%TO.N,GND*%
X24731000Y6682500D03*
%TO.P,U3,3,OUT*%
%TO.N,+5V*%
X27271000Y6682500D03*
%TD*%
D18*
%TO.P,Q1,1,G*%
%TO.N,/D9*%
X20066000Y37592000D03*
D19*
%TO.P,Q1,2,D*%
%TO.N,/MOTOR-*%
X17526000Y37592000D03*
%TO.P,Q1,3,S*%
%TO.N,GND*%
X14986000Y37592000D03*
%TD*%
D15*
%TO.P,C2,1*%
%TO.N,+12V*%
X15748000Y9462887D03*
D10*
%TO.P,C2,2*%
%TO.N,GND*%
X15748000Y11962887D03*
%TD*%
D20*
%TO.P,J1,1,+5V*%
%TO.N,+5V*%
X59182000Y28194000D03*
%TO.P,J1,2,Data_Input*%
%TO.N,/D10*%
X59182000Y25654000D03*
%TO.P,J1,3,GND*%
%TO.N,GND*%
X59182000Y23114000D03*
%TD*%
D21*
%TO.P,D1,1,K*%
%TO.N,+12V*%
X6858000Y20828000D03*
D22*
%TO.P,D1,2,A*%
%TO.N,/MOTOR-*%
X6858000Y13208000D03*
%TD*%
D23*
%TO.P,R2,1,1*%
%TO.N,+5V*%
X2540000Y45974000D03*
%TO.P,R2,2,2*%
%TO.N,/AREF*%
X5080000Y51054000D03*
%TO.P,R2,3,3*%
%TO.N,GND*%
X7620000Y45974000D03*
%TD*%
%TO.P,J2,1*%
%TO.N,+12V*%
X9398000Y26543000D03*
%TO.P,J2,2*%
%TO.N,GND*%
X3398000Y26543000D03*
%TO.P,J2,3*%
%TO.N,N/C*%
X6398000Y31243000D03*
%TD*%
D15*
%TO.P,U1,1,NC*%
%TO.N,unconnected-(U1-Pad1)*%
X27940000Y2540000D03*
D11*
%TO.P,U1,2,IOREF*%
%TO.N,unconnected-(U1-Pad2)*%
X30480000Y2540000D03*
%TO.P,U1,3,~{RESET}*%
%TO.N,unconnected-(U1-Pad3)*%
X33020000Y2540000D03*
%TO.P,U1,4,3V3*%
%TO.N,unconnected-(U1-Pad4)*%
X35560000Y2540000D03*
%TO.P,U1,5,+5V*%
%TO.N,+5V*%
X38100000Y2540000D03*
%TO.P,U1,6,GND*%
%TO.N,unconnected-(U1-Pad6)*%
X40640000Y2540000D03*
%TO.P,U1,7,GND*%
%TO.N,unconnected-(U1-Pad7)*%
X43180000Y2540000D03*
%TO.P,U1,8,VIN*%
%TO.N,unconnected-(U1-Pad8)*%
X45720000Y2540000D03*
%TO.P,U1,9,A0*%
%TO.N,/A0*%
X50800000Y2540000D03*
%TO.P,U1,10,A1*%
%TO.N,unconnected-(U1-Pad10)*%
X53340000Y2540000D03*
%TO.P,U1,11,A2*%
%TO.N,unconnected-(U1-Pad11)*%
X55880000Y2540000D03*
%TO.P,U1,12,A3*%
%TO.N,unconnected-(U1-Pad12)*%
X58420000Y2540000D03*
%TO.P,U1,13,SDA/A4*%
%TO.N,unconnected-(U1-Pad13)*%
X60960000Y2540000D03*
%TO.P,U1,14,SCL/A5*%
%TO.N,unconnected-(U1-Pad14)*%
X63500000Y2540000D03*
%TO.P,U1,15,D0/RX*%
%TO.N,unconnected-(U1-Pad15)*%
X63500000Y50800000D03*
%TO.P,U1,16,D1/TX*%
%TO.N,unconnected-(U1-Pad16)*%
X60960000Y50800000D03*
%TO.P,U1,17,D2*%
%TO.N,/D2*%
X58420000Y50800000D03*
%TO.P,U1,18,D3*%
%TO.N,/D3*%
X55880000Y50800000D03*
%TO.P,U1,19,D4*%
%TO.N,unconnected-(U1-Pad19)*%
X53340000Y50800000D03*
%TO.P,U1,20,D5*%
%TO.N,/D5*%
X50800000Y50800000D03*
%TO.P,U1,21,D6*%
%TO.N,unconnected-(U1-Pad21)*%
X48260000Y50800000D03*
%TO.P,U1,22,D7*%
%TO.N,unconnected-(U1-Pad22)*%
X45720000Y50800000D03*
%TO.P,U1,23,D8*%
%TO.N,unconnected-(U1-Pad23)*%
X41660000Y50800000D03*
%TO.P,U1,24,D9*%
%TO.N,/D9*%
X39120000Y50800000D03*
%TO.P,U1,25,D10*%
%TO.N,/D10*%
X36580000Y50800000D03*
%TO.P,U1,26,D11*%
%TO.N,unconnected-(U1-Pad26)*%
X34040000Y50800000D03*
%TO.P,U1,27,D12*%
%TO.N,unconnected-(U1-Pad27)*%
X31500000Y50800000D03*
%TO.P,U1,28,D13*%
%TO.N,unconnected-(U1-Pad28)*%
X28960000Y50800000D03*
%TO.P,U1,29,GND*%
%TO.N,GND*%
X26420000Y50800000D03*
%TO.P,U1,30,AREF*%
%TO.N,/AREF*%
X23880000Y50800000D03*
%TO.P,U1,31,SDA/A4*%
%TO.N,unconnected-(U1-Pad31)*%
X21340000Y50800000D03*
%TO.P,U1,32,SCL/A5*%
%TO.N,unconnected-(U1-Pad32)*%
X18800000Y50800000D03*
%TD*%
D24*
%TO.P,U2,1,Vout*%
%TO.N,/A0*%
X25400000Y46482000D03*
D25*
%TO.P,U2,2,GND*%
%TO.N,GND*%
X27599705Y45212000D03*
%TO.P,U2,3,VCC*%
%TO.N,+5V*%
X29799409Y43942000D03*
%TO.P,U2,4,V1*%
%TO.N,unconnected-(U2-Pad4)*%
X31999114Y42672000D03*
%TO.P,U2,5,V2*%
%TO.N,unconnected-(U2-Pad5)*%
X34198818Y41402000D03*
%TO.P,U2,6,V_Ex*%
%TO.N,unconnected-(U2-Pad6)*%
X36398523Y40132000D03*
%TD*%
D26*
%TO.P,M1,1,+*%
%TO.N,+12V*%
X2032000Y19304000D03*
%TO.P,M1,2,-*%
%TO.N,/MOTOR-*%
X2032000Y14224000D03*
%TD*%
D27*
%TO.N,/D10*%
X41402000Y25654000D03*
%TO.N,/D5*%
X50800000Y22098000D03*
%TO.N,/A0*%
X47752000Y46736000D03*
%TD*%
D28*
%TO.N,+5V*%
X38100000Y4890887D02*
X33782000Y9208887D01*
X27271000Y6682500D02*
X31255613Y6682500D01*
X38100000Y2540000D02*
X38100000Y4890887D01*
X8864011Y39649989D02*
X24358011Y39649989D01*
X31255613Y6682500D02*
X33782000Y9208887D01*
X24358011Y39649989D02*
X25654000Y38354000D01*
X2540000Y45974000D02*
X8864011Y39649989D01*
%TO.N,GND*%
X24731000Y6682500D02*
X29757387Y11708887D01*
X27686000Y45125705D02*
X27599705Y45212000D01*
X7620000Y45720000D02*
X7620000Y45974000D01*
X29757387Y11708887D02*
X33782000Y11708887D01*
X4475630Y26543000D02*
X15748000Y15270630D01*
X15494000Y42672000D02*
X13716000Y40894000D01*
X27686000Y43180000D02*
X27686000Y45125705D01*
X27599705Y49620295D02*
X26420000Y50800000D01*
X23836000Y42672000D02*
X15494000Y42672000D01*
X32766000Y22428000D02*
X32766000Y34428000D01*
X25654000Y40854000D02*
X26340000Y40854000D01*
X15748000Y15270630D02*
X15748000Y11962887D01*
X25654000Y41148000D02*
X27686000Y43180000D01*
X25654000Y40854000D02*
X25654000Y41148000D01*
X19450613Y11962887D02*
X24731000Y6682500D01*
X26340000Y40854000D02*
X32766000Y34428000D01*
X35266000Y19928000D02*
X32766000Y22428000D01*
X33782000Y11708887D02*
X33782000Y18444000D01*
X33782000Y18444000D02*
X35266000Y19928000D01*
X12446000Y40894000D02*
X7620000Y45720000D01*
X27599705Y45212000D02*
X27599705Y49620295D01*
X13716000Y40894000D02*
X12446000Y40894000D01*
X15748000Y11962887D02*
X19450613Y11962887D01*
X25654000Y40854000D02*
X23836000Y42672000D01*
X3398000Y26543000D02*
X4475630Y26543000D01*
%TO.N,+12V*%
X6858000Y18352887D02*
X6858000Y20828000D01*
X15748000Y9462887D02*
X6858000Y18352887D01*
X18528387Y6682500D02*
X15748000Y9462887D01*
X22191000Y6682500D02*
X18528387Y6682500D01*
D29*
%TO.N,/D10*%
X41402000Y45978000D02*
X36580000Y50800000D01*
X41402000Y25654000D02*
X41402000Y45978000D01*
%TO.N,/D5*%
X50800000Y50800000D02*
X50800000Y22098000D01*
%TO.N,/A0*%
X47752000Y5588000D02*
X47752000Y46736000D01*
X50800000Y2540000D02*
X47752000Y5588000D01*
%TD*%
M02*
