%TF.GenerationSoftware,KiCad,Pcbnew,6.0.1-79c1e3a40b~116~ubuntu20.04.1*%
%TF.CreationDate,2022-01-30T02:47:44-05:00*%
%TF.ProjectId,Protogasm-Board-V2,50726f74-6f67-4617-936d-2d426f617264,rev?*%
%TF.SameCoordinates,PX68290a0PY76b1be0*%
%TF.FileFunction,Soldermask,Top*%
%TF.FilePolarity,Negative*%
%FSLAX46Y46*%
G04 Gerber Fmt 4.6, Leading zero omitted, Abs format (unit mm)*
G04 Created by KiCad (PCBNEW 6.0.1-79c1e3a40b~116~ubuntu20.04.1) date 2022-01-30 02:47:44*
%MOMM*%
%LPD*%
G01*
G04 APERTURE LIST*
G04 Aperture macros list*
%AMRotRect*
0 Rectangle, with rotation*
0 The origin of the aperture is its center*
0 $1 length*
0 $2 width*
0 $3 Rotation angle, in degrees counterclockwise*
0 Add horizontal line*
21,1,$1,$2,0,0,$3*%
G04 Aperture macros list end*
%ADD10C,1.600000*%
%ADD11O,1.600000X1.600000*%
%ADD12R,2.000000X2.000000*%
%ADD13C,2.000000*%
%ADD14R,2.500000X3.000000*%
%ADD15R,1.600000X1.600000*%
%ADD16R,1.500000X2.300000*%
%ADD17O,1.500000X2.300000*%
%ADD18O,3.500000X3.500000*%
%ADD19R,1.905000X2.000000*%
%ADD20O,1.905000X2.000000*%
%ADD21C,2.159000*%
%ADD22R,1.800000X1.800000*%
%ADD23O,1.800000X1.800000*%
%ADD24C,1.524000*%
%ADD25C,3.200000*%
%ADD26RotRect,1.981200X1.981200X240.000000*%
%ADD27C,1.981200*%
%ADD28C,2.540000*%
G04 APERTURE END LIST*
D10*
%TO.C,R1*%
X21336000Y40894000D03*
D11*
X13716000Y40894000D03*
%TD*%
D12*
%TO.C,SW1*%
X35266000Y34428000D03*
D13*
X30266000Y34428000D03*
X32766000Y34428000D03*
D14*
X38366000Y26928000D03*
X27166000Y26928000D03*
D13*
X35266000Y19928000D03*
X30266000Y19928000D03*
%TD*%
D10*
%TO.C,C1*%
X25654000Y38354000D03*
X25654000Y40854000D03*
%TD*%
D15*
%TO.C,C3*%
X33782000Y9208887D03*
D10*
X33782000Y11708887D03*
%TD*%
D16*
%TO.C,U3*%
X22191000Y6682500D03*
D17*
X24731000Y6682500D03*
X27271000Y6682500D03*
%TD*%
D18*
%TO.C,Q1*%
X17526000Y20932000D03*
D19*
X20066000Y37592000D03*
D20*
X17526000Y37592000D03*
X14986000Y37592000D03*
%TD*%
D15*
%TO.C,C2*%
X15748000Y9462887D03*
D10*
X15748000Y11962887D03*
%TD*%
D21*
%TO.C,J1*%
X59182000Y28194000D03*
X59182000Y25654000D03*
X59182000Y23114000D03*
%TD*%
D22*
%TO.C,D1*%
X6858000Y20828000D03*
D23*
X6858000Y13208000D03*
%TD*%
D24*
%TO.C,R2*%
X2540000Y45974000D03*
X5080000Y51054000D03*
X7620000Y45974000D03*
%TD*%
%TO.C,J2*%
X9398000Y26543000D03*
X3398000Y26543000D03*
X6398000Y31243000D03*
%TD*%
D25*
%TO.C,U1*%
X15240000Y50800000D03*
X66040000Y7620000D03*
X13970000Y2540000D03*
X66040000Y35560000D03*
D15*
X27940000Y2540000D03*
D11*
X30480000Y2540000D03*
X33020000Y2540000D03*
X35560000Y2540000D03*
X38100000Y2540000D03*
X40640000Y2540000D03*
X43180000Y2540000D03*
X45720000Y2540000D03*
X50800000Y2540000D03*
X53340000Y2540000D03*
X55880000Y2540000D03*
X58420000Y2540000D03*
X60960000Y2540000D03*
X63500000Y2540000D03*
X63500000Y50800000D03*
X60960000Y50800000D03*
X58420000Y50800000D03*
X55880000Y50800000D03*
X53340000Y50800000D03*
X50800000Y50800000D03*
X48260000Y50800000D03*
X45720000Y50800000D03*
X41660000Y50800000D03*
X39120000Y50800000D03*
X36580000Y50800000D03*
X34040000Y50800000D03*
X31500000Y50800000D03*
X28960000Y50800000D03*
X26420000Y50800000D03*
X23880000Y50800000D03*
X21340000Y50800000D03*
X18800000Y50800000D03*
%TD*%
D26*
%TO.C,U2*%
X25400000Y46482000D03*
D27*
X27599705Y45212000D03*
X29799409Y43942000D03*
X31999114Y42672000D03*
X34198818Y41402000D03*
X36398523Y40132000D03*
%TD*%
D28*
%TO.C,M1*%
X2032000Y19304000D03*
X2032000Y14224000D03*
%TD*%
M02*
