%TF.GenerationSoftware,KiCad,Pcbnew,6.0.1-79c1e3a40b~116~ubuntu20.04.1*%
%TF.CreationDate,2022-01-30T02:47:44-05:00*%
%TF.ProjectId,Protogasm-Board-V2,50726f74-6f67-4617-936d-2d426f617264,rev?*%
%TF.SameCoordinates,PX68290a0PY76b1be0*%
%TF.FileFunction,Legend,Bot*%
%TF.FilePolarity,Positive*%
%FSLAX46Y46*%
G04 Gerber Fmt 4.6, Leading zero omitted, Abs format (unit mm)*
G04 Created by KiCad (PCBNEW 6.0.1-79c1e3a40b~116~ubuntu20.04.1) date 2022-01-30 02:47:44*
%MOMM*%
%LPD*%
G01*
G04 APERTURE LIST*
G04 Aperture macros list*
%AMRotRect*
0 Rectangle, with rotation*
0 The origin of the aperture is its center*
0 $1 length*
0 $2 width*
0 $3 Rotation angle, in degrees counterclockwise*
0 Add horizontal line*
21,1,$1,$2,0,0,$3*%
G04 Aperture macros list end*
%ADD10C,0.150000*%
%ADD11C,0.100000*%
%ADD12C,0.120000*%
%ADD13C,0.254000*%
%ADD14C,1.600000*%
%ADD15O,1.600000X1.600000*%
%ADD16R,2.000000X2.000000*%
%ADD17C,2.000000*%
%ADD18R,2.500000X3.000000*%
%ADD19R,1.600000X1.600000*%
%ADD20R,1.500000X2.300000*%
%ADD21O,1.500000X2.300000*%
%ADD22O,3.500000X3.500000*%
%ADD23R,1.905000X2.000000*%
%ADD24O,1.905000X2.000000*%
%ADD25C,2.159000*%
%ADD26R,1.800000X1.800000*%
%ADD27O,1.800000X1.800000*%
%ADD28C,1.524000*%
%ADD29C,3.200000*%
%ADD30RotRect,1.981200X1.981200X240.000000*%
%ADD31C,1.981200*%
%ADD32C,2.540000*%
G04 APERTURE END LIST*
D10*
%TO.C,J2*%
X10628380Y30559334D02*
X11342666Y30559334D01*
X11485523Y30606953D01*
X11580761Y30702191D01*
X11628380Y30845048D01*
X11628380Y30940286D01*
X10723619Y30130762D02*
X10676000Y30083143D01*
X10628380Y29987905D01*
X10628380Y29749810D01*
X10676000Y29654572D01*
X10723619Y29606953D01*
X10818857Y29559334D01*
X10914095Y29559334D01*
X11056952Y29606953D01*
X11628380Y30178381D01*
X11628380Y29559334D01*
%TO.C,U1*%
X25699404Y3087620D02*
X25699404Y2278096D01*
X25651785Y2182858D01*
X25604166Y2135239D01*
X25508928Y2087620D01*
X25318452Y2087620D01*
X25223214Y2135239D01*
X25175595Y2182858D01*
X25127976Y2278096D01*
X25127976Y3087620D01*
X24127976Y2087620D02*
X24699404Y2087620D01*
X24413690Y2087620D02*
X24413690Y3087620D01*
X24508928Y2944762D01*
X24604166Y2849524D01*
X24699404Y2801905D01*
%TO.C,U2*%
X23629559Y48490746D02*
X24330627Y48085984D01*
X24389296Y47997126D01*
X24406726Y47932077D01*
X24400346Y47825789D01*
X24305108Y47660832D01*
X24216250Y47602162D01*
X24151201Y47584733D01*
X24044913Y47591112D01*
X23343845Y47995874D01*
X23212037Y47577102D02*
X23146989Y47559672D01*
X23058130Y47501003D01*
X22939083Y47294806D01*
X22932703Y47188518D01*
X22950133Y47123469D01*
X23008802Y47034611D01*
X23091280Y46986992D01*
X23238808Y46956803D01*
X24019394Y47165960D01*
X23709870Y46629849D01*
X38291378Y44556894D02*
X38990737Y43768219D01*
X37958045Y43979544D01*
X38858930Y43349446D02*
X38477978Y42689617D01*
X37822819Y42792944D02*
X37656152Y42504269D01*
X38038356Y42118647D02*
X38276451Y42531040D01*
X37410426Y43031040D01*
X37172331Y42618647D01*
X37871690Y41829971D02*
X37032435Y41709672D01*
X37294339Y42163305D02*
X37609785Y41376339D01*
X31687378Y48112894D02*
X32386737Y47324219D01*
X31354045Y47535544D01*
X31685211Y46299616D02*
X31750260Y46317046D01*
X31862928Y46416954D01*
X31910547Y46499433D01*
X31940736Y46646960D01*
X31905876Y46777058D01*
X31847207Y46865916D01*
X31706060Y47002394D01*
X31582342Y47073822D01*
X31393575Y47127821D01*
X31287287Y47134201D01*
X31157189Y47099341D01*
X31044521Y46999433D01*
X30996902Y46916954D01*
X30966713Y46769427D01*
X30984143Y46704378D01*
X31185211Y45433591D02*
X31250260Y45451020D01*
X31362928Y45550929D01*
X31410547Y45633407D01*
X31440736Y45780935D01*
X31405876Y45911032D01*
X31347207Y45999891D01*
X31206060Y46136368D01*
X31082342Y46207797D01*
X30893575Y46261796D01*
X30787287Y46268175D01*
X30657189Y46233316D01*
X30544521Y46133407D01*
X30496902Y46050929D01*
X30466713Y45903401D01*
X30484143Y45838352D01*
X35243378Y44556893D02*
X35942737Y43768218D01*
X34910045Y43979543D01*
X34849667Y43684488D02*
X34784618Y43667058D01*
X34695759Y43608389D01*
X34576712Y43402192D01*
X34570332Y43295904D01*
X34587762Y43230855D01*
X34646431Y43141997D01*
X34728910Y43094378D01*
X34876437Y43064189D01*
X35657023Y43273346D01*
X35347499Y42737235D01*
X32957378Y45826895D02*
X33656737Y45038220D01*
X32624045Y45249545D01*
X33061499Y44007237D02*
X33347213Y44502109D01*
X33204356Y44254673D02*
X32338331Y44754673D01*
X32509668Y44765723D01*
X32639765Y44800583D01*
X32728624Y44859252D01*
X27369378Y50652894D02*
X28068737Y49864219D01*
X27036045Y50075544D01*
X27663975Y49163151D02*
X27670355Y49269439D01*
X27652925Y49334488D01*
X27594256Y49423346D01*
X27346820Y49566203D01*
X27240532Y49572583D01*
X27175483Y49555153D01*
X27086625Y49496484D01*
X27015196Y49372766D01*
X27008817Y49266478D01*
X27026246Y49201429D01*
X27084916Y49112571D01*
X27332351Y48969714D01*
X27438640Y48963334D01*
X27503688Y48980764D01*
X27592547Y49039433D01*
X27663975Y49163151D01*
X26491387Y48465501D02*
X27068737Y48132168D01*
X26705673Y48836655D02*
X27159305Y48574750D01*
X27217974Y48485892D01*
X27211594Y48379604D01*
X27140166Y48255886D01*
X27051307Y48197217D01*
X26986259Y48179787D01*
X26324720Y48176826D02*
X26134244Y47846912D01*
X25964617Y48219775D02*
X26706924Y47791204D01*
X26765593Y47702345D01*
X26759213Y47596057D01*
X26711594Y47513578D01*
X15361488Y30521084D02*
X15861488Y31387110D01*
X15215670Y30935187D01*
X15284137Y31720443D01*
X14784137Y30854418D01*
X14371744Y31092513D02*
X14871744Y31958538D01*
X14541830Y32149014D01*
X14435542Y32155394D01*
X14370493Y32137964D01*
X14281634Y32079295D01*
X14210206Y31955577D01*
X14203826Y31849289D01*
X14221256Y31784240D01*
X14279925Y31695382D01*
X14609839Y31504906D01*
X14088197Y32410919D02*
X13010847Y31878227D01*
X13510847Y32744253D02*
X13588197Y31544894D01*
X12768540Y33172824D02*
X13180933Y32934729D01*
X12984077Y32498526D01*
X12966647Y32563575D01*
X12907978Y32652433D01*
X12701781Y32771481D01*
X12595493Y32777861D01*
X12530444Y32760431D01*
X12441586Y32701762D01*
X12322538Y32495565D01*
X12316159Y32389277D01*
X12333588Y32324228D01*
X12392258Y32235370D01*
X12598454Y32116322D01*
X12704742Y32109943D01*
X12769791Y32127372D01*
X12191189Y33506157D02*
X12108711Y33553776D01*
X12002423Y33560156D01*
X11937374Y33542726D01*
X11848515Y33484057D01*
X11712038Y33342909D01*
X11592990Y33136713D01*
X11538992Y32947946D01*
X11532612Y32841658D01*
X11550042Y32776609D01*
X11608711Y32687751D01*
X11691189Y32640132D01*
X11797478Y32633752D01*
X11862526Y32651182D01*
X11951385Y32709851D01*
X12087862Y32850999D01*
X12206910Y33057195D01*
X12260908Y33245962D01*
X12267288Y33352250D01*
X12249858Y33417299D01*
X12191189Y33506157D01*
X11118967Y34125205D02*
X11531360Y33887110D01*
X11334505Y33450907D01*
X11317075Y33515956D01*
X11258406Y33604814D01*
X11052209Y33723862D01*
X10945921Y33730242D01*
X10880872Y33712812D01*
X10792014Y33654143D01*
X10672966Y33447946D01*
X10666586Y33341658D01*
X10684016Y33276609D01*
X10742685Y33187751D01*
X10948882Y33068703D01*
X11055170Y33062324D01*
X11120219Y33079753D01*
X10541617Y34458538D02*
X10459139Y34506157D01*
X10352850Y34512537D01*
X10287802Y34495107D01*
X10198943Y34436438D01*
X10062466Y34295290D01*
X9943418Y34089094D01*
X9889419Y33900327D01*
X9883040Y33794039D01*
X9900469Y33728990D01*
X9959139Y33640132D01*
X10041617Y33592513D01*
X10147905Y33586133D01*
X10212954Y33603563D01*
X10301812Y33662232D01*
X10438290Y33803380D01*
X10557338Y34009576D01*
X10611336Y34198343D01*
X10617716Y34304631D01*
X10600286Y34369680D01*
X10541617Y34458538D01*
X9404346Y35060156D02*
X9510635Y35053776D01*
X9634352Y34982348D01*
X9734261Y34869680D01*
X9769120Y34739582D01*
X9762741Y34633294D01*
X9708742Y34444527D01*
X9637313Y34320809D01*
X9500836Y34179662D01*
X9411978Y34120993D01*
X9281880Y34086133D01*
X9134352Y34116322D01*
X9051874Y34163941D01*
X8951965Y34276609D01*
X8934536Y34341658D01*
X9101202Y34630333D01*
X9266160Y34535095D01*
X8515763Y34473465D02*
X9015763Y35339491D01*
X8685848Y35529967D01*
X8579560Y35536347D01*
X8514511Y35518917D01*
X8425653Y35460248D01*
X8354225Y35336530D01*
X8347845Y35230242D01*
X8365275Y35165193D01*
X8423944Y35076334D01*
X8753858Y34885858D01*
X29109284Y48781734D02*
X29115664Y48888022D01*
X29187093Y49011740D01*
X29299761Y49111649D01*
X29429858Y49146508D01*
X29536146Y49140128D01*
X29724913Y49086130D01*
X29848631Y49014701D01*
X29989779Y48878224D01*
X30048448Y48789365D01*
X30083307Y48659268D01*
X30053118Y48511740D01*
X30005499Y48429262D01*
X29892831Y48329353D01*
X29827782Y48311923D01*
X29539107Y48478590D01*
X29634345Y48643547D01*
X29695975Y47893151D02*
X28829950Y48393151D01*
X29410261Y47398279D01*
X28544236Y47898279D01*
X29172166Y46985886D02*
X28306140Y47485886D01*
X28187093Y47279689D01*
X28156903Y47132162D01*
X28191763Y47002064D01*
X28250432Y46913206D01*
X28391580Y46776729D01*
X28515298Y46705300D01*
X28704064Y46651301D01*
X28810353Y46644921D01*
X28940450Y46679781D01*
X29053118Y46779689D01*
X29172166Y46985886D01*
X28406916Y36951489D02*
X27540890Y37451489D01*
X27992813Y36805671D01*
X27207557Y36874138D01*
X28073582Y36374138D01*
X27835487Y35961745D02*
X26969462Y36461745D01*
X26778986Y36131831D01*
X26772606Y36025543D01*
X26790036Y35960494D01*
X26848705Y35871635D01*
X26972423Y35800207D01*
X27078711Y35793827D01*
X27143760Y35811257D01*
X27232618Y35869926D01*
X27423094Y36199840D01*
X26517081Y35678198D02*
X27049773Y34600848D01*
X26183747Y35100848D02*
X27383106Y35178198D01*
X25755176Y34358541D02*
X25993271Y34770934D01*
X26429474Y34574078D01*
X26364425Y34556648D01*
X26275567Y34497979D01*
X26156519Y34291782D01*
X26150139Y34185494D01*
X26167569Y34120445D01*
X26226238Y34031587D01*
X26432435Y33912539D01*
X26538723Y33906160D01*
X26603772Y33923589D01*
X26692630Y33982259D01*
X26811678Y34188455D01*
X26818057Y34294743D01*
X26800628Y34359792D01*
X25421843Y33781190D02*
X25374224Y33698712D01*
X25367844Y33592424D01*
X25385274Y33527375D01*
X25443943Y33438516D01*
X25585091Y33302039D01*
X25791287Y33182991D01*
X25980054Y33128993D01*
X26086342Y33122613D01*
X26151391Y33140043D01*
X26240249Y33198712D01*
X26287868Y33281190D01*
X26294248Y33387479D01*
X26276818Y33452527D01*
X26218149Y33541386D01*
X26077001Y33677863D01*
X25870805Y33796911D01*
X25682038Y33850909D01*
X25575750Y33857289D01*
X25510701Y33839859D01*
X25421843Y33781190D01*
X24802795Y32708968D02*
X25040890Y33121361D01*
X25477093Y32924506D01*
X25412044Y32907076D01*
X25323186Y32848407D01*
X25204138Y32642210D01*
X25197758Y32535922D01*
X25215188Y32470873D01*
X25273857Y32382015D01*
X25480054Y32262967D01*
X25586342Y32256587D01*
X25651391Y32274017D01*
X25740249Y32332686D01*
X25859297Y32538883D01*
X25865676Y32645171D01*
X25848247Y32710220D01*
X24469462Y32131618D02*
X24421843Y32049140D01*
X24415463Y31942851D01*
X24432893Y31877803D01*
X24491562Y31788944D01*
X24632710Y31652467D01*
X24838906Y31533419D01*
X25027673Y31479420D01*
X25133961Y31473041D01*
X25199010Y31490470D01*
X25287868Y31549140D01*
X25335487Y31631618D01*
X25341867Y31737906D01*
X25324437Y31802955D01*
X25265768Y31891813D01*
X25124620Y32028291D01*
X24918424Y32147339D01*
X24729657Y32201337D01*
X24623369Y32207717D01*
X24558320Y32190287D01*
X24469462Y32131618D01*
X23867844Y30994347D02*
X23874224Y31100636D01*
X23945652Y31224353D01*
X24058320Y31324262D01*
X24188418Y31359121D01*
X24294706Y31352742D01*
X24483473Y31298743D01*
X24607191Y31227314D01*
X24748338Y31090837D01*
X24807007Y31001979D01*
X24841867Y30871881D01*
X24811678Y30724353D01*
X24764059Y30641875D01*
X24651391Y30541966D01*
X24586342Y30524537D01*
X24297667Y30691203D01*
X24392905Y30856161D01*
X24454535Y30105764D02*
X23588509Y30605764D01*
X23398033Y30275849D01*
X23391653Y30169561D01*
X23409083Y30104512D01*
X23467752Y30015654D01*
X23591470Y29944226D01*
X23697758Y29937846D01*
X23762807Y29955276D01*
X23851666Y30013945D01*
X24042142Y30343859D01*
%TO.C,M1*%
X5506404Y16057620D02*
X5506404Y17057620D01*
X5173071Y16343334D01*
X4839738Y17057620D01*
X4839738Y16057620D01*
X3839738Y16057620D02*
X4411166Y16057620D01*
X4125452Y16057620D02*
X4125452Y17057620D01*
X4220690Y16914762D01*
X4315928Y16819524D01*
X4411166Y16771905D01*
X5901738Y19122572D02*
X3966500Y19122572D01*
X4934119Y18154953D02*
X4934119Y20090191D01*
X3986404Y11231620D02*
X3986404Y12231620D01*
X3653071Y11517334D01*
X3319738Y12231620D01*
X3319738Y11231620D01*
X2700690Y11231620D02*
X2795928Y11279239D01*
X2843547Y11326858D01*
X2891166Y11422096D01*
X2891166Y11707810D01*
X2843547Y11803048D01*
X2795928Y11850667D01*
X2700690Y11898286D01*
X2557833Y11898286D01*
X2462595Y11850667D01*
X2414976Y11803048D01*
X2367357Y11707810D01*
X2367357Y11422096D01*
X2414976Y11326858D01*
X2462595Y11279239D01*
X2557833Y11231620D01*
X2700690Y11231620D01*
X2081642Y11898286D02*
X1700690Y11898286D01*
X1938785Y12231620D02*
X1938785Y11374477D01*
X1891166Y11279239D01*
X1795928Y11231620D01*
X1700690Y11231620D01*
X1224500Y11231620D02*
X1319738Y11279239D01*
X1367357Y11326858D01*
X1414976Y11422096D01*
X1414976Y11707810D01*
X1367357Y11803048D01*
X1319738Y11850667D01*
X1224500Y11898286D01*
X1081642Y11898286D01*
X986404Y11850667D01*
X938785Y11803048D01*
X891166Y11707810D01*
X891166Y11422096D01*
X938785Y11326858D01*
X986404Y11279239D01*
X1081642Y11231620D01*
X1224500Y11231620D01*
X462595Y11231620D02*
X462595Y11898286D01*
X462595Y11707810D02*
X414976Y11803048D01*
X367357Y11850667D01*
X272119Y11898286D01*
X176880Y11898286D01*
X5901738Y14296572D02*
X3966500Y14296572D01*
D11*
%TO.C,J2*%
X-4572000Y30861000D02*
X5588000Y30861000D01*
D12*
X10160000Y30861000D02*
X7366000Y30861000D01*
X10160000Y21971000D02*
X10160000Y26035000D01*
X10160000Y30861000D02*
X10160000Y27051000D01*
D11*
X10160000Y21971000D02*
X-4572000Y21971000D01*
X-4572000Y21971000D02*
X-4572000Y30861000D01*
D12*
X-4572000Y21971000D02*
X-2794000Y21971000D01*
X-2794000Y21971000D02*
X-2794000Y30861000D01*
X-2794000Y30861000D02*
X-4572000Y30861000D01*
X-4572000Y30861000D02*
X-4572000Y21971000D01*
%TO.C,U1*%
X64520000Y53470000D02*
X66170000Y51820000D01*
X-6480000Y43940000D02*
X-130000Y43940000D01*
X68710000Y37850000D02*
X68710000Y5080000D01*
X-2030000Y3050000D02*
X-2030000Y12190000D01*
X-130000Y53470000D02*
X64520000Y53470000D01*
X-2030000Y12190000D02*
X-130000Y12190000D01*
X-130000Y32260000D02*
X-6480000Y32260000D01*
X66170000Y-130000D02*
X-130000Y-130000D01*
X-130000Y12190000D02*
X-130000Y32260000D01*
X-130000Y-130000D02*
X-130000Y3050000D01*
X-130000Y3050000D02*
X-2030000Y3050000D01*
X66170000Y40390000D02*
X68710000Y37850000D01*
X-6480000Y32260000D02*
X-6480000Y43940000D01*
X68710000Y5080000D02*
X66170000Y2540000D01*
X-130000Y43940000D02*
X-130000Y53470000D01*
X66170000Y2540000D02*
X66170000Y-130000D01*
X66170000Y51820000D02*
X66170000Y40390000D01*
%TO.C,U2*%
X34201113Y40245975D02*
X33236113Y38574546D01*
X28736493Y43400975D02*
X28248993Y42556600D01*
X26984320Y42946122D02*
X27619320Y44045975D01*
X23903301Y43789642D02*
X24443301Y44724949D01*
X25549468Y43000885D02*
X27027621Y42921122D01*
X23871725Y45054949D02*
X24321725Y45834372D01*
X32018729Y41505975D02*
X31511229Y40626959D01*
X22784045Y43131033D02*
X23349045Y44109642D01*
X24443301Y44724949D02*
X23871725Y45054949D01*
X33187863Y40830975D02*
X32482863Y39609879D01*
X29801704Y42785975D02*
X29404204Y42097484D01*
X26562769Y44655975D02*
X25597769Y42984546D01*
X36400817Y38975975D02*
X34700817Y36031488D01*
X30979498Y42105975D02*
X30579498Y41413154D01*
X35407388Y39555305D02*
X34072388Y37243017D01*
X23349045Y44109642D02*
X23903301Y43789642D01*
X25369615Y45229372D02*
X24099615Y43029668D01*
D13*
X33061135Y29501474D02*
G75*
G03*
X37766021Y26900576I2352443J-1300449D01*
G01*
X17624231Y38413974D02*
G75*
G03*
X13198351Y40998124I-2212940J1292075D01*
G01*
G36*
X13636761Y25536150D02*
G01*
X15402781Y28594986D01*
X15316194Y28908283D01*
X15290119Y28997144D01*
X15287269Y29005570D01*
X15551072Y29005570D01*
X15595246Y28832497D01*
X15639419Y28659424D01*
X18865489Y26796852D01*
X18937266Y26755411D01*
X19109239Y26803692D01*
X19281211Y26851973D01*
X15551072Y29005570D01*
X15287269Y29005570D01*
X15247872Y29122064D01*
X15209144Y29215926D01*
X15179880Y29263250D01*
X15176150Y29266480D01*
X15165615Y29279578D01*
X15162057Y29298831D01*
X15168211Y29329728D01*
X15186811Y29377755D01*
X15189990Y29384403D01*
X15427872Y29384403D01*
X15434079Y29379802D01*
X15485935Y29347946D01*
X15586599Y29288295D01*
X15682053Y29232436D01*
X15731496Y29203502D01*
X15916053Y29096216D01*
X16135695Y28969088D01*
X16385848Y28824767D01*
X16661938Y28665903D01*
X16959391Y28495146D01*
X17273632Y28315146D01*
X19115240Y27261381D01*
X18943978Y27443992D01*
X18907955Y27482470D01*
X18680351Y27729562D01*
X18475820Y27960298D01*
X18288528Y28182794D01*
X18112645Y28405173D01*
X17942335Y28635554D01*
X17771767Y28882057D01*
X17595108Y29152803D01*
X17406524Y29455910D01*
X17200184Y29799501D01*
X16970255Y30191693D01*
X16433507Y31115100D01*
X15928614Y30257498D01*
X15868240Y30154788D01*
X15748931Y29950804D01*
X15642827Y29768056D01*
X15553797Y29613292D01*
X15485714Y29493263D01*
X15442449Y29414717D01*
X15427872Y29384403D01*
X15189990Y29384403D01*
X15220589Y29448402D01*
X15272283Y29547154D01*
X15344626Y29679502D01*
X15440352Y29850932D01*
X15562197Y30066934D01*
X15712893Y30332993D01*
X16295635Y31361067D01*
X14277584Y34811995D01*
X14043776Y35212192D01*
X13796472Y35636328D01*
X13558969Y36044515D01*
X13333318Y36433193D01*
X13121565Y36798802D01*
X12925761Y37137782D01*
X12747956Y37446572D01*
X12590199Y37721616D01*
X12454540Y37959349D01*
X12343028Y38156214D01*
X12257713Y38308650D01*
X12200644Y38413099D01*
X12173871Y38465999D01*
X12157337Y38507489D01*
X12099323Y38686197D01*
X12043047Y38906600D01*
X11992568Y39151555D01*
X11951942Y39403912D01*
X11948985Y39426940D01*
X11941639Y39579059D01*
X12179460Y39579059D01*
X12223869Y39197806D01*
X12319752Y38797096D01*
X12322534Y38787643D01*
X12336277Y38743122D01*
X12352082Y38696975D01*
X12371458Y38646525D01*
X12395913Y38589094D01*
X12426957Y38522005D01*
X12466098Y38442581D01*
X12514845Y38348143D01*
X12574705Y38236016D01*
X12647189Y38103521D01*
X12733803Y37947982D01*
X12836057Y37766719D01*
X12955460Y37557057D01*
X13093521Y37316319D01*
X13251745Y37041826D01*
X13431645Y36730901D01*
X13634727Y36380867D01*
X13862501Y35989047D01*
X14116474Y35552763D01*
X14398156Y35069338D01*
X14709055Y34536095D01*
X15050679Y33950354D01*
X15309028Y33507598D01*
X15666788Y32895120D01*
X15995212Y32333802D01*
X16295836Y31821134D01*
X16570199Y31354605D01*
X16571001Y31353247D01*
X16819837Y30931704D01*
X17046286Y30549921D01*
X17251084Y30206745D01*
X17435768Y29899667D01*
X17601873Y29626173D01*
X17750937Y29383756D01*
X17884498Y29169903D01*
X18004092Y28982103D01*
X18111256Y28817849D01*
X18207526Y28674625D01*
X18294439Y28549925D01*
X18373534Y28441236D01*
X18446345Y28346049D01*
X18514412Y28261851D01*
X18579269Y28186134D01*
X18608438Y28153283D01*
X18763939Y27983758D01*
X18941770Y27797266D01*
X19131102Y27604566D01*
X19321102Y27416415D01*
X19500938Y27243569D01*
X19659782Y27096787D01*
X19786801Y26986824D01*
X20009474Y26816077D01*
X20293594Y26619297D01*
X20611246Y26416081D01*
X20948692Y26214360D01*
X21292196Y26022064D01*
X21628022Y25847125D01*
X21942433Y25697473D01*
X22221695Y25581038D01*
X22250726Y25570299D01*
X22420867Y25512997D01*
X22635675Y25447395D01*
X22675922Y25435900D01*
X22880416Y25377495D01*
X23140361Y25307298D01*
X23400776Y25240805D01*
X23646931Y25182019D01*
X23864094Y25134939D01*
X23929281Y25122439D01*
X24032988Y25105122D01*
X24147625Y25089216D01*
X24276137Y25074644D01*
X24421465Y25061330D01*
X24586551Y25049199D01*
X24774339Y25038176D01*
X24987771Y25028184D01*
X25229790Y25019148D01*
X25503339Y25010992D01*
X25811360Y25003640D01*
X26156796Y24997018D01*
X26542590Y24991050D01*
X26971684Y24985658D01*
X27447021Y24980769D01*
X27706914Y24978557D01*
X27971544Y24976305D01*
X28548197Y24972193D01*
X29179919Y24968354D01*
X29869657Y24964716D01*
X30620350Y24961201D01*
X30768873Y24960542D01*
X31433840Y24957630D01*
X32038631Y24955086D01*
X32586319Y24952942D01*
X33079976Y24951231D01*
X33522676Y24949984D01*
X33917492Y24949235D01*
X34267496Y24949014D01*
X34575762Y24949354D01*
X34845362Y24950289D01*
X35079370Y24951849D01*
X35280858Y24954067D01*
X35452900Y24956974D01*
X35598568Y24960605D01*
X35720935Y24964990D01*
X35823075Y24970162D01*
X35908060Y24976152D01*
X35978962Y24982994D01*
X36038857Y24990720D01*
X36090815Y24999361D01*
X36137910Y25008950D01*
X36183215Y25019520D01*
X36304393Y25050813D01*
X36685621Y25177630D01*
X37028626Y25341743D01*
X37348780Y25551422D01*
X37661459Y25814940D01*
X37716950Y25868262D01*
X37839383Y25994885D01*
X37951020Y26121140D01*
X38033119Y26226281D01*
X38102049Y26324754D01*
X38170620Y26421843D01*
X38218254Y26488315D01*
X38304390Y26630197D01*
X38397933Y26834824D01*
X38485865Y27076085D01*
X38563996Y27339700D01*
X38628134Y27611392D01*
X38674089Y27876881D01*
X38697671Y28121889D01*
X38700434Y28217655D01*
X38696806Y28333026D01*
X38683069Y28453566D01*
X38656980Y28593227D01*
X38616294Y28765964D01*
X38558767Y28985730D01*
X38405756Y29554542D01*
X36255763Y33211021D01*
X35995392Y33653833D01*
X35720892Y34120669D01*
X35449244Y34582651D01*
X35183134Y35035215D01*
X34925246Y35473790D01*
X34678266Y35893815D01*
X34444879Y36290720D01*
X34227769Y36659940D01*
X34029622Y36996909D01*
X33853123Y37297060D01*
X33700957Y37555827D01*
X33575808Y37768643D01*
X33480364Y37930943D01*
X33456331Y37971755D01*
X33207025Y38387811D01*
X32978785Y38753523D01*
X32766455Y39075963D01*
X32564883Y39362199D01*
X32368912Y39619300D01*
X32173392Y39854337D01*
X31973166Y40074378D01*
X31763083Y40286493D01*
X31281238Y40729823D01*
X30753093Y41157343D01*
X30213282Y41531552D01*
X29652506Y41857817D01*
X29061468Y42141506D01*
X28430866Y42387991D01*
X27751405Y42602636D01*
X27724847Y42610121D01*
X27436292Y42684819D01*
X27145008Y42747102D01*
X26842293Y42797897D01*
X26519449Y42838134D01*
X26167776Y42868741D01*
X25778577Y42890647D01*
X25343151Y42904780D01*
X24852798Y42912070D01*
X24675842Y42913488D01*
X24431891Y42915438D01*
X24134360Y42917813D01*
X23788547Y42920572D01*
X23399748Y42923670D01*
X22973261Y42927068D01*
X22514382Y42930723D01*
X22028409Y42934592D01*
X21520639Y42938633D01*
X20996368Y42942804D01*
X20460895Y42947063D01*
X19919515Y42951368D01*
X19377527Y42955675D01*
X15135926Y42989384D01*
X14566814Y42837490D01*
X14436069Y42801657D01*
X14182071Y42723485D01*
X13969369Y42641439D01*
X13782696Y42547216D01*
X13606784Y42432515D01*
X13426366Y42289032D01*
X13226173Y42108466D01*
X13135945Y42020985D01*
X12832239Y41674373D01*
X12586716Y41301540D01*
X12399089Y40901995D01*
X12269067Y40475245D01*
X12242923Y40353881D01*
X12185989Y39958528D01*
X12179460Y39579059D01*
X11941639Y39579059D01*
X11936687Y39681594D01*
X11953239Y39973039D01*
X11995793Y40284450D01*
X12061498Y40599003D01*
X12147507Y40899870D01*
X12250972Y41170227D01*
X12318213Y41310154D01*
X12522680Y41651955D01*
X12773074Y41978645D01*
X13059561Y42280482D01*
X13372307Y42547726D01*
X13701474Y42770635D01*
X14037231Y42939468D01*
X14063693Y42950108D01*
X14247137Y43013507D01*
X14463182Y43074704D01*
X14693357Y43129607D01*
X14919193Y43174125D01*
X15122220Y43204169D01*
X15283969Y43215645D01*
X15366575Y43215803D01*
X15512675Y43215501D01*
X15709746Y43214726D01*
X15952796Y43213517D01*
X16236829Y43211913D01*
X16556852Y43209952D01*
X16907869Y43207674D01*
X17284887Y43205118D01*
X17682911Y43202322D01*
X18096947Y43199325D01*
X18522001Y43196168D01*
X18953077Y43192887D01*
X19385182Y43189522D01*
X19813322Y43186113D01*
X20232501Y43182698D01*
X20637727Y43179316D01*
X21024003Y43176005D01*
X21386337Y43172806D01*
X21719733Y43169757D01*
X22019198Y43166897D01*
X22279736Y43164264D01*
X22496353Y43161898D01*
X22664056Y43159838D01*
X22777849Y43158121D01*
X22832739Y43156790D01*
X22942902Y43149863D01*
X23066801Y43138406D01*
X23156242Y43126044D01*
X23167239Y43124098D01*
X23240797Y43119415D01*
X23278962Y43131524D01*
X23282297Y43133966D01*
X23330760Y43142612D01*
X23423427Y43149031D01*
X23544513Y43153024D01*
X23678233Y43154388D01*
X23808801Y43152923D01*
X23920432Y43148425D01*
X23997341Y43140694D01*
X24043670Y43137164D01*
X24140231Y43136784D01*
X24255745Y43140969D01*
X24364464Y43145026D01*
X24534806Y43148058D01*
X24742504Y43149516D01*
X24973518Y43149453D01*
X25213809Y43147923D01*
X25449336Y43144976D01*
X25666060Y43140665D01*
X25849942Y43135042D01*
X25994917Y43127597D01*
X26240009Y43108549D01*
X26493768Y43082295D01*
X26738058Y43051011D01*
X26954741Y43016872D01*
X27125678Y42982051D01*
X27221053Y42960556D01*
X27327456Y42940430D01*
X27397712Y42931727D01*
X27453998Y42925337D01*
X27583213Y42897664D01*
X27756189Y42851062D01*
X27963567Y42788593D01*
X28195992Y42713318D01*
X28444107Y42628301D01*
X28698555Y42536603D01*
X28949981Y42441288D01*
X29189028Y42345417D01*
X29324070Y42287366D01*
X29621070Y42146974D01*
X29773448Y42067294D01*
X29923622Y41988766D01*
X30215116Y41822039D01*
X30478940Y41656096D01*
X30698486Y41500234D01*
X30871179Y41365202D01*
X31162220Y41129072D01*
X31448887Y40886620D01*
X31719055Y40648397D01*
X31960601Y40424955D01*
X32161403Y40226850D01*
X32197245Y40189025D01*
X32322476Y40047346D01*
X32466017Y39873728D01*
X32620409Y39678255D01*
X32778193Y39471004D01*
X32931911Y39262057D01*
X33074106Y39061497D01*
X33197316Y38879404D01*
X33294085Y38725857D01*
X33356955Y38610939D01*
X33360402Y38604058D01*
X33393327Y38544221D01*
X33454064Y38437529D01*
X33538833Y38290495D01*
X33643857Y38109629D01*
X33765356Y37901442D01*
X33899554Y37672447D01*
X34042670Y37429154D01*
X34064529Y37392063D01*
X34211380Y37142778D01*
X34352427Y36903190D01*
X34483226Y36680857D01*
X34599334Y36483335D01*
X34696310Y36318180D01*
X34769711Y36192951D01*
X34815093Y36115206D01*
X34844586Y36064718D01*
X34905853Y35960208D01*
X34995110Y35808148D01*
X35110044Y35612471D01*
X35248344Y35377114D01*
X35407695Y35106010D01*
X35585784Y34803094D01*
X35780299Y34472302D01*
X35988927Y34117568D01*
X36209353Y33742826D01*
X36439265Y33352012D01*
X36676350Y32949060D01*
X36893861Y32579346D01*
X37124084Y32187910D01*
X37344857Y31812416D01*
X37553888Y31456775D01*
X37748876Y31124901D01*
X37927526Y30820705D01*
X38087541Y30548101D01*
X38226623Y30311000D01*
X38342474Y30113315D01*
X38432799Y29958959D01*
X38495300Y29851842D01*
X38527680Y29795880D01*
X38539106Y29775170D01*
X38611212Y29620478D01*
X38686916Y29423803D01*
X38760526Y29203186D01*
X38826349Y28976667D01*
X38878697Y28762287D01*
X38911875Y28578086D01*
X38927970Y28371981D01*
X38922694Y28071166D01*
X38890616Y27748504D01*
X38834473Y27422952D01*
X38757001Y27113472D01*
X38660934Y26839021D01*
X38621083Y26746979D01*
X38403790Y26338665D01*
X38136032Y25969160D01*
X37816197Y25636169D01*
X37782578Y25606020D01*
X37606380Y25459777D01*
X37413830Y25315870D01*
X37220420Y25184902D01*
X37041640Y25077476D01*
X36892981Y25004197D01*
X36685533Y24924931D01*
X36466887Y24851589D01*
X36255763Y24789856D01*
X36069048Y24744669D01*
X35923631Y24720960D01*
X35882702Y24719054D01*
X35776890Y24716994D01*
X35614594Y24715328D01*
X35399957Y24714056D01*
X35137122Y24713179D01*
X34830233Y24712696D01*
X34483429Y24712609D01*
X34100856Y24712919D01*
X33686655Y24713626D01*
X33244970Y24714730D01*
X32779940Y24716232D01*
X32295712Y24718132D01*
X31796426Y24720431D01*
X27878578Y24739803D01*
X27259565Y23699588D01*
X27195708Y23592302D01*
X27048670Y23345636D01*
X26929588Y23146979D01*
X26835097Y22991295D01*
X26761834Y22873545D01*
X26706432Y22788694D01*
X26665528Y22731703D01*
X26635759Y22697537D01*
X26613757Y22681157D01*
X26596161Y22677527D01*
X26579603Y22681610D01*
X26550159Y22684560D01*
X26463908Y22676323D01*
X26343076Y22654667D01*
X26204039Y22622183D01*
X25889423Y22540521D01*
X24123403Y19481684D01*
X24331790Y19361372D01*
X24339304Y19356924D01*
X24401048Y19320373D01*
X24483858Y19264653D01*
X24524177Y19223226D01*
X24531714Y19187658D01*
X24531328Y19186437D01*
X24507177Y19148027D01*
X24447672Y19062604D01*
X24355514Y18933846D01*
X24233404Y18765428D01*
X24084039Y18561027D01*
X23910124Y18324320D01*
X23714356Y18058985D01*
X23499438Y17768697D01*
X23268070Y17457131D01*
X23022953Y17127966D01*
X22766786Y16784877D01*
X22623648Y16593372D01*
X22327461Y16196668D01*
X22065788Y15845444D01*
X21835872Y15535880D01*
X21634948Y15264155D01*
X21460256Y15026446D01*
X21309037Y14818933D01*
X21178528Y14637793D01*
X21065968Y14479206D01*
X20968597Y14339350D01*
X20883652Y14214402D01*
X20808374Y14100543D01*
X20740002Y13993951D01*
X20675773Y13890803D01*
X20341225Y13346107D01*
X17131593Y15199189D01*
X17172766Y15275203D01*
X17415280Y15275203D01*
X20265212Y13629794D01*
X20664583Y14321525D01*
X17814651Y15966934D01*
X17415280Y15275203D01*
X17172766Y15275203D01*
X17436039Y15761264D01*
X17461427Y15808429D01*
X17518806Y15917452D01*
X17577953Y16033694D01*
X17639673Y16159171D01*
X17928982Y16159171D01*
X20773899Y14516658D01*
X20784814Y14529771D01*
X20841306Y14597641D01*
X20849783Y14608361D01*
X20895007Y14667675D01*
X20974031Y14772489D01*
X21083865Y14918801D01*
X21221518Y15102610D01*
X21384000Y15319914D01*
X21568321Y15566715D01*
X21771490Y15839010D01*
X21990515Y16132799D01*
X22222408Y16444080D01*
X22464177Y16768854D01*
X22569569Y16910466D01*
X22808140Y17230940D01*
X23035886Y17536748D01*
X23249770Y17823823D01*
X23446762Y18088099D01*
X23623825Y18325505D01*
X23777926Y18531978D01*
X23906030Y18703446D01*
X24005104Y18835845D01*
X24072111Y18925105D01*
X24104019Y18967160D01*
X24126495Y18996556D01*
X24167446Y19054807D01*
X24179603Y19080315D01*
X24177118Y19081342D01*
X24133992Y19093460D01*
X24057560Y19112467D01*
X23995157Y19131150D01*
X23860433Y19182250D01*
X23684347Y19257329D01*
X23475671Y19352273D01*
X23243176Y19462963D01*
X22995629Y19585279D01*
X22741803Y19715106D01*
X22490465Y19848323D01*
X22219046Y19999077D01*
X21925415Y20169971D01*
X21628431Y20349818D01*
X21338098Y20532213D01*
X21315962Y20546654D01*
X21799094Y20546654D01*
X21819038Y20529513D01*
X21875942Y20488982D01*
X21966589Y20426603D01*
X22021646Y20389885D01*
X22206971Y20275092D01*
X22407065Y20161210D01*
X22589147Y20067169D01*
X22660202Y20033221D01*
X22735627Y19998081D01*
X22773266Y19982604D01*
X22770172Y19988805D01*
X22723402Y20018694D01*
X22630011Y20074288D01*
X22487053Y20157600D01*
X22291583Y20270642D01*
X22153244Y20350434D01*
X21993184Y20442292D01*
X21882951Y20504586D01*
X21819326Y20538859D01*
X21799094Y20546654D01*
X21315962Y20546654D01*
X21064425Y20710747D01*
X20817419Y20879013D01*
X20607084Y21030602D01*
X20443430Y21159108D01*
X20357699Y21230518D01*
X20264976Y21306521D01*
X20200186Y21358120D01*
X20173763Y21376890D01*
X20169568Y21368674D01*
X20143526Y21310956D01*
X20095655Y21202382D01*
X20028170Y21048087D01*
X19943287Y20853206D01*
X19843221Y20622872D01*
X19730186Y20362221D01*
X19606398Y20076385D01*
X19474072Y19770500D01*
X19335422Y19449699D01*
X19192665Y19119118D01*
X19048014Y18783889D01*
X18903684Y18449147D01*
X18761891Y18120026D01*
X18624850Y17801662D01*
X18494776Y17499187D01*
X18373884Y17217736D01*
X18264388Y16962443D01*
X18168504Y16738444D01*
X18088447Y16550871D01*
X18026432Y16404858D01*
X17984673Y16305541D01*
X17965387Y16258053D01*
X17928982Y16159171D01*
X17639673Y16159171D01*
X17640797Y16161457D01*
X17709265Y16305043D01*
X17785287Y16468754D01*
X17870791Y16656892D01*
X17967708Y16873759D01*
X18077965Y17123656D01*
X18203492Y17410886D01*
X18346218Y17739751D01*
X18508071Y18114552D01*
X18690979Y18539591D01*
X18896875Y19019171D01*
X18916241Y19064310D01*
X19084635Y19456043D01*
X19246288Y19830774D01*
X19399367Y20184324D01*
X19542038Y20512520D01*
X19672467Y20811181D01*
X19788821Y21076133D01*
X19889266Y21303196D01*
X19946227Y21430615D01*
X20747755Y21430615D01*
X22407909Y20472125D01*
X23929718Y19593508D01*
X25670976Y22609456D01*
X22489013Y24446563D01*
X20747755Y21430615D01*
X19946227Y21430615D01*
X19971968Y21488195D01*
X20035093Y21626953D01*
X20076808Y21715291D01*
X20095280Y21749034D01*
X20112894Y21758278D01*
X20158103Y21755661D01*
X20231646Y21725216D01*
X20345683Y21662752D01*
X20554070Y21542439D01*
X22318539Y24598589D01*
X22234824Y24915260D01*
X22197704Y25055671D01*
X22456396Y25055671D01*
X22506709Y24860608D01*
X22557020Y24665545D01*
X25782800Y22803141D01*
X25826616Y22777843D01*
X26020702Y22831803D01*
X26214787Y22885763D01*
X22456396Y25055671D01*
X22197704Y25055671D01*
X22179545Y25124360D01*
X22843447Y25124360D01*
X22844989Y25120798D01*
X22887266Y25091006D01*
X22979111Y25032939D01*
X23116552Y24948962D01*
X23295615Y24841440D01*
X23512326Y24712739D01*
X23762711Y24565224D01*
X24042797Y24401261D01*
X24348609Y24223215D01*
X24676173Y24033451D01*
X26564113Y22942326D01*
X27075308Y23827742D01*
X27137595Y23936025D01*
X27258671Y24149002D01*
X27364057Y24337779D01*
X27450412Y24496180D01*
X27514397Y24618030D01*
X27552669Y24697151D01*
X27561890Y24727368D01*
X27530880Y24730467D01*
X27442435Y24733806D01*
X27304206Y24736970D01*
X27123574Y24739846D01*
X26907919Y24742315D01*
X26664624Y24744263D01*
X26401070Y24745574D01*
X26053643Y24747745D01*
X25620530Y24754083D01*
X25237268Y24764954D01*
X24895742Y24781093D01*
X24587832Y24803236D01*
X24305425Y24832122D01*
X24040400Y24868486D01*
X23784642Y24913064D01*
X23530035Y24966594D01*
X23268459Y25029810D01*
X23125596Y25065235D01*
X22993848Y25095879D01*
X22894980Y25116659D01*
X22843447Y25124360D01*
X22179545Y25124360D01*
X22151107Y25231930D01*
X19605453Y26701664D01*
X19288783Y26617948D01*
X18972112Y26534232D01*
X17206092Y23475395D01*
X17428314Y23347095D01*
X17520925Y23291971D01*
X17598280Y23238778D01*
X17635399Y23199136D01*
X17641975Y23164776D01*
X17641385Y23163078D01*
X17615892Y23123131D01*
X17554909Y23036439D01*
X17461145Y22906658D01*
X17337310Y22737440D01*
X17186113Y22532442D01*
X17010262Y22295317D01*
X16812466Y22029719D01*
X16595436Y21739303D01*
X16361879Y21427723D01*
X16114505Y21098633D01*
X15856023Y20755687D01*
X15689219Y20534602D01*
X15393278Y20141907D01*
X15131897Y19794326D01*
X14902328Y19488090D01*
X14701821Y19219426D01*
X14527625Y18984567D01*
X14376991Y18779742D01*
X14247168Y18601179D01*
X14135407Y18445111D01*
X14038958Y18307765D01*
X13955070Y18185374D01*
X13880993Y18074165D01*
X13813977Y17970370D01*
X13751275Y17870218D01*
X13423915Y17339818D01*
X10241952Y19176925D01*
X10282911Y19252939D01*
X10525639Y19252939D01*
X13347901Y17623505D01*
X13731298Y18287567D01*
X10909036Y19917001D01*
X10525639Y19252939D01*
X10282911Y19252939D01*
X10537613Y19725626D01*
X10566129Y19778955D01*
X10621790Y19885663D01*
X10679424Y20000122D01*
X10732477Y20109238D01*
X11023368Y20109238D01*
X13840615Y18482700D01*
X13851380Y18495556D01*
X13908295Y18563524D01*
X13918726Y18576668D01*
X13966553Y18638927D01*
X14048222Y18746299D01*
X14160742Y18894823D01*
X14301131Y19080541D01*
X14466397Y19299494D01*
X14653555Y19547723D01*
X14859616Y19821267D01*
X15081592Y20116169D01*
X15316497Y20428469D01*
X15561342Y20754207D01*
X15688018Y20922762D01*
X15928134Y21242102D01*
X16156775Y21545971D01*
X16370954Y21830414D01*
X16567683Y22091468D01*
X16743973Y22325176D01*
X16896840Y22527578D01*
X17023292Y22694715D01*
X17120346Y22822627D01*
X17185012Y22907354D01*
X17214305Y22944938D01*
X17216942Y22948124D01*
X17255631Y23008978D01*
X17253579Y23042164D01*
X17251276Y23043355D01*
X17204221Y23062795D01*
X17111193Y23098669D01*
X16984475Y23146303D01*
X16836352Y23201018D01*
X16750130Y23233109D01*
X16654112Y23270836D01*
X16559970Y23311049D01*
X16460576Y23357470D01*
X16348801Y23413823D01*
X16217516Y23483832D01*
X16059594Y23571217D01*
X15867905Y23679704D01*
X15635320Y23813017D01*
X15354713Y23974877D01*
X15282836Y24016473D01*
X14886198Y24248909D01*
X14539499Y24457746D01*
X14377444Y24558991D01*
X14828402Y24558991D01*
X14877750Y24522588D01*
X14927871Y24488768D01*
X15061662Y24402574D01*
X15226627Y24300008D01*
X15406467Y24191133D01*
X15584891Y24086008D01*
X15693232Y24023941D01*
X15855863Y23933490D01*
X16001679Y23855494D01*
X16117978Y23796693D01*
X16192062Y23763824D01*
X16200850Y23761067D01*
X16197883Y23770428D01*
X16143676Y23808234D01*
X16041751Y23872312D01*
X15895635Y23960482D01*
X15708851Y24070573D01*
X15484922Y24200405D01*
X15369393Y24266807D01*
X15154301Y24389459D01*
X14993215Y24479706D01*
X14885575Y24537846D01*
X14830824Y24564175D01*
X14828402Y24558991D01*
X14377444Y24558991D01*
X14236469Y24647066D01*
X13970843Y24820957D01*
X13736353Y24983502D01*
X13526732Y25138786D01*
X13335712Y25290896D01*
X13240250Y25369777D01*
X13202471Y25266430D01*
X13196211Y25250569D01*
X13165999Y25177457D01*
X13113642Y25052488D01*
X13041076Y24880239D01*
X12950242Y24665289D01*
X12843079Y24412214D01*
X12721525Y24125593D01*
X12587519Y23810002D01*
X12443002Y23470018D01*
X12289911Y23110221D01*
X12130186Y22735186D01*
X12047552Y22541206D01*
X11891057Y22173588D01*
X11742221Y21823642D01*
X11602982Y21495933D01*
X11475273Y21195030D01*
X11361031Y20925498D01*
X11262188Y20691905D01*
X11180681Y20498818D01*
X11118444Y20350805D01*
X11077413Y20252430D01*
X11059523Y20208263D01*
X11023368Y20109238D01*
X10732477Y20109238D01*
X10740920Y20126602D01*
X10808169Y20269368D01*
X10883061Y20432686D01*
X10967485Y20620824D01*
X11063333Y20838048D01*
X11172491Y21088624D01*
X11296854Y21376820D01*
X11438308Y21706901D01*
X11598746Y22083135D01*
X11780055Y22509788D01*
X11984128Y22991127D01*
X12008831Y23049427D01*
X12175766Y23442608D01*
X12335993Y23818633D01*
X12487700Y24173332D01*
X12629080Y24502530D01*
X12758321Y24802055D01*
X12873612Y25067732D01*
X12973146Y25295389D01*
X13030128Y25424326D01*
X13830446Y25424326D01*
X15601276Y24401936D01*
X17012407Y23587219D01*
X18753665Y26603167D01*
X15571704Y28440273D01*
X13830446Y25424326D01*
X13030128Y25424326D01*
X13055110Y25480853D01*
X13117694Y25619950D01*
X13159089Y25708507D01*
X13177484Y25742351D01*
X13196177Y25752076D01*
X13241408Y25749253D01*
X13314694Y25718790D01*
X13411203Y25665877D01*
X13428372Y25656463D01*
X13636761Y25536150D01*
G37*
D12*
%TO.C,M1*%
X3556000Y20828000D02*
X508000Y20828000D01*
X508000Y20828000D02*
X508000Y12700000D01*
X508000Y12700000D02*
X3556000Y12700000D01*
X3556000Y12700000D02*
X3556000Y20828000D01*
%TD*%
%LPC*%
D14*
%TO.C,R1*%
X21336000Y40894000D03*
D15*
X13716000Y40894000D03*
%TD*%
D16*
%TO.C,SW1*%
X35266000Y34428000D03*
D17*
X30266000Y34428000D03*
X32766000Y34428000D03*
D18*
X38366000Y26928000D03*
X27166000Y26928000D03*
D17*
X35266000Y19928000D03*
X30266000Y19928000D03*
%TD*%
D14*
%TO.C,C1*%
X25654000Y38354000D03*
X25654000Y40854000D03*
%TD*%
D19*
%TO.C,C3*%
X33782000Y9208887D03*
D14*
X33782000Y11708887D03*
%TD*%
D20*
%TO.C,U3*%
X22191000Y6682500D03*
D21*
X24731000Y6682500D03*
X27271000Y6682500D03*
%TD*%
D22*
%TO.C,Q1*%
X17526000Y20932000D03*
D23*
X20066000Y37592000D03*
D24*
X17526000Y37592000D03*
X14986000Y37592000D03*
%TD*%
D19*
%TO.C,C2*%
X15748000Y9462887D03*
D14*
X15748000Y11962887D03*
%TD*%
D25*
%TO.C,J1*%
X59182000Y28194000D03*
X59182000Y25654000D03*
X59182000Y23114000D03*
%TD*%
D26*
%TO.C,D1*%
X6858000Y20828000D03*
D27*
X6858000Y13208000D03*
%TD*%
D28*
%TO.C,R2*%
X2540000Y45974000D03*
X5080000Y51054000D03*
X7620000Y45974000D03*
%TD*%
%TO.C,J2*%
X9398000Y26543000D03*
X3398000Y26543000D03*
X6398000Y31243000D03*
%TD*%
D29*
%TO.C,U1*%
X15240000Y50800000D03*
X66040000Y7620000D03*
X13970000Y2540000D03*
X66040000Y35560000D03*
D19*
X27940000Y2540000D03*
D15*
X30480000Y2540000D03*
X33020000Y2540000D03*
X35560000Y2540000D03*
X38100000Y2540000D03*
X40640000Y2540000D03*
X43180000Y2540000D03*
X45720000Y2540000D03*
X50800000Y2540000D03*
X53340000Y2540000D03*
X55880000Y2540000D03*
X58420000Y2540000D03*
X60960000Y2540000D03*
X63500000Y2540000D03*
X63500000Y50800000D03*
X60960000Y50800000D03*
X58420000Y50800000D03*
X55880000Y50800000D03*
X53340000Y50800000D03*
X50800000Y50800000D03*
X48260000Y50800000D03*
X45720000Y50800000D03*
X41660000Y50800000D03*
X39120000Y50800000D03*
X36580000Y50800000D03*
X34040000Y50800000D03*
X31500000Y50800000D03*
X28960000Y50800000D03*
X26420000Y50800000D03*
X23880000Y50800000D03*
X21340000Y50800000D03*
X18800000Y50800000D03*
%TD*%
D30*
%TO.C,U2*%
X25400000Y46482000D03*
D31*
X27599705Y45212000D03*
X29799409Y43942000D03*
X31999114Y42672000D03*
X34198818Y41402000D03*
X36398523Y40132000D03*
%TD*%
D32*
%TO.C,M1*%
X2032000Y19304000D03*
X2032000Y14224000D03*
%TD*%
M02*
